<svg width="52" height="52" viewBox="0 0 52 52" fill="none" xmlns="http://www.w3.org/2000/svg">
<circle cx="26" cy="26" r="25.5" fill="#1C1C1C" stroke="#2D2D2D"/>
<path d="M18.8032 23.85C18.3653 25.4666 20.6416 25.8147 21.8345 25.7866L20.6556 26.9233H17.4981C18.1155 25.2253 19.241 22.2333 18.8032 23.85Z" fill="white"/>
<path d="M27.5858 32.2764L25.978 26.645C25.8328 26.1367 25.3682 25.7861 24.8395 25.7861H21.8036C21.0171 25.7861 20.4492 26.5388 20.6651 27.2951L22.2729 32.9264C22.418 33.4348 22.8827 33.7853 23.4113 33.7853H26.4473C27.2338 33.7853 27.8017 33.0326 27.5858 32.2764Z" fill="white"/>
<path d="M15.7578 17.9907L9.69868 32.2649C9.36726 33.0457 9.9403 33.9114 10.7885 33.9114H13.7652C14.2413 33.9114 14.671 33.6263 14.8561 33.1877L20.6775 19.3888C21.0067 18.6083 20.4337 17.7446 19.5866 17.7446H17.8767H16.1295C15.9675 17.7446 15.8211 17.8415 15.7578 17.9907Z" fill="white"/>
<path d="M33.2656 17.8456L33.2656 32.5258C33.2656 33.1796 32.7356 33.7097 32.0817 33.7097H29.648C28.9929 33.7097 28.4623 33.1777 28.464 32.5227L28.4999 18.7595C28.5016 18.1068 29.0312 17.5786 29.6838 17.5786H31.2535H32.9987C33.1461 17.5786 33.2656 17.6981 33.2656 17.8456Z" fill="white"/>
<path d="M41.6092 19.6099L34.3861 26.4621C33.8322 26.9875 32.9331 26.8591 32.5485 26.1996L31.9435 25.162C31.657 24.6707 31.7603 24.0451 32.1895 23.672L35.5671 20.7365L38.9055 17.5546C39.2181 17.2567 39.668 17.1526 40.0797 17.2829L41.1517 17.6223C42.0114 17.8944 42.2634 18.9893 41.6092 19.6099Z" fill="white"/>
<path d="M35.5018 23.2381L42.5097 32.2283C43.1158 33.0058 42.5618 34.1401 41.576 34.1401L39.525 34.1401C39.15 34.1401 38.7973 33.9626 38.5739 33.6614L35.0268 28.8777L32.1775 25.035C31.6756 24.3582 32.0215 23.3886 32.8384 23.182L34.2779 22.8182C34.733 22.7031 35.2132 22.8678 35.5018 23.2381Z" fill="white"/>
</svg>
