<svg width="471" height="329" viewBox="0 0 471 329" fill="none" xmlns="http://www.w3.org/2000/svg">
<g clip-path="url(#clip0_1261_1224)">
<rect width="471" height="329" fill="#0A0A0A"/>
<g clip-path="url(#clip1_1261_1224)">
<path d="M236.418 568.172C385.396 568.172 506.167 447.402 506.167 298.424C506.167 149.446 385.396 28.6754 236.418 28.6754C87.4404 28.6754 -33.3301 149.446 -33.3301 298.424C-33.3301 447.402 87.4404 568.172 236.418 568.172Z" fill="black"/>
<path d="M236.418 568.173C307.96 568.173 376.572 539.753 427.159 489.165C477.747 438.578 506.167 369.966 506.167 298.424C506.167 226.882 477.747 158.271 427.159 107.683C376.572 57.0956 307.96 28.6757 236.418 28.6757" stroke="white" stroke-opacity="0.2" stroke-width="0.674371"/>
<path d="M236.418 568.173C295.208 568.173 351.59 539.753 393.16 489.165C434.731 438.578 458.085 369.966 458.085 298.424C458.085 226.882 434.731 158.271 393.16 107.683C351.59 57.0956 295.208 28.6757 236.418 28.6757" stroke="white" stroke-opacity="0.2" stroke-width="0.674371"/>
<path d="M236.418 568.173C278.513 568.173 318.883 539.753 348.648 489.165C378.413 438.578 395.135 369.966 395.135 298.424C395.135 226.882 378.413 158.271 348.648 107.683C318.883 57.0956 278.513 28.6757 236.418 28.6757" stroke="white" stroke-opacity="0.2" stroke-width="0.674371"/>
<path d="M236.418 568.173C258.435 568.173 279.55 539.753 295.118 489.165C310.686 438.578 319.432 369.966 319.432 298.424C319.432 226.882 310.686 158.271 295.118 107.683C279.55 57.0956 258.435 28.6757 236.418 28.6757" stroke="white" stroke-opacity="0.2" stroke-width="0.674371"/>
<path d="M236.418 568.173V28.6757" stroke="white" stroke-opacity="0.2" stroke-width="0.674371"/>
<path d="M236.415 28.6757C214.399 28.6757 193.284 57.0956 177.716 107.683C162.148 158.271 153.402 226.882 153.402 298.424C153.402 369.966 162.148 438.578 177.716 489.165C193.284 539.753 214.399 568.173 236.415 568.173" stroke="white" stroke-opacity="0.2" stroke-width="0.674371"/>
<path d="M236.416 28.6757C194.322 28.6757 153.951 57.0956 124.186 107.683C94.4211 158.271 77.6992 226.882 77.6992 298.424C77.6992 369.966 94.4211 438.578 124.186 489.165C153.951 539.753 194.322 568.173 236.416 568.173" stroke="white" stroke-opacity="0.2" stroke-width="0.674371"/>
<path d="M236.416 28.6757C177.626 28.6757 121.244 57.0956 79.6736 107.683C38.1031 158.271 14.749 226.882 14.749 298.424C14.749 369.966 38.1031 438.578 79.6736 489.165C121.244 539.753 177.626 568.173 236.416 568.173" stroke="white" stroke-opacity="0.2" stroke-width="0.674371"/>
<path d="M236.418 28.6754C164.877 28.6754 96.2651 57.0952 45.6774 107.683C-4.91023 158.271 -33.3301 226.882 -33.3301 298.424C-33.3301 369.966 -4.91023 438.577 45.6774 489.165C96.2651 539.752 164.877 568.172 236.418 568.172" stroke="white" stroke-opacity="0.2" stroke-width="0.674371"/>
<path d="M74.5674 82.625H398.266" stroke="white" stroke-opacity="0.2" stroke-width="0.674371"/>
<path d="M20.6187 136.575H452.216" stroke="white" stroke-opacity="0.2" stroke-width="0.674371"/>
<path d="M-10.811 190.525H483.646" stroke="white" stroke-opacity="0.2" stroke-width="0.674371"/>
<path d="M-27.8813 244.474H500.716" stroke="white" stroke-opacity="0.2" stroke-width="0.674371"/>
<path d="M-33.3301 298.424H506.167" stroke="white" stroke-opacity="0.2" stroke-width="0.674371"/>
<path d="M236.418 28.6757C284.381 28.6756 331.049 47.606 369.419 82.6254C386.222 97.9618 401.149 116.127 413.752 136.575C424.048 153.281 432.715 171.386 439.58 190.525" stroke="url(#paint0_radial_1261_1224)" stroke-width="1.34874" stroke-linecap="round"/>
<path d="M439.575 201.315C445.534 201.315 450.365 196.484 450.365 190.525C450.365 184.566 445.534 179.735 439.575 179.735C433.616 179.735 428.785 184.566 428.785 190.525C428.785 196.484 433.616 201.315 439.575 201.315Z" fill="black" stroke="url(#paint1_linear_1261_1224)" stroke-width="0.674371"/>
<path fill-rule="evenodd" clip-rule="evenodd" d="M439.911 185.131C439.911 185.131 437.272 187.658 436.837 188.096C436.783 188.15 436.775 188.234 436.819 188.297C436.862 188.36 436.944 188.384 437.015 188.355L439.51 187.338L442.12 191.443C442.164 191.513 442.255 191.538 442.33 191.501C442.405 191.464 442.439 191.377 442.409 191.3C442.076 190.462 439.911 185.131 439.911 185.131ZM438.423 189.203C438.465 189.132 438.445 189.041 438.378 188.993C438.31 188.945 438.216 188.956 438.161 189.017C437.635 189.604 434.179 193.56 434.179 193.56C434.179 193.56 437.677 194.439 438.246 194.568C438.321 194.585 438.398 194.548 438.43 194.479C438.462 194.41 438.441 194.329 438.379 194.284L436.311 192.78L438.423 189.203ZM443.657 190.249C443.631 190.175 443.555 190.13 443.477 190.143C443.398 190.155 443.341 190.222 443.341 190.3V192.807L438.531 192.899C438.447 192.901 438.378 192.965 438.372 193.048C438.366 193.13 438.425 193.203 438.508 193.216C439.36 193.353 444.969 194.284 444.969 194.284C444.969 194.284 443.844 190.788 443.657 190.249Z" fill="black"/>
<path d="M439.574 195.921C442.554 195.921 444.969 193.505 444.969 190.526C444.969 187.546 442.554 185.131 439.574 185.131C436.595 185.131 434.179 187.546 434.179 190.526C434.179 193.505 436.595 195.921 439.574 195.921Z" fill="#181818"/>
<path d="M236.417 28.6764C188.455 28.6763 141.787 47.6067 103.417 82.6261C86.6133 97.9625 71.6863 116.127 59.0837 136.576C48.7874 153.282 40.1201 171.386 33.2559 190.526C27.0389 207.861 22.3374 225.943 19.229 244.475" stroke="url(#paint2_radial_1261_1224)" stroke-width="1.34874" stroke-linecap="round"/>
<path d="M19.2304 255.265C25.1895 255.265 30.0203 250.434 30.0203 244.475C30.0203 238.515 25.1895 233.685 19.2304 233.685C13.2713 233.685 8.44043 238.515 8.44043 244.475C8.44043 250.434 13.2713 255.265 19.2304 255.265Z" fill="black" stroke="url(#paint3_linear_1261_1224)" stroke-width="0.674371"/>
<path fill-rule="evenodd" clip-rule="evenodd" d="M19.5671 239.08C19.5671 239.08 16.9279 241.607 16.4928 242.045C16.4389 242.099 16.4312 242.183 16.4744 242.246C16.5177 242.309 16.5998 242.333 16.6711 242.304L19.1661 241.287L21.7755 245.392C21.8199 245.462 21.9111 245.487 21.986 245.45C22.0609 245.413 22.0949 245.326 22.0644 245.25C21.7321 244.411 19.5671 239.08 19.5671 239.08ZM18.0788 243.152C18.1207 243.081 18.101 242.99 18.0333 242.942C17.9655 242.894 17.8718 242.905 17.8166 242.966C17.291 243.553 13.835 247.509 13.835 247.509C13.835 247.509 17.3323 248.388 17.902 248.517C17.977 248.534 18.0537 248.497 18.0859 248.428C18.118 248.359 18.0968 248.278 18.0349 248.233L15.9671 246.729L18.0788 243.152ZM23.3126 244.198C23.2869 244.124 23.2107 244.079 23.1323 244.092C23.054 244.104 22.9965 244.171 22.9965 244.249V246.756L18.1865 246.848C18.1025 246.85 18.0337 246.914 18.0277 246.997C18.0218 247.079 18.0807 247.152 18.1636 247.166C19.0153 247.302 24.6249 248.233 24.6249 248.233C24.6249 248.233 23.4994 244.738 23.3126 244.198Z" fill="black"/>
<path d="M19.2299 249.87C22.2095 249.87 24.6249 247.454 24.6249 244.475C24.6249 241.495 22.2095 239.08 19.2299 239.08C16.2504 239.08 13.835 241.495 13.835 244.475C13.835 247.454 16.2504 249.87 19.2299 249.87Z" fill="white" fill-opacity="0.2"/>
<path d="M236.418 28.6757C254.38 28.6758 271.857 47.6062 286.226 82.6254C292.519 97.9617 298.109 116.127 302.829 136.575" stroke="url(#paint4_radial_1261_1224)" stroke-width="1.34874" stroke-linecap="round"/>
<path d="M302.827 147.366C308.786 147.366 313.617 142.535 313.617 136.576C313.617 130.617 308.786 125.786 302.827 125.786C296.867 125.786 292.037 130.617 292.037 136.576C292.037 142.535 296.867 147.366 302.827 147.366Z" fill="black" stroke="url(#paint5_linear_1261_1224)" stroke-width="0.674371"/>
<path fill-rule="evenodd" clip-rule="evenodd" d="M303.164 131.181C303.164 131.181 300.525 133.709 300.089 134.146C300.036 134.201 300.028 134.285 300.071 134.347C300.114 134.41 300.197 134.435 300.268 134.405L302.763 133.389L305.372 137.493C305.417 137.563 305.508 137.588 305.583 137.551C305.658 137.514 305.692 137.428 305.661 137.351C305.329 136.512 303.164 131.181 303.164 131.181ZM301.675 135.253C301.717 135.182 301.698 135.092 301.63 135.044C301.562 134.996 301.468 135.006 301.413 135.068C300.888 135.654 297.432 139.611 297.432 139.611C297.432 139.611 300.929 140.489 301.499 140.618C301.574 140.635 301.65 140.598 301.683 140.529C301.715 140.461 301.693 140.379 301.632 140.334L299.564 138.83L301.675 135.253ZM306.909 136.299C306.884 136.225 306.807 136.18 306.729 136.193C306.651 136.206 306.593 136.272 306.593 136.35V138.857L301.783 138.95C301.699 138.951 301.63 139.016 301.624 139.098C301.618 139.18 301.677 139.253 301.76 139.267C302.612 139.403 308.222 140.334 308.222 140.334C308.222 140.334 307.096 136.839 306.909 136.299Z" fill="black"/>
<path d="M302.827 141.971C305.806 141.971 308.222 139.556 308.222 136.576C308.222 133.596 305.806 131.181 302.827 131.181C299.847 131.181 297.432 133.596 297.432 136.576C297.432 139.556 299.847 141.971 302.827 141.971Z" fill="white" fill-opacity="0.2"/>
<path d="M236.421 28.6761C218.46 28.6762 200.983 47.6066 186.614 82.6258H141.191" stroke="url(#paint6_radial_1261_1224)" stroke-width="1.34874" stroke-linecap="round"/>
<path d="M141.189 93.4161C147.148 93.4161 151.979 88.5853 151.979 82.6262C151.979 76.667 147.148 71.8362 141.189 71.8362C135.23 71.8362 130.399 76.667 130.399 82.6262C130.399 88.5853 135.23 93.4161 141.189 93.4161Z" fill="black" stroke="url(#paint7_linear_1261_1224)" stroke-width="0.674371"/>
<path fill-rule="evenodd" clip-rule="evenodd" d="M141.525 77.231C141.525 77.231 138.886 79.7586 138.451 80.1964C138.397 80.2506 138.389 80.3347 138.432 80.3975C138.476 80.4603 138.558 80.4846 138.629 80.4555L141.124 79.4386L143.733 83.5434C143.778 83.6133 143.869 83.6385 143.944 83.6015C144.019 83.5645 144.053 83.4776 144.022 83.4008C143.69 82.562 141.525 77.231 141.525 77.231ZM140.037 81.3034C140.079 81.2323 140.059 81.1416 139.991 81.0936C139.924 81.0456 139.83 81.056 139.775 81.1176C139.249 81.7042 135.793 85.6607 135.793 85.6607C135.793 85.6607 139.29 86.5394 139.86 86.6681C139.935 86.6851 140.012 86.648 140.044 86.5793C140.076 86.5106 140.055 86.4291 139.993 86.3842L137.925 84.8805L140.037 81.3034ZM145.271 82.3491C145.245 82.2751 145.169 82.2302 145.09 82.243C145.012 82.2558 144.955 82.3224 144.955 82.4005V84.907L140.145 84.9996C140.061 85.0012 139.992 85.0656 139.986 85.1479C139.98 85.2303 140.039 85.3035 140.122 85.3168C140.973 85.4535 146.583 86.3842 146.583 86.3842C146.583 86.3842 145.457 82.8888 145.271 82.3491Z" fill="black"/>
<path d="M141.188 88.021C144.168 88.021 146.583 85.6056 146.583 82.626C146.583 79.6465 144.168 77.231 141.188 77.231C138.208 77.231 135.793 79.6465 135.793 82.626C135.793 85.6056 138.208 88.021 141.188 88.021Z" fill="white" fill-opacity="0.2"/>
<path d="M236.427 28.6761V82.6258V136.576V190.525H160.344" stroke="url(#paint8_radial_1261_1224)" stroke-width="1.34874" stroke-linecap="round"/>
<path d="M160.331 201.315C166.291 201.315 171.121 196.484 171.121 190.525C171.121 184.566 166.291 179.735 160.331 179.735C154.372 179.735 149.542 184.566 149.542 190.525C149.542 196.484 154.372 201.315 160.331 201.315Z" fill="black" stroke="url(#paint9_linear_1261_1224)" stroke-width="0.674371"/>
<path fill-rule="evenodd" clip-rule="evenodd" d="M160.673 185.131C160.673 185.131 158.033 187.658 157.598 188.096C157.544 188.15 157.537 188.234 157.58 188.297C157.623 188.36 157.705 188.384 157.777 188.355L160.272 187.338L162.881 191.443C162.925 191.513 163.017 191.538 163.091 191.501C163.166 191.464 163.2 191.377 163.17 191.3C162.838 190.462 160.673 185.131 160.673 185.131ZM159.184 189.203C159.226 189.132 159.207 189.041 159.139 188.993C159.071 188.945 158.977 188.955 158.922 189.017C158.396 189.604 154.94 193.56 154.94 193.56C154.94 193.56 158.438 194.439 159.007 194.568C159.082 194.585 159.159 194.547 159.191 194.479C159.224 194.41 159.202 194.329 159.14 194.284L157.073 192.78L159.184 189.203ZM164.418 190.249C164.392 190.175 164.316 190.13 164.238 190.143C164.159 190.155 164.102 190.222 164.102 190.3V192.807L159.292 192.899C159.208 192.901 159.139 192.965 159.133 193.047C159.127 193.13 159.186 193.203 159.269 193.216C160.121 193.353 165.73 194.284 165.73 194.284C165.73 194.284 164.605 190.788 164.418 190.249Z" fill="black"/>
<path d="M160.335 195.92C163.315 195.92 165.73 193.505 165.73 190.526C165.73 187.546 163.315 185.131 160.335 185.131C157.356 185.131 154.94 187.546 154.94 190.526C154.94 193.505 157.356 195.92 160.335 195.92Z" fill="white" fill-opacity="0.2"/>
</g>
<path d="M203.794 117.333C201.972 124.061 211.444 125.509 216.408 125.392L211.503 130.122H198.363C200.933 123.056 205.616 110.606 203.794 117.333Z" fill="white"/>
<path d="M240.342 152.4L233.652 128.966C233.048 126.851 231.115 125.392 228.915 125.392H216.281C213.008 125.392 210.645 128.524 211.543 131.671L218.234 155.105C218.838 157.221 220.771 158.679 222.971 158.679H235.605C238.878 158.679 241.241 155.547 240.342 152.4Z" fill="white"/>
<path d="M191.122 92.9533L165.908 152.353C164.529 155.602 166.914 159.204 170.444 159.204H182.831C184.812 159.204 186.6 158.018 187.37 156.193L211.595 98.7712C212.965 95.5234 210.58 91.9294 207.055 91.9294H199.94H192.669C191.995 91.9294 191.386 92.3325 191.122 92.9533Z" fill="white"/>
<path d="M263.977 92.3492L263.977 153.438C263.977 156.159 261.771 158.365 259.05 158.365H248.922C246.197 158.365 243.989 156.151 243.996 153.425L244.145 96.1521C244.152 93.4362 246.356 91.2383 249.072 91.2383H255.603H262.866C263.479 91.2383 263.977 91.7357 263.977 92.3492Z" fill="white"/>
<path d="M298.697 99.6902L268.639 128.204C266.334 130.391 262.593 129.856 260.992 127.112L258.474 122.794C257.282 120.75 257.712 118.146 259.498 116.594L273.554 104.378L287.446 91.1374C288.746 89.8978 290.619 89.4645 292.332 90.0068L296.793 91.4189C300.37 92.5514 301.419 97.1077 298.697 99.6902Z" fill="white"/>
<path d="M273.282 114.788L302.444 152.199C304.966 155.434 302.661 160.154 298.558 160.154L290.023 160.154C288.463 160.154 286.995 159.415 286.066 158.162L271.305 138.256L259.449 122.265C257.36 119.449 258.799 115.414 262.199 114.554L268.189 113.04C270.083 112.561 272.081 113.247 273.282 114.788Z" fill="white"/>
<path d="M125.92 207H118.999L129.544 176.455H137.866L148.396 207H141.476L133.825 183.435H133.586L125.92 207ZM125.487 194.994H141.834V200.035H125.487V194.994ZM156.241 200.408L156.255 192.786H157.18L164.518 184.091H171.812L161.953 195.605H160.447L156.241 200.408ZM150.483 207V176.455H156.837V207H150.483ZM164.802 207L158.06 197.022L162.296 192.533L172.244 207H164.802ZM192.52 190.624L186.703 190.982C186.604 190.484 186.39 190.037 186.062 189.639C185.734 189.232 185.301 188.908 184.764 188.67C184.237 188.421 183.606 188.297 182.87 188.297C181.886 188.297 181.055 188.506 180.379 188.923C179.703 189.331 179.365 189.878 179.365 190.564C179.365 191.111 179.584 191.573 180.021 191.951C180.459 192.329 181.21 192.632 182.273 192.861L186.42 193.696C188.647 194.153 190.308 194.889 191.401 195.903C192.495 196.918 193.042 198.25 193.042 199.901C193.042 201.402 192.599 202.719 191.714 203.853C190.839 204.987 189.636 205.871 188.105 206.508C186.584 207.134 184.829 207.447 182.84 207.447C179.808 207.447 177.391 206.816 175.592 205.553C173.802 204.281 172.753 202.55 172.445 200.363L178.694 200.035C178.883 200.96 179.34 201.665 180.066 202.153C180.792 202.63 181.722 202.869 182.855 202.869C183.969 202.869 184.864 202.655 185.54 202.227C186.226 201.79 186.574 201.228 186.584 200.542C186.574 199.965 186.33 199.493 185.853 199.125C185.376 198.747 184.64 198.459 183.646 198.26L179.678 197.469C177.441 197.022 175.776 196.246 174.682 195.143C173.598 194.039 173.056 192.632 173.056 190.922C173.056 189.45 173.454 188.183 174.249 187.119C175.055 186.055 176.183 185.234 177.635 184.658C179.097 184.081 180.807 183.793 182.766 183.793C185.659 183.793 187.936 184.404 189.597 185.627C191.267 186.85 192.241 188.516 192.52 190.624ZM201.926 193.756V207H195.573V176.455H201.747V188.133H202.016C202.533 186.781 203.368 185.722 204.522 184.956C205.675 184.18 207.122 183.793 208.862 183.793C210.453 183.793 211.84 184.141 213.023 184.837C214.216 185.523 215.141 186.512 215.797 187.805C216.463 189.087 216.792 190.624 216.782 192.413V207H210.428V193.547C210.438 192.135 210.08 191.036 209.354 190.251C208.638 189.465 207.634 189.072 206.341 189.072C205.476 189.072 204.711 189.256 204.044 189.624C203.388 189.992 202.871 190.529 202.493 191.235C202.125 191.931 201.936 192.771 201.926 193.756ZM226.844 207.433C225.383 207.433 224.08 207.179 222.937 206.672C221.793 206.155 220.888 205.394 220.222 204.39C219.566 203.376 219.238 202.113 219.238 200.602C219.238 199.329 219.472 198.26 219.939 197.395C220.406 196.53 221.043 195.834 221.848 195.307C222.653 194.78 223.568 194.382 224.592 194.114C225.626 193.845 226.71 193.656 227.844 193.547C229.176 193.408 230.25 193.278 231.065 193.159C231.881 193.03 232.472 192.841 232.84 192.592C233.208 192.344 233.392 191.976 233.392 191.489V191.399C233.392 190.455 233.094 189.724 232.497 189.207C231.91 188.69 231.075 188.431 229.991 188.431C228.848 188.431 227.938 188.685 227.262 189.192C226.586 189.689 226.138 190.315 225.92 191.071L220.043 190.594C220.342 189.202 220.928 187.999 221.803 186.984C222.678 185.96 223.807 185.175 225.189 184.628C226.581 184.071 228.192 183.793 230.021 183.793C231.294 183.793 232.512 183.942 233.675 184.24C234.849 184.538 235.888 185.001 236.793 185.627C237.707 186.254 238.428 187.059 238.955 188.043C239.482 189.018 239.746 190.186 239.746 191.548V207H233.72V203.823H233.541C233.173 204.539 232.681 205.17 232.065 205.717C231.448 206.254 230.707 206.677 229.842 206.985C228.977 207.283 227.978 207.433 226.844 207.433ZM228.664 203.048C229.599 203.048 230.424 202.864 231.14 202.496C231.856 202.118 232.418 201.611 232.825 200.974C233.233 200.338 233.437 199.617 233.437 198.812V196.381C233.238 196.51 232.964 196.629 232.616 196.739C232.278 196.838 231.896 196.933 231.468 197.022C231.04 197.102 230.613 197.176 230.185 197.246C229.758 197.305 229.37 197.36 229.022 197.41C228.276 197.519 227.625 197.693 227.068 197.932C226.511 198.17 226.079 198.494 225.771 198.901C225.462 199.299 225.308 199.796 225.308 200.393C225.308 201.258 225.621 201.919 226.248 202.376C226.884 202.824 227.69 203.048 228.664 203.048ZM255.39 184.091V188.864H241.594V184.091H255.39ZM244.726 178.602H251.08V199.96C251.08 200.547 251.17 201.004 251.349 201.332C251.527 201.651 251.776 201.874 252.094 202.004C252.422 202.133 252.8 202.197 253.228 202.197C253.526 202.197 253.824 202.173 254.123 202.123C254.421 202.063 254.65 202.018 254.809 201.989L255.808 206.717C255.49 206.816 255.042 206.93 254.466 207.06C253.889 207.199 253.188 207.283 252.363 207.313C250.831 207.373 249.489 207.169 248.336 206.702C247.192 206.234 246.302 205.509 245.666 204.524C245.03 203.54 244.716 202.297 244.726 200.795V178.602ZM286.684 186.328C286.475 185.602 286.181 184.961 285.804 184.404C285.426 183.837 284.963 183.36 284.417 182.972C283.88 182.575 283.263 182.271 282.567 182.062C281.881 181.854 281.12 181.749 280.285 181.749C278.724 181.749 277.352 182.137 276.169 182.913C274.995 183.688 274.081 184.817 273.424 186.298C272.768 187.77 272.44 189.57 272.44 191.697C272.44 193.825 272.763 195.635 273.409 197.126C274.056 198.618 274.97 199.756 276.154 200.542C277.337 201.317 278.734 201.705 280.345 201.705C281.806 201.705 283.054 201.447 284.088 200.93C285.132 200.403 285.928 199.662 286.475 198.707C287.032 197.753 287.31 196.624 287.31 195.322L288.622 195.516H280.747V190.653H293.529V194.501C293.529 197.186 292.963 199.493 291.829 201.422C290.696 203.341 289.135 204.822 287.146 205.866C285.157 206.901 282.88 207.418 280.315 207.418C277.451 207.418 274.936 206.786 272.768 205.523C270.6 204.251 268.91 202.446 267.697 200.109C266.494 197.763 265.892 194.979 265.892 191.757C265.892 189.281 266.25 187.074 266.966 185.135C267.692 183.186 268.706 181.536 270.009 180.183C271.311 178.831 272.828 177.802 274.558 177.096C276.288 176.39 278.162 176.037 280.181 176.037C281.911 176.037 283.522 176.29 285.013 176.798C286.505 177.295 287.827 178.001 288.98 178.915C290.144 179.83 291.093 180.919 291.829 182.182C292.565 183.435 293.037 184.817 293.246 186.328H286.684ZM307.142 207.447C304.825 207.447 302.822 206.955 301.131 205.971C299.451 204.977 298.153 203.594 297.239 201.825C296.324 200.045 295.866 197.982 295.866 195.635C295.866 193.268 296.324 191.2 297.239 189.43C298.153 187.651 299.451 186.268 301.131 185.284C302.822 184.29 304.825 183.793 307.142 183.793C309.459 183.793 311.457 184.29 313.138 185.284C314.828 186.268 316.131 187.651 317.045 189.43C317.96 191.2 318.418 193.268 318.418 195.635C318.418 197.982 317.96 200.045 317.045 201.825C316.131 203.594 314.828 204.977 313.138 205.971C311.457 206.955 309.459 207.447 307.142 207.447ZM307.172 202.526C308.226 202.526 309.106 202.227 309.812 201.631C310.518 201.024 311.05 200.199 311.408 199.155C311.776 198.111 311.959 196.923 311.959 195.59C311.959 194.258 311.776 193.07 311.408 192.026C311.05 190.982 310.518 190.156 309.812 189.55C309.106 188.943 308.226 188.64 307.172 188.64C306.108 188.64 305.213 188.943 304.487 189.55C303.771 190.156 303.229 190.982 302.861 192.026C302.504 193.07 302.325 194.258 302.325 195.59C302.325 196.923 302.504 198.111 302.861 199.155C303.229 200.199 303.771 201.024 304.487 201.631C305.213 202.227 306.108 202.526 307.172 202.526ZM331.519 207.447C329.163 207.447 327.134 206.97 325.434 206.016C323.744 205.051 322.441 203.689 321.526 201.929C320.612 200.159 320.154 198.066 320.154 195.65C320.154 193.293 320.612 191.225 321.526 189.445C322.441 187.665 323.729 186.278 325.389 185.284C327.06 184.29 329.019 183.793 331.266 183.793C332.777 183.793 334.184 184.036 335.487 184.523C336.799 185.001 337.943 185.722 338.917 186.686C339.901 187.651 340.667 188.864 341.214 190.325C341.761 191.777 342.034 193.477 342.034 195.426V197.171H322.69V193.234H336.053C336.053 192.319 335.855 191.509 335.457 190.803C335.059 190.097 334.507 189.545 333.801 189.147C333.105 188.739 332.295 188.536 331.37 188.536C330.406 188.536 329.551 188.759 328.805 189.207C328.069 189.644 327.492 190.236 327.075 190.982C326.657 191.717 326.443 192.538 326.433 193.442V197.186C326.433 198.32 326.642 199.299 327.06 200.124C327.487 200.95 328.089 201.586 328.864 202.033C329.64 202.481 330.56 202.705 331.624 202.705C332.33 202.705 332.976 202.605 333.563 202.406C334.149 202.207 334.651 201.909 335.069 201.511C335.487 201.114 335.805 200.626 336.024 200.05L341.9 200.438C341.602 201.849 340.99 203.082 340.065 204.136C339.151 205.18 337.967 205.996 336.516 206.582C335.074 207.159 333.408 207.447 331.519 207.447ZM351.064 176.455V207H344.711V176.455H351.064Z" fill="white"/>
</g>
<defs>
<radialGradient id="paint0_radial_1261_1224" cx="0" cy="0" r="1" gradientUnits="userSpaceOnUse" gradientTransform="translate(34.1071 96.1129) scale(0)">
<stop/>
<stop offset="0.4"/>
<stop offset="1" stop-opacity="0"/>
</radialGradient>
<linearGradient id="paint1_linear_1261_1224" x1="-33.3343" y1="28.6763" x2="-33.3343" y2="298.425" gradientUnits="userSpaceOnUse">
<stop/>
<stop offset="1"/>
</linearGradient>
<radialGradient id="paint2_radial_1261_1224" cx="0" cy="0" r="1" gradientUnits="userSpaceOnUse" gradientTransform="translate(34.1056 96.1135) scale(0)">
<stop/>
<stop offset="0.4"/>
<stop offset="1" stop-opacity="0"/>
</radialGradient>
<linearGradient id="paint3_linear_1261_1224" x1="-33.33" y1="28.6758" x2="-33.33" y2="298.424" gradientUnits="userSpaceOnUse">
<stop/>
<stop offset="1"/>
</linearGradient>
<radialGradient id="paint4_radial_1261_1224" cx="0" cy="0" r="1" gradientUnits="userSpaceOnUse" gradientTransform="translate(34.1071 96.1129) scale(0)">
<stop/>
<stop offset="0.4"/>
<stop offset="1" stop-opacity="0"/>
</radialGradient>
<linearGradient id="paint5_linear_1261_1224" x1="-33.3324" y1="28.6765" x2="-33.3324" y2="298.425" gradientUnits="userSpaceOnUse">
<stop/>
<stop offset="1"/>
</linearGradient>
<radialGradient id="paint6_radial_1261_1224" cx="0" cy="0" r="1" gradientUnits="userSpaceOnUse" gradientTransform="translate(34.11 96.1132) scale(0)">
<stop/>
<stop offset="0.4"/>
<stop offset="1" stop-opacity="0"/>
</radialGradient>
<linearGradient id="paint7_linear_1261_1224" x1="-33.3296" y1="28.6765" x2="-33.3296" y2="298.425" gradientUnits="userSpaceOnUse">
<stop/>
<stop offset="1"/>
</linearGradient>
<radialGradient id="paint8_radial_1261_1224" cx="0" cy="0" r="1" gradientUnits="userSpaceOnUse" gradientTransform="translate(34.1154 96.1132) scale(0)">
<stop/>
<stop offset="0.4"/>
<stop offset="1" stop-opacity="0"/>
</radialGradient>
<linearGradient id="paint9_linear_1261_1224" x1="-33.3343" y1="28.6761" x2="-33.3343" y2="298.425" gradientUnits="userSpaceOnUse">
<stop/>
<stop offset="1"/>
</linearGradient>
<clipPath id="clip0_1261_1224">
<rect width="471" height="329" fill="white"/>
</clipPath>
<clipPath id="clip1_1261_1224">
<rect width="540.846" height="271.097" fill="white" transform="translate(-34 28)"/>
</clipPath>
</defs>
</svg>
