<svg width="256" height="221" viewBox="0 0 256 221" fill="none" xmlns="http://www.w3.org/2000/svg">
<path d="M18.128 190.958C12.2913 190.958 8.20567 189.001 5.871 185.087C3.53633 181.104 2.369 175.851 2.369 169.328C2.369 162.736 3.53633 157.448 5.871 153.466C8.27433 149.414 12.36 147.389 18.128 147.389C20.7373 147.389 22.9003 147.766 24.617 148.522C26.3337 149.208 27.707 150.067 28.737 151.097C29.767 152.127 30.488 153.088 30.9 153.981C31.3807 154.805 31.6897 155.32 31.827 155.526H32.033V147.492H44.805V189.928H33.99L32.033 183.542H31.827C31.6897 183.885 31.1747 184.675 30.282 185.911C29.458 187.078 28.0503 188.211 26.059 189.31C24.1363 190.408 21.4927 190.958 18.128 190.958ZM23.278 180.555C25.75 180.555 27.604 180.04 28.84 179.01C30.076 177.98 30.9 176.641 31.312 174.993C31.724 173.276 31.93 171.422 31.93 169.431C31.93 167.371 31.724 165.517 31.312 163.869C30.9 162.152 30.076 160.813 28.84 159.852C27.604 158.822 25.75 158.307 23.278 158.307C20.806 158.307 18.9177 158.822 17.613 159.852C16.377 160.882 15.553 162.255 15.141 163.972C14.729 165.62 14.523 167.439 14.523 169.431C14.523 171.422 14.729 173.276 15.141 174.993C15.553 176.641 16.377 177.98 17.613 179.01C18.9177 180.04 20.806 180.555 23.278 180.555ZM61.4701 189.928H48.9041V131.939H61.4701V165.723L77.0231 147.183H92.1641L75.1691 165.002L92.4731 189.825H77.6411L66.5171 174.169L61.4701 179.525V189.928ZM111.323 190.958C110.087 190.958 108.37 190.752 106.173 190.34C104.044 189.928 101.847 189.172 99.5809 188.074C97.3836 186.975 95.4952 185.396 93.9159 183.336C92.4052 181.207 91.6499 178.46 91.6499 175.096H103.083C103.083 175.164 103.117 175.576 103.186 176.332C103.255 177.018 103.495 177.808 103.907 178.701C104.319 179.593 105.074 180.383 106.173 181.07C107.272 181.688 108.885 181.997 111.014 181.997C113.486 181.997 115.203 181.55 116.164 180.658C117.125 179.765 117.606 178.872 117.606 177.98C117.606 176.744 116.988 175.748 115.752 174.993C114.585 174.237 113.04 173.619 111.117 173.139C109.194 172.589 107.134 172.006 104.937 171.388C102.808 170.701 100.783 169.877 98.8599 168.916C97.0059 167.886 95.4609 166.512 94.2249 164.796C92.9889 163.079 92.4052 160.882 92.4739 158.204C92.4739 154.084 94.0532 151.028 97.2119 149.037C100.439 146.977 104.525 145.947 109.469 145.947C113.177 145.947 116.542 146.565 119.563 147.801C122.653 148.968 125.091 150.753 126.876 153.157C128.661 155.56 129.588 158.581 129.657 162.221H118.327C118.396 160.367 117.984 158.959 117.091 157.998C116.267 156.968 115.203 156.281 113.898 155.938C112.593 155.526 111.289 155.32 109.984 155.32C107.718 155.32 106.104 155.732 105.143 156.556C104.25 157.311 103.804 158.169 103.804 159.131C103.804 160.573 104.422 161.706 105.658 162.53C106.894 163.285 108.473 163.937 110.396 164.487C112.387 165.036 114.482 165.62 116.679 166.238C118.876 166.856 120.936 167.645 122.859 168.607C124.782 169.568 126.361 170.873 127.597 172.521C128.902 174.1 129.554 176.194 129.554 178.804C129.554 182.855 127.906 185.911 124.61 187.971C121.314 189.962 116.885 190.958 111.323 190.958ZM133.869 189.928V131.939H146.744V155.938H146.95C146.95 155.869 147.122 155.388 147.465 154.496C147.877 153.603 148.564 152.642 149.525 151.612C150.487 150.513 151.826 149.552 153.542 148.728C155.259 147.904 157.456 147.492 160.134 147.492C163.087 147.492 165.525 148.041 167.447 149.14C169.37 150.17 170.881 151.577 171.979 153.363C173.078 155.079 173.868 156.933 174.348 158.925C174.829 160.916 175.138 162.839 175.275 164.693C175.413 166.547 175.481 168.126 175.481 169.431V189.928H163.327V169.328C163.327 167.474 163.156 165.723 162.812 164.075C162.469 162.427 161.714 161.088 160.546 160.058C159.448 158.959 157.662 158.41 155.19 158.41C152.718 158.41 150.864 158.959 149.628 160.058C148.392 161.156 147.603 162.564 147.259 164.281C146.916 165.997 146.744 167.748 146.744 169.534V189.928H133.869ZM195.171 190.958C189.335 190.958 185.249 189.001 182.914 185.087C180.58 181.104 179.412 175.851 179.412 169.328C179.412 162.736 180.58 157.448 182.914 153.466C185.318 149.414 189.403 147.389 195.171 147.389C197.781 147.389 199.944 147.766 201.66 148.522C203.377 149.208 204.75 150.067 205.78 151.097C206.81 152.127 207.531 153.088 207.943 153.981C208.424 154.805 208.733 155.32 208.87 155.526H209.076V147.492H221.848V189.928H211.033L209.076 183.542H208.87C208.733 183.885 208.218 184.675 207.325 185.911C206.501 187.078 205.094 188.211 203.102 189.31C201.18 190.408 198.536 190.958 195.171 190.958ZM200.321 180.555C202.793 180.555 204.647 180.04 205.883 179.01C207.119 177.98 207.943 176.641 208.355 174.993C208.767 173.276 208.973 171.422 208.973 169.431C208.973 167.371 208.767 165.517 208.355 163.869C207.943 162.152 207.119 160.813 205.883 159.852C204.647 158.822 202.793 158.307 200.321 158.307C197.849 158.307 195.961 158.822 194.656 159.852C193.42 160.882 192.596 162.255 192.184 163.972C191.772 165.62 191.566 167.439 191.566 169.431C191.566 171.422 191.772 173.276 192.184 174.993C192.596 176.641 193.42 177.98 194.656 179.01C195.961 180.04 197.849 180.555 200.321 180.555ZM241.294 189.928C237.586 189.928 234.702 189.035 232.642 187.25C230.582 185.464 229.552 182.374 229.552 177.98V156.041H223.475V147.492C225.261 147.492 226.703 147.286 227.801 146.874C228.969 146.393 229.827 145.397 230.376 143.887C230.994 142.307 231.303 139.904 231.303 136.677H241.191V147.492H250.873V156.041H241.191V180.349H251.079V189.928H241.294Z" fill="#1328C8"/>
<path d="M81.7352 49.5897C79.1417 59.1658 92.6246 61.2273 99.6903 61.061L92.7078 67.7942H74.0045C77.6621 57.736 84.3287 40.0137 81.7352 49.5897Z" fill="#1328C8"/>
<path d="M133.759 99.5046L124.235 66.1487C123.376 63.1374 120.624 61.0612 117.492 61.0612H99.5089C94.8503 61.0612 91.4866 65.5196 92.7656 69.9992L102.289 103.355C103.149 106.366 105.901 108.443 109.032 108.443H127.015C131.674 108.443 135.038 103.984 133.759 99.5046Z" fill="#1328C8"/>
<path d="M63.6979 14.8871L27.8081 99.4374C25.8449 104.062 29.2392 109.19 34.2633 109.19H51.8953C54.715 109.19 57.2605 107.501 58.3566 104.903L92.8385 23.1684C94.7888 18.5455 91.3947 13.4298 86.3772 13.4298H76.2488H65.8997C64.9398 13.4298 64.0729 14.0036 63.6979 14.8871Z" fill="#1328C8"/>
<path d="M167.4 14.0277L167.4 100.982C167.4 104.856 164.26 107.995 160.387 107.995H145.971C142.091 107.995 138.949 104.844 138.959 100.964L139.171 19.4408C139.181 15.5749 142.318 12.4463 146.184 12.4463H155.481H165.819C166.692 12.4463 167.4 13.1543 167.4 14.0277Z" fill="#1328C8"/>
<path d="M216.821 24.4769L174.037 65.0642C170.756 68.1765 165.43 67.4158 163.152 63.5093L159.568 57.3636C157.871 54.4534 158.483 50.7477 161.026 48.5378L181.032 31.1498L200.807 12.3027C202.658 10.5382 205.323 9.92142 207.762 10.6933L214.111 12.7034C219.203 14.3154 220.696 20.8009 216.821 24.4769Z" fill="#1328C8"/>
<path d="M180.646 45.9669L222.156 99.2186C225.746 103.824 222.464 110.543 216.625 110.543L204.476 110.543C202.255 110.543 200.166 109.491 198.843 107.707L177.832 79.3718L160.955 56.6107C157.982 52.6015 160.031 46.8581 164.869 45.6348L173.396 43.4794C176.092 42.7979 178.936 43.7738 180.646 45.9669Z" fill="#1328C8"/>
</svg>
