<svg width="471" height="312" viewBox="0 0 471 312" fill="none" xmlns="http://www.w3.org/2000/svg">
<rect width="471" height="312" fill="#F9F9F9"/>
<path d="M113.152 57V35.1818H117.104V44.4183H127.214V35.1818H131.178V57H127.214V47.7315H117.104V57H113.152ZM133.467 38.495V35.1818H150.875V38.495H144.131V57H140.211V38.495H133.467ZM152.222 38.495V35.1818H169.63V38.495H162.886V57H158.966V38.495H152.222ZM171.936 57V35.1818H180.117C181.794 35.1818 183.2 35.4943 184.336 36.1193C185.48 36.7443 186.343 37.6037 186.925 38.6974C187.514 39.7841 187.809 41.0199 187.809 42.4048C187.809 43.804 187.514 45.0469 186.925 46.1335C186.335 47.2202 185.465 48.076 184.315 48.701C183.164 49.3189 181.747 49.6278 180.064 49.6278H174.642V46.3786H179.531C180.512 46.3786 181.314 46.2081 181.939 45.8672C182.564 45.5263 183.026 45.0575 183.324 44.4609C183.629 43.8643 183.782 43.179 183.782 42.4048C183.782 41.6307 183.629 40.9489 183.324 40.3594C183.026 39.7699 182.561 39.3118 181.928 38.9851C181.303 38.6513 180.497 38.4844 179.51 38.4844H175.888V57H171.936ZM208.441 41.1797C208.341 40.2493 207.922 39.5249 207.184 39.0064C206.452 38.4879 205.501 38.2287 204.329 38.2287C203.505 38.2287 202.798 38.353 202.209 38.6016C201.619 38.8501 201.168 39.1875 200.856 39.6136C200.543 40.0398 200.383 40.5263 200.376 41.0732C200.376 41.5277 200.479 41.9219 200.685 42.2557C200.898 42.5895 201.186 42.8736 201.548 43.108C201.91 43.3352 202.312 43.527 202.752 43.6832C203.192 43.8395 203.636 43.9709 204.084 44.0774L206.129 44.5888C206.953 44.7805 207.745 45.0398 208.505 45.3665C209.272 45.6932 209.957 46.1051 210.561 46.6023C211.172 47.0994 211.655 47.6996 212.01 48.4027C212.365 49.1058 212.542 49.9297 212.542 50.8743C212.542 52.1527 212.216 53.2784 211.562 54.2514C210.909 55.2173 209.964 55.9737 208.729 56.5206C207.5 57.0604 206.012 57.3303 204.265 57.3303C202.567 57.3303 201.094 57.0675 199.844 56.5419C198.601 56.0163 197.628 55.2493 196.925 54.2408C196.229 53.2322 195.852 52.0036 195.795 50.5547H199.684C199.741 51.3146 199.975 51.9467 200.387 52.451C200.799 52.9553 201.335 53.3317 201.996 53.5803C202.663 53.8288 203.409 53.9531 204.233 53.9531C205.092 53.9531 205.845 53.8253 206.491 53.5696C207.145 53.3068 207.656 52.9446 208.025 52.483C208.395 52.0142 208.583 51.4673 208.59 50.8423C208.583 50.2741 208.416 49.8054 208.089 49.4361C207.763 49.0597 207.305 48.7472 206.715 48.4986C206.133 48.2429 205.451 48.0156 204.67 47.8168L202.187 47.1776C200.39 46.7159 198.97 46.0163 197.926 45.0788C196.889 44.1342 196.371 42.8807 196.371 41.3182C196.371 40.0327 196.719 38.907 197.415 37.9411C198.118 36.9751 199.073 36.2259 200.28 35.6932C201.488 35.1534 202.855 34.8835 204.382 34.8835C205.93 34.8835 207.287 35.1534 208.452 35.6932C209.623 36.2259 210.543 36.968 211.211 37.9197C211.878 38.8643 212.223 39.951 212.244 41.1797H208.441ZM222.09 57.3196C220.449 57.3196 219.032 56.9787 217.839 56.2969C216.653 55.608 215.74 54.6349 215.101 53.3778C214.462 52.1136 214.142 50.6257 214.142 48.9141C214.142 47.2308 214.462 45.7536 215.101 44.4822C215.748 43.2038 216.65 42.2095 217.807 41.4993C218.965 40.782 220.325 40.4233 221.887 40.4233C222.896 40.4233 223.848 40.5866 224.743 40.9134C225.645 41.233 226.44 41.7301 227.129 42.4048C227.825 43.0795 228.372 43.9389 228.77 44.983C229.167 46.0199 229.366 47.2557 229.366 48.6903V49.8729H215.954V47.2734H225.669C225.662 46.5348 225.503 45.8778 225.19 45.3026C224.878 44.7202 224.441 44.2621 223.88 43.9283C223.326 43.5945 222.679 43.4276 221.941 43.4276C221.152 43.4276 220.46 43.6193 219.863 44.0028C219.267 44.3793 218.802 44.8764 218.468 45.4943C218.141 46.1051 217.974 46.7763 217.967 47.5078V49.777C217.967 50.7287 218.141 51.5455 218.489 52.2273C218.837 52.902 219.324 53.4205 219.949 53.7827C220.574 54.1378 221.305 54.3153 222.143 54.3153C222.704 54.3153 223.212 54.2372 223.667 54.081C224.121 53.9176 224.515 53.6797 224.849 53.3672C225.183 53.0547 225.435 52.6676 225.606 52.206L229.206 52.6108C228.979 53.5625 228.546 54.3935 227.907 55.1037C227.275 55.8068 226.465 56.3537 225.478 56.7443C224.49 57.1278 223.361 57.3196 222.09 57.3196ZM231.579 57V40.6364H235.318V43.3636H235.489C235.787 42.419 236.298 41.6911 237.023 41.1797C237.754 40.6612 238.589 40.402 239.526 40.402C239.739 40.402 239.977 40.4126 240.24 40.4339C240.51 40.4482 240.734 40.473 240.911 40.5085V44.0561C240.748 43.9993 240.489 43.9496 240.133 43.907C239.785 43.8572 239.448 43.8324 239.121 43.8324C238.418 43.8324 237.786 43.9851 237.225 44.2905C236.671 44.5888 236.234 45.0043 235.915 45.5369C235.595 46.0696 235.435 46.6839 235.435 47.38V57H231.579ZM257.538 40.6364L251.71 57H247.449L241.622 40.6364H245.734L249.495 52.7919H249.665L253.436 40.6364H257.538ZM265.844 57.3196C264.204 57.3196 262.787 56.9787 261.594 56.2969C260.407 55.608 259.495 54.6349 258.856 53.3778C258.216 52.1136 257.897 50.6257 257.897 48.9141C257.897 47.2308 258.216 45.7536 258.856 44.4822C259.502 43.2038 260.404 42.2095 261.562 41.4993C262.719 40.782 264.079 40.4233 265.642 40.4233C266.65 40.4233 267.602 40.5866 268.497 40.9134C269.399 41.233 270.194 41.7301 270.883 42.4048C271.579 43.0795 272.126 43.9389 272.524 44.983C272.922 46.0199 273.12 47.2557 273.12 48.6903V49.8729H259.708V47.2734H269.424C269.417 46.5348 269.257 45.8778 268.944 45.3026C268.632 44.7202 268.195 44.2621 267.634 43.9283C267.08 43.5945 266.434 43.4276 265.695 43.4276C264.907 43.4276 264.214 43.6193 263.618 44.0028C263.021 44.3793 262.556 44.8764 262.222 45.4943C261.895 46.1051 261.728 46.7763 261.721 47.5078V49.777C261.721 50.7287 261.895 51.5455 262.243 52.2273C262.591 52.902 263.078 53.4205 263.703 53.7827C264.328 54.1378 265.059 54.3153 265.897 54.3153C266.459 54.3153 266.966 54.2372 267.421 54.081C267.875 53.9176 268.27 53.6797 268.603 53.3672C268.937 53.0547 269.189 52.6676 269.36 52.206L272.961 52.6108C272.733 53.5625 272.3 54.3935 271.661 55.1037C271.029 55.8068 270.219 56.3537 269.232 56.7443C268.245 57.1278 267.116 57.3196 265.844 57.3196ZM275.333 57V40.6364H279.072V43.3636H279.243C279.541 42.419 280.053 41.6911 280.777 41.1797C281.509 40.6612 282.343 40.402 283.281 40.402C283.494 40.402 283.732 40.4126 283.994 40.4339C284.264 40.4482 284.488 40.473 284.665 40.5085V44.0561C284.502 43.9993 284.243 43.9496 283.888 43.907C283.54 43.8572 283.202 43.8324 282.876 43.8324C282.173 43.8324 281.54 43.9851 280.979 44.2905C280.425 44.5888 279.989 45.0043 279.669 45.5369C279.349 46.0696 279.19 46.6839 279.19 47.38V57H275.333ZM292.569 57V40.6364H296.426V57H292.569ZM294.508 38.3139C293.897 38.3139 293.372 38.1115 292.931 37.7067C292.491 37.2947 292.271 36.8011 292.271 36.2259C292.271 35.6435 292.491 35.1499 292.931 34.745C293.372 34.3331 293.897 34.1271 294.508 34.1271C295.126 34.1271 295.651 34.3331 296.085 34.745C296.525 35.1499 296.745 35.6435 296.745 36.2259C296.745 36.8011 296.525 37.2947 296.085 37.7067C295.651 38.1115 295.126 38.3139 294.508 38.3139ZM303.198 47.4119V57H299.341V40.6364H303.027V43.4169H303.219C303.596 42.5007 304.196 41.7727 305.02 41.233C305.851 40.6932 306.877 40.4233 308.098 40.4233C309.228 40.4233 310.211 40.6648 311.049 41.1477C311.895 41.6307 312.548 42.3303 313.01 43.2464C313.478 44.1626 313.709 45.2741 313.702 46.581V57H309.846V47.1776C309.846 46.0838 309.561 45.228 308.993 44.6101C308.432 43.9922 307.655 43.6832 306.66 43.6832C305.985 43.6832 305.385 43.8324 304.86 44.1307C304.341 44.4219 303.933 44.8445 303.635 45.3984C303.343 45.9524 303.198 46.6236 303.198 47.4119ZM322.176 38.495V35.1818H339.583V38.495H332.84V57H328.919V38.495H322.176ZM353.746 41.1797C353.647 40.2493 353.228 39.5249 352.489 39.0064C351.758 38.4879 350.806 38.2287 349.634 38.2287C348.81 38.2287 348.104 38.353 347.514 38.6016C346.925 38.8501 346.474 39.1875 346.161 39.6136C345.849 40.0398 345.689 40.5263 345.682 41.0732C345.682 41.5277 345.785 41.9219 345.991 42.2557C346.204 42.5895 346.491 42.8736 346.854 43.108C347.216 43.3352 347.617 43.527 348.057 43.6832C348.498 43.8395 348.942 43.9709 349.389 44.0774L351.435 44.5888C352.258 44.7805 353.05 45.0398 353.81 45.3665C354.577 45.6932 355.263 46.1051 355.866 46.6023C356.477 47.0994 356.96 47.6996 357.315 48.4027C357.67 49.1058 357.848 49.9297 357.848 50.8743C357.848 52.1527 357.521 53.2784 356.868 54.2514C356.214 55.2173 355.27 55.9737 354.034 56.5206C352.805 57.0604 351.317 57.3303 349.57 57.3303C347.873 57.3303 346.399 57.0675 345.149 56.5419C343.906 56.0163 342.933 55.2493 342.23 54.2408C341.534 53.2322 341.158 52.0036 341.101 50.5547H344.989C345.046 51.3146 345.28 51.9467 345.692 52.451C346.104 52.9553 346.641 53.3317 347.301 53.5803C347.969 53.8288 348.714 53.9531 349.538 53.9531C350.398 53.9531 351.15 53.8253 351.797 53.5696C352.45 53.3068 352.962 52.9446 353.331 52.483C353.7 52.0142 353.888 51.4673 353.895 50.8423C353.888 50.2741 353.721 49.8054 353.395 49.4361C353.068 49.0597 352.61 48.7472 352.02 48.4986C351.438 48.2429 350.756 48.0156 349.975 47.8168L347.493 47.1776C345.696 46.7159 344.275 46.0163 343.231 45.0788C342.194 44.1342 341.676 42.8807 341.676 41.3182C341.676 40.0327 342.024 38.907 342.72 37.9411C343.423 36.9751 344.378 36.2259 345.586 35.6932C346.793 35.1534 348.16 34.8835 349.687 34.8835C351.236 34.8835 352.592 35.1534 353.757 35.6932C354.929 36.2259 355.849 36.968 356.516 37.9197C357.184 38.8643 357.528 39.951 357.55 41.1797H353.746Z" fill="url(#paint0_linear_1261_1397)"/>
<path d="M150.261 71.7273H151.269L153.286 75.1222H153.372L155.389 71.7273H156.397L153.769 76.0028V79H152.889V76.0028L150.261 71.7273ZM158.517 79.1136C158.025 79.1136 157.592 78.9964 157.221 78.7621C156.851 78.5277 156.563 78.1998 156.354 77.7784C156.148 77.357 156.045 76.8646 156.045 76.3011C156.045 75.733 156.148 75.237 156.354 74.8132C156.563 74.3894 156.851 74.0604 157.221 73.826C157.592 73.5916 158.025 73.4744 158.517 73.4744C159.009 73.4744 159.44 73.5916 159.81 73.826C160.181 74.0604 160.47 74.3894 160.676 74.8132C160.884 75.237 160.989 75.733 160.989 76.3011C160.989 76.8646 160.884 77.357 160.676 77.7784C160.47 78.1998 160.181 78.5277 159.81 78.7621C159.44 78.9964 159.009 79.1136 158.517 79.1136ZM158.517 78.3608C158.891 78.3608 159.199 78.2649 159.44 78.0732C159.682 77.8814 159.86 77.6293 159.976 77.3168C160.092 77.0043 160.15 76.6657 160.15 76.3011C160.15 75.9366 160.092 75.5968 159.976 75.282C159.86 74.9671 159.682 74.7126 159.44 74.5185C159.199 74.3243 158.891 74.2273 158.517 74.2273C158.143 74.2273 157.835 74.3243 157.594 74.5185C157.352 74.7126 157.173 74.9671 157.057 75.282C156.941 75.5968 156.883 75.9366 156.883 76.3011C156.883 76.6657 156.941 77.0043 157.057 77.3168C157.173 77.6293 157.352 77.8814 157.594 78.0732C157.835 78.2649 158.143 78.3608 158.517 78.3608ZM165.355 76.7699V73.5455H166.193V79H165.355V78.0767H165.299C165.171 78.3537 164.972 78.5893 164.702 78.7834C164.432 78.9751 164.091 79.071 163.679 79.071C163.338 79.071 163.035 78.9964 162.77 78.8473C162.505 78.6958 162.297 78.4685 162.145 78.1655C161.994 77.8601 161.918 77.4754 161.918 77.0114V73.5455H162.756V76.9545C162.756 77.3523 162.867 77.6695 163.09 77.9062C163.315 78.143 163.601 78.2614 163.949 78.2614C164.157 78.2614 164.369 78.2081 164.585 78.1016C164.803 77.995 164.985 77.8317 165.132 77.6115C165.281 77.3913 165.355 77.1108 165.355 76.7699ZM167.378 79V73.5455H168.188V74.3693H168.245C168.344 74.0994 168.524 73.8804 168.785 73.7124C169.045 73.5443 169.339 73.4602 169.665 73.4602C169.727 73.4602 169.804 73.4614 169.896 73.4638C169.988 73.4661 170.058 73.4697 170.106 73.4744V74.3267C170.077 74.3196 170.012 74.3089 169.91 74.2947C169.811 74.2782 169.706 74.2699 169.594 74.2699C169.329 74.2699 169.092 74.3255 168.884 74.4368C168.678 74.5457 168.515 74.6972 168.394 74.8913C168.276 75.0831 168.216 75.3021 168.216 75.5483V79H167.378ZM173.624 79H172.7L175.371 71.7273H176.28L178.95 79H178.027L175.854 72.8778H175.797L173.624 79ZM173.964 76.1591H177.686V76.9403H173.964V76.1591ZM180.614 71.7273V79H179.733V71.7273H180.614ZM184.79 79H183.867L186.537 71.7273H187.447L190.117 79H189.194L187.02 72.8778H186.964L184.79 79ZM185.131 76.1591H188.853V76.9403H185.131V76.1591ZM192.988 81.1591C192.583 81.1591 192.235 81.107 191.944 81.0028C191.653 80.901 191.41 80.7661 191.216 80.598C191.024 80.4323 190.871 80.2547 190.758 80.0653L191.425 79.5966C191.501 79.696 191.597 79.8097 191.713 79.9375C191.829 80.0677 191.988 80.1802 192.189 80.2749C192.392 80.3719 192.659 80.4205 192.988 80.4205C193.428 80.4205 193.792 80.3139 194.078 80.1009C194.365 79.8878 194.508 79.554 194.508 79.0994V77.9915H194.437C194.375 78.0909 194.288 78.214 194.174 78.3608C194.063 78.5052 193.902 78.6342 193.691 78.7479C193.483 78.8591 193.201 78.9148 192.846 78.9148C192.406 78.9148 192.01 78.8106 191.66 78.6023C191.312 78.3939 191.036 78.0909 190.832 77.6932C190.631 77.2955 190.531 76.8125 190.531 76.2443C190.531 75.6856 190.629 75.1991 190.825 74.7848C191.022 74.3681 191.295 74.0462 191.646 73.8189C191.996 73.5893 192.401 73.4744 192.86 73.4744C193.215 73.4744 193.497 73.5336 193.705 73.652C193.916 73.768 194.077 73.9006 194.188 74.0497C194.302 74.1965 194.389 74.3172 194.451 74.4119H194.536V73.5455H195.346V79.1562C195.346 79.625 195.239 80.0062 195.026 80.2997C194.816 80.5956 194.531 80.8123 194.174 80.9496C193.819 81.0893 193.423 81.1591 192.988 81.1591ZM192.959 78.1619C193.296 78.1619 193.58 78.085 193.812 77.9311C194.044 77.7772 194.22 77.5559 194.341 77.267C194.462 76.9782 194.522 76.6326 194.522 76.2301C194.522 75.8371 194.463 75.4903 194.344 75.1896C194.226 74.889 194.051 74.6534 193.819 74.483C193.587 74.3125 193.3 74.2273 192.959 74.2273C192.604 74.2273 192.308 74.3172 192.072 74.4972C191.837 74.6771 191.661 74.9186 191.543 75.2216C191.427 75.5246 191.369 75.8608 191.369 76.2301C191.369 76.6089 191.428 76.9439 191.546 77.2351C191.667 77.5239 191.844 77.7512 192.079 77.9169C192.316 78.0803 192.609 78.1619 192.959 78.1619ZM198.817 79.1136C198.291 79.1136 197.838 78.9976 197.457 78.7656C197.078 78.5312 196.786 78.2045 196.58 77.7855C196.376 77.3641 196.274 76.8741 196.274 76.3153C196.274 75.7566 196.376 75.2642 196.58 74.8381C196.786 74.4096 197.072 74.0758 197.439 73.8366C197.808 73.5952 198.239 73.4744 198.732 73.4744C199.016 73.4744 199.296 73.5218 199.573 73.6165C199.85 73.7112 200.102 73.8651 200.33 74.0781C200.557 74.2888 200.738 74.5682 200.873 74.9162C201.008 75.2642 201.075 75.6927 201.075 76.2017V76.5568H196.871V75.8324H200.223C200.223 75.5246 200.162 75.25 200.038 75.0085C199.918 74.767 199.745 74.5765 199.52 74.4368C199.297 74.2971 199.035 74.2273 198.732 74.2273C198.398 74.2273 198.109 74.3101 197.865 74.4759C197.624 74.6392 197.438 74.8523 197.308 75.1151C197.177 75.3778 197.112 75.6596 197.112 75.9602V76.4432C197.112 76.8551 197.183 77.2043 197.325 77.4908C197.47 77.7749 197.67 77.9915 197.926 78.1406C198.181 78.2874 198.478 78.3608 198.817 78.3608C199.037 78.3608 199.236 78.33 199.413 78.2685C199.593 78.2045 199.748 78.1098 199.879 77.9844C200.009 77.8565 200.109 77.6979 200.181 77.5085L200.99 77.7358C200.905 78.0104 200.762 78.2519 200.56 78.4602C200.359 78.6662 200.111 78.8272 199.815 78.9432C199.519 79.0568 199.186 79.1136 198.817 79.1136ZM202.838 75.7188V79H202V73.5455H202.81V74.3977H202.881C203.009 74.1207 203.203 73.8982 203.463 73.7301C203.724 73.5597 204.06 73.4744 204.472 73.4744C204.841 73.4744 205.164 73.5502 205.441 73.7017C205.718 73.8509 205.934 74.0781 206.088 74.3835C206.241 74.6866 206.318 75.0701 206.318 75.5341V79H205.48V75.5909C205.48 75.1624 205.369 74.8286 205.147 74.5895C204.924 74.348 204.619 74.2273 204.23 74.2273C203.963 74.2273 203.724 74.2853 203.513 74.4013C203.305 74.5173 203.14 74.6866 203.019 74.9091C202.899 75.1316 202.838 75.4015 202.838 75.7188ZM209.872 73.5455V74.2557H207.045V73.5455H209.872ZM207.869 72.2386H208.707V77.4375C208.707 77.6742 208.742 77.8518 208.81 77.9702C208.881 78.0862 208.971 78.1643 209.08 78.2045C209.191 78.2424 209.309 78.2614 209.432 78.2614C209.524 78.2614 209.6 78.2566 209.659 78.2472C209.718 78.2353 209.765 78.2259 209.801 78.2188L209.971 78.9716C209.915 78.9929 209.835 79.0142 209.734 79.0355C209.632 79.0592 209.503 79.071 209.346 79.071C209.11 79.071 208.878 79.0201 208.65 78.9183C208.426 78.8165 208.238 78.6615 208.089 78.4531C207.943 78.2448 207.869 77.982 207.869 77.6648V72.2386ZM215.617 73.5455V74.2557H212.791V73.5455H215.617ZM213.614 72.2386H214.453V77.4375C214.453 77.6742 214.487 77.8518 214.556 77.9702C214.627 78.0862 214.717 78.1643 214.825 78.2045C214.937 78.2424 215.054 78.2614 215.177 78.2614C215.269 78.2614 215.345 78.2566 215.404 78.2472C215.463 78.2353 215.511 78.2259 215.546 78.2188L215.717 78.9716C215.66 78.9929 215.581 79.0142 215.479 79.0355C215.377 79.0592 215.248 79.071 215.092 79.071C214.855 79.071 214.623 79.0201 214.396 78.9183C214.171 78.8165 213.984 78.6615 213.835 78.4531C213.688 78.2448 213.614 77.982 213.614 77.6648V72.2386ZM218.685 79.1136C218.193 79.1136 217.761 78.9964 217.389 78.7621C217.02 78.5277 216.731 78.1998 216.523 77.7784C216.317 77.357 216.214 76.8646 216.214 76.3011C216.214 75.733 216.317 75.237 216.523 74.8132C216.731 74.3894 217.02 74.0604 217.389 73.826C217.761 73.5916 218.193 73.4744 218.685 73.4744C219.178 73.4744 219.609 73.5916 219.978 73.826C220.35 74.0604 220.638 74.3894 220.844 74.8132C221.053 75.237 221.157 75.733 221.157 76.3011C221.157 76.8646 221.053 77.357 220.844 77.7784C220.638 78.1998 220.35 78.5277 219.978 78.7621C219.609 78.9964 219.178 79.1136 218.685 79.1136ZM218.685 78.3608C219.059 78.3608 219.367 78.2649 219.609 78.0732C219.85 77.8814 220.029 77.6293 220.145 77.3168C220.261 77.0043 220.319 76.6657 220.319 76.3011C220.319 75.9366 220.261 75.5968 220.145 75.282C220.029 74.9671 219.85 74.7126 219.609 74.5185C219.367 74.3243 219.059 74.2273 218.685 74.2273C218.311 74.2273 218.003 74.3243 217.762 74.5185C217.521 74.7126 217.342 74.9671 217.226 75.282C217.11 75.5968 217.052 75.9366 217.052 76.3011C217.052 76.6657 217.11 77.0043 217.226 77.3168C217.342 77.6293 217.521 77.8814 217.762 78.0732C218.003 78.2649 218.311 78.3608 218.685 78.3608ZM228.412 74.767L227.659 74.9801C227.612 74.8546 227.542 74.7327 227.45 74.6143C227.36 74.4936 227.237 74.3942 227.081 74.3161C226.924 74.2379 226.724 74.1989 226.481 74.1989C226.147 74.1989 225.869 74.2758 225.646 74.4297C225.426 74.5812 225.316 74.7741 225.316 75.0085C225.316 75.2169 225.391 75.3814 225.543 75.5021C225.695 75.6229 225.931 75.7235 226.253 75.804L227.063 76.0028C227.551 76.1212 227.914 76.3023 228.153 76.5462C228.392 76.7876 228.512 77.099 228.512 77.4801C228.512 77.7926 228.422 78.072 228.242 78.3182C228.064 78.5644 227.816 78.7585 227.496 78.9006C227.177 79.0426 226.805 79.1136 226.381 79.1136C225.825 79.1136 225.364 78.9929 225 78.7514C224.635 78.5099 224.404 78.1572 224.307 77.6932L225.103 77.4943C225.178 77.7879 225.322 78.008 225.532 78.1548C225.745 78.3016 226.024 78.375 226.367 78.375C226.757 78.375 227.068 78.2921 227.297 78.1264C227.529 77.9583 227.645 77.7571 227.645 77.5227C227.645 77.3333 227.579 77.1747 227.446 77.0469C227.314 76.9167 227.11 76.8196 226.836 76.7557L225.927 76.5426C225.427 76.4242 225.06 76.2408 224.826 75.9922C224.594 75.7412 224.478 75.4276 224.478 75.0511C224.478 74.7434 224.564 74.4711 224.737 74.2344C224.912 73.9976 225.15 73.8118 225.451 73.6768C225.754 73.5419 226.097 73.4744 226.481 73.4744C227.02 73.4744 227.444 73.5928 227.752 73.8295C228.062 74.0663 228.282 74.3788 228.412 74.767ZM232.861 76.7699V73.5455H233.699V79H232.861V78.0767H232.804C232.676 78.3537 232.477 78.5893 232.207 78.7834C231.938 78.9751 231.597 79.071 231.185 79.071C230.844 79.071 230.541 78.9964 230.276 78.8473C230.01 78.6958 229.802 78.4685 229.651 78.1655C229.499 77.8601 229.423 77.4754 229.423 77.0114V73.5455H230.261V76.9545C230.261 77.3523 230.373 77.6695 230.595 77.9062C230.82 78.143 231.107 78.2614 231.455 78.2614C231.663 78.2614 231.875 78.2081 232.09 78.1016C232.308 77.995 232.49 77.8317 232.637 77.6115C232.786 77.3913 232.861 77.1108 232.861 76.7699ZM234.884 81.0455V73.5455H235.694V74.4119H235.793C235.854 74.3172 235.94 74.1965 236.049 74.0497C236.16 73.9006 236.319 73.768 236.524 73.652C236.733 73.5336 237.015 73.4744 237.37 73.4744C237.829 73.4744 238.234 73.5893 238.584 73.8189C238.935 74.0485 239.208 74.3741 239.404 74.7955C239.601 75.2169 239.699 75.714 239.699 76.2869C239.699 76.8646 239.601 77.3653 239.404 77.7891C239.208 78.2105 238.936 78.5372 238.588 78.7692C238.24 78.9988 237.838 79.1136 237.384 79.1136C237.033 79.1136 236.753 79.0556 236.542 78.9396C236.332 78.8213 236.169 78.6875 236.056 78.5384C235.942 78.3868 235.854 78.2614 235.793 78.1619H235.722V81.0455H234.884ZM235.708 76.2727C235.708 76.6847 235.768 77.0481 235.889 77.3629C236.01 77.6754 236.186 77.9205 236.418 78.098C236.65 78.2732 236.934 78.3608 237.27 78.3608C237.621 78.3608 237.913 78.2685 238.147 78.0838C238.384 77.8968 238.562 77.6458 238.68 77.331C238.801 77.0137 238.861 76.661 238.861 76.2727C238.861 75.8892 238.802 75.5436 238.684 75.2358C238.568 74.9257 238.391 74.6806 238.154 74.5007C237.92 74.3184 237.625 74.2273 237.27 74.2273C236.929 74.2273 236.643 74.3137 236.411 74.4865C236.179 74.657 236.004 74.8961 235.885 75.2038C235.767 75.5092 235.708 75.8655 235.708 76.2727ZM242.915 79.1136C242.389 79.1136 241.936 78.9976 241.554 78.7656C241.176 78.5312 240.883 78.2045 240.677 77.7855C240.474 77.3641 240.372 76.8741 240.372 76.3153C240.372 75.7566 240.474 75.2642 240.677 74.8381C240.883 74.4096 241.17 74.0758 241.537 73.8366C241.906 73.5952 242.337 73.4744 242.829 73.4744C243.113 73.4744 243.394 73.5218 243.671 73.6165C243.948 73.7112 244.2 73.8651 244.427 74.0781C244.655 74.2888 244.836 74.5682 244.971 74.9162C245.106 75.2642 245.173 75.6927 245.173 76.2017V76.5568H240.969V75.8324H244.321C244.321 75.5246 244.259 75.25 244.136 75.0085C244.015 74.767 243.843 74.5765 243.618 74.4368C243.395 74.2971 243.132 74.2273 242.829 74.2273C242.495 74.2273 242.207 74.3101 241.963 74.4759C241.721 74.6392 241.536 74.8523 241.405 75.1151C241.275 75.3778 241.21 75.6596 241.21 75.9602V76.4432C241.21 76.8551 241.281 77.2043 241.423 77.4908C241.567 77.7749 241.768 77.9915 242.023 78.1406C242.279 78.2874 242.576 78.3608 242.915 78.3608C243.135 78.3608 243.334 78.33 243.511 78.2685C243.691 78.2045 243.846 78.1098 243.976 77.9844C244.107 77.8565 244.207 77.6979 244.278 77.5085L245.088 77.7358C245.003 78.0104 244.859 78.2519 244.658 78.4602C244.457 78.6662 244.208 78.8272 243.912 78.9432C243.616 79.0568 243.284 79.1136 242.915 79.1136ZM246.098 79V73.5455H246.908V74.3693H246.964C247.064 74.0994 247.244 73.8804 247.504 73.7124C247.765 73.5443 248.058 73.4602 248.385 73.4602C248.446 73.4602 248.523 73.4614 248.616 73.4638C248.708 73.4661 248.778 73.4697 248.825 73.4744V74.3267C248.797 74.3196 248.732 74.3089 248.63 74.2947C248.53 74.2782 248.425 74.2699 248.314 74.2699C248.049 74.2699 247.812 74.3255 247.604 74.4368C247.398 74.5457 247.234 74.6972 247.114 74.8913C246.995 75.0831 246.936 75.3021 246.936 75.5483V79H246.098ZM251.519 79.1136C251.007 79.1136 250.567 78.9929 250.197 78.7514C249.828 78.5099 249.544 78.1773 249.345 77.7536C249.146 77.3298 249.047 76.8456 249.047 76.3011C249.047 75.7472 249.149 75.2583 249.352 74.8345C249.558 74.4084 249.845 74.0758 250.212 73.8366C250.581 73.5952 251.012 73.4744 251.504 73.4744C251.888 73.4744 252.233 73.5455 252.541 73.6875C252.849 73.8295 253.101 74.0284 253.298 74.2841C253.494 74.5398 253.616 74.8381 253.663 75.179H252.825C252.761 74.9304 252.619 74.7102 252.399 74.5185C252.181 74.3243 251.888 74.2273 251.519 74.2273C251.192 74.2273 250.905 74.3125 250.659 74.483C250.415 74.651 250.225 74.889 250.087 75.1967C249.952 75.5021 249.885 75.8608 249.885 76.2727C249.885 76.6941 249.951 77.0611 250.084 77.3736C250.219 77.6861 250.408 77.9287 250.652 78.1016C250.898 78.2744 251.187 78.3608 251.519 78.3608C251.736 78.3608 251.934 78.3229 252.112 78.2472C252.289 78.1714 252.439 78.0625 252.563 77.9205C252.686 77.7784 252.773 77.608 252.825 77.4091H253.663C253.616 77.7311 253.499 78.0211 253.312 78.2791C253.127 78.5348 252.882 78.7384 252.577 78.8899C252.274 79.0391 251.921 79.1136 251.519 79.1136ZM255.377 75.7188V79H254.539V71.7273H255.377V74.3977H255.448C255.575 74.116 255.767 73.8923 256.023 73.7266C256.281 73.5585 256.624 73.4744 257.053 73.4744C257.424 73.4744 257.75 73.549 258.029 73.6982C258.309 73.8449 258.525 74.071 258.679 74.3764C258.835 74.6795 258.914 75.0653 258.914 75.5341V79H258.075V75.5909C258.075 75.1577 257.963 74.8227 257.738 74.5859C257.516 74.3468 257.207 74.2273 256.811 74.2273C256.537 74.2273 256.29 74.2853 256.073 74.4013C255.857 74.5173 255.687 74.6866 255.561 74.9091C255.438 75.1316 255.377 75.4015 255.377 75.7188ZM261.702 79.1278C261.356 79.1278 261.043 79.0627 260.761 78.9325C260.479 78.8 260.255 78.6094 260.09 78.3608C259.924 78.1098 259.841 77.8068 259.841 77.4517C259.841 77.1392 259.903 76.8859 260.026 76.6918C260.149 76.4953 260.313 76.3414 260.519 76.2301C260.725 76.1188 260.953 76.036 261.201 75.9815C261.452 75.9247 261.704 75.8797 261.958 75.8466C262.289 75.804 262.558 75.772 262.764 75.7507C262.972 75.727 263.123 75.688 263.218 75.6335C263.315 75.5791 263.364 75.4844 263.364 75.3494V75.321C263.364 74.9706 263.268 74.6984 263.076 74.5043C262.887 74.3101 262.599 74.2131 262.213 74.2131C261.813 74.2131 261.499 74.3007 261.272 74.4759C261.045 74.651 260.885 74.8381 260.793 75.0369L259.997 74.7528C260.139 74.4214 260.329 74.1634 260.565 73.9787C260.805 73.7917 261.065 73.6615 261.347 73.5881C261.631 73.5123 261.91 73.4744 262.185 73.4744C262.36 73.4744 262.561 73.4957 262.788 73.5384C263.018 73.5786 263.239 73.6626 263.453 73.7905C263.668 73.9183 263.847 74.1113 263.989 74.3693C264.131 74.6274 264.202 74.973 264.202 75.4062V79H263.364V78.2614H263.321C263.264 78.3797 263.17 78.5064 263.037 78.6413C262.904 78.7763 262.728 78.8911 262.508 78.9858C262.288 79.0805 262.019 79.1278 261.702 79.1278ZM261.83 78.375C262.161 78.375 262.44 78.3099 262.668 78.1797C262.897 78.0495 263.07 77.8814 263.186 77.6754C263.305 77.4695 263.364 77.2528 263.364 77.0256V76.2585C263.328 76.3011 263.25 76.3402 263.129 76.3757C263.011 76.4089 262.874 76.4384 262.717 76.4645C262.564 76.4882 262.413 76.5095 262.266 76.5284C262.122 76.545 262.005 76.5592 261.915 76.571C261.697 76.5994 261.494 76.6456 261.304 76.7095C261.117 76.7711 260.966 76.8646 260.85 76.9901C260.736 77.1132 260.679 77.2812 260.679 77.4943C260.679 77.7855 260.787 78.0057 261.002 78.1548C261.22 78.3016 261.496 78.375 261.83 78.375ZM265.382 79V73.5455H266.191V74.3693H266.248C266.347 74.0994 266.527 73.8804 266.788 73.7124C267.048 73.5443 267.342 73.4602 267.668 73.4602C267.73 73.4602 267.807 73.4614 267.899 73.4638C267.992 73.4661 268.061 73.4697 268.109 73.4744V74.3267C268.08 74.3196 268.015 74.3089 267.913 74.2947C267.814 74.2782 267.709 74.2699 267.597 74.2699C267.332 74.2699 267.096 74.3255 266.887 74.4368C266.681 74.5457 266.518 74.6972 266.397 74.8913C266.279 75.0831 266.22 75.3021 266.22 75.5483V79H265.382ZM270.788 81.1591C270.383 81.1591 270.035 81.107 269.744 81.0028C269.453 80.901 269.21 80.7661 269.016 80.598C268.824 80.4323 268.671 80.2547 268.558 80.0653L269.225 79.5966C269.301 79.696 269.397 79.8097 269.513 79.9375C269.629 80.0677 269.788 80.1802 269.989 80.2749C270.192 80.3719 270.459 80.4205 270.788 80.4205C271.228 80.4205 271.592 80.3139 271.878 80.1009C272.165 79.8878 272.308 79.554 272.308 79.0994V77.9915H272.237C272.175 78.0909 272.088 78.214 271.974 78.3608C271.863 78.5052 271.702 78.6342 271.491 78.7479C271.283 78.8591 271.001 78.9148 270.646 78.9148C270.206 78.9148 269.81 78.8106 269.46 78.6023C269.112 78.3939 268.836 78.0909 268.632 77.6932C268.431 77.2955 268.331 76.8125 268.331 76.2443C268.331 75.6856 268.429 75.1991 268.625 74.7848C268.822 74.3681 269.095 74.0462 269.446 73.8189C269.796 73.5893 270.201 73.4744 270.66 73.4744C271.015 73.4744 271.297 73.5336 271.505 73.652C271.716 73.768 271.877 73.9006 271.988 74.0497C272.102 74.1965 272.189 74.3172 272.251 74.4119H272.336V73.5455H273.146V79.1562C273.146 79.625 273.039 80.0062 272.826 80.2997C272.616 80.5956 272.331 80.8123 271.974 80.9496C271.619 81.0893 271.224 81.1591 270.788 81.1591ZM270.759 78.1619C271.096 78.1619 271.38 78.085 271.612 77.9311C271.844 77.7772 272.02 77.5559 272.141 77.267C272.262 76.9782 272.322 76.6326 272.322 76.2301C272.322 75.8371 272.263 75.4903 272.144 75.1896C272.026 74.889 271.851 74.6534 271.619 74.483C271.387 74.3125 271.1 74.2273 270.759 74.2273C270.404 74.2273 270.108 74.3172 269.872 74.4972C269.637 74.6771 269.461 74.9186 269.343 75.2216C269.227 75.5246 269.169 75.8608 269.169 76.2301C269.169 76.6089 269.228 76.9439 269.346 77.2351C269.467 77.5239 269.644 77.7512 269.879 77.9169C270.116 78.0803 270.409 78.1619 270.759 78.1619ZM276.617 79.1136C276.091 79.1136 275.638 78.9976 275.257 78.7656C274.878 78.5312 274.586 78.2045 274.38 77.7855C274.176 77.3641 274.074 76.8741 274.074 76.3153C274.074 75.7566 274.176 75.2642 274.38 74.8381C274.586 74.4096 274.872 74.0758 275.239 73.8366C275.608 73.5952 276.039 73.4744 276.532 73.4744C276.816 73.4744 277.096 73.5218 277.373 73.6165C277.65 73.7112 277.902 73.8651 278.13 74.0781C278.357 74.2888 278.538 74.5682 278.673 74.9162C278.808 75.2642 278.875 75.6927 278.875 76.2017V76.5568H274.671V75.8324H278.023C278.023 75.5246 277.962 75.25 277.838 75.0085C277.718 74.767 277.545 74.5765 277.32 74.4368C277.097 74.2971 276.835 74.2273 276.532 74.2273C276.198 74.2273 275.909 74.3101 275.665 74.4759C275.424 74.6392 275.238 74.8523 275.108 75.1151C274.977 75.3778 274.912 75.6596 274.912 75.9602V76.4432C274.912 76.8551 274.983 77.2043 275.125 77.4908C275.27 77.7749 275.47 77.9915 275.726 78.1406C275.981 78.2874 276.278 78.3608 276.617 78.3608C276.837 78.3608 277.036 78.33 277.213 78.2685C277.393 78.2045 277.548 78.1098 277.679 77.9844C277.809 77.8565 277.909 77.6979 277.981 77.5085L278.79 77.7358C278.705 78.0104 278.562 78.2519 278.36 78.4602C278.159 78.6662 277.911 78.8272 277.615 78.9432C277.319 79.0568 276.986 79.1136 276.617 79.1136ZM283.499 79L281.837 73.5455H282.717L283.896 77.7216H283.953L285.118 73.5455H286.013L287.163 77.7074H287.22L288.399 73.5455H289.28L287.618 79H286.794L285.601 74.8097H285.516L284.322 79H283.499ZM292.068 79.1136C291.576 79.1136 291.144 78.9964 290.772 78.7621C290.403 78.5277 290.114 78.1998 289.905 77.7784C289.7 77.357 289.597 76.8646 289.597 76.3011C289.597 75.733 289.7 75.237 289.905 74.8132C290.114 74.3894 290.403 74.0604 290.772 73.826C291.144 73.5916 291.576 73.4744 292.068 73.4744C292.561 73.4744 292.991 73.5916 293.361 73.826C293.732 74.0604 294.021 74.3894 294.227 74.8132C294.436 75.237 294.54 75.733 294.54 76.3011C294.54 76.8646 294.436 77.357 294.227 77.7784C294.021 78.1998 293.732 78.5277 293.361 78.7621C292.991 78.9964 292.561 79.1136 292.068 79.1136ZM292.068 78.3608C292.442 78.3608 292.75 78.2649 292.991 78.0732C293.233 77.8814 293.412 77.6293 293.528 77.3168C293.644 77.0043 293.702 76.6657 293.702 76.3011C293.702 75.9366 293.644 75.5968 293.528 75.282C293.412 74.9671 293.233 74.7126 292.991 74.5185C292.75 74.3243 292.442 74.2273 292.068 74.2273C291.694 74.2273 291.386 74.3243 291.145 74.5185C290.903 74.7126 290.725 74.9671 290.609 75.282C290.493 75.5968 290.435 75.9366 290.435 76.3011C290.435 76.6657 290.493 77.0043 290.609 77.3168C290.725 77.6293 290.903 77.8814 291.145 78.0732C291.386 78.2649 291.694 78.3608 292.068 78.3608ZM295.469 79V73.5455H296.279V74.3693H296.335C296.435 74.0994 296.615 73.8804 296.875 73.7124C297.136 73.5443 297.429 73.4602 297.756 73.4602C297.817 73.4602 297.894 73.4614 297.987 73.4638C298.079 73.4661 298.149 73.4697 298.196 73.4744V74.3267C298.168 74.3196 298.103 74.3089 298.001 74.2947C297.902 74.2782 297.796 74.2699 297.685 74.2699C297.42 74.2699 297.183 74.3255 296.975 74.4368C296.769 74.5457 296.605 74.6972 296.485 74.8913C296.366 75.0831 296.307 75.3021 296.307 75.5483V79H295.469ZM299.621 77.0114L299.607 75.9744H299.777L302.164 73.5455H303.201L300.658 76.1165H300.587L299.621 77.0114ZM298.84 79V71.7273H299.678V79H298.84ZM302.306 79L300.175 76.3011L300.772 75.7188L303.371 79H302.306ZM306.358 73.5455V74.2557H303.418V73.5455H306.358ZM304.298 79V72.7926C304.298 72.4801 304.372 72.2197 304.519 72.0114C304.665 71.803 304.856 71.6468 305.09 71.5426C305.325 71.4384 305.572 71.3864 305.833 71.3864C306.039 71.3864 306.207 71.4029 306.337 71.4361C306.467 71.4692 306.564 71.5 306.628 71.5284L306.387 72.2528C306.344 72.2386 306.285 72.2209 306.209 72.1996C306.136 72.1783 306.039 72.1676 305.918 72.1676C305.641 72.1676 305.441 72.2375 305.318 72.3771C305.197 72.5168 305.137 72.7216 305.137 72.9915V79H304.298ZM308.021 71.7273V79H307.183V71.7273H308.021ZM311.422 79.1136C310.929 79.1136 310.497 78.9964 310.125 78.7621C309.756 78.5277 309.467 78.1998 309.259 77.7784C309.053 77.357 308.95 76.8646 308.95 76.3011C308.95 75.733 309.053 75.237 309.259 74.8132C309.467 74.3894 309.756 74.0604 310.125 73.826C310.497 73.5916 310.929 73.4744 311.422 73.4744C311.914 73.4744 312.345 73.5916 312.714 73.826C313.086 74.0604 313.375 74.3894 313.581 74.8132C313.789 75.237 313.893 75.733 313.893 76.3011C313.893 76.8646 313.789 77.357 313.581 77.7784C313.375 78.1998 313.086 78.5277 312.714 78.7621C312.345 78.9964 311.914 79.1136 311.422 79.1136ZM311.422 78.3608C311.796 78.3608 312.103 78.2649 312.345 78.0732C312.586 77.8814 312.765 77.6293 312.881 77.3168C312.997 77.0043 313.055 76.6657 313.055 76.3011C313.055 75.9366 312.997 75.5968 312.881 75.282C312.765 74.9671 312.586 74.7126 312.345 74.5185C312.103 74.3243 311.796 74.2273 311.422 74.2273C311.048 74.2273 310.74 74.3243 310.498 74.5185C310.257 74.7126 310.078 74.9671 309.962 75.282C309.846 75.5968 309.788 75.9366 309.788 76.3011C309.788 76.6657 309.846 77.0043 309.962 77.3168C310.078 77.6293 310.257 77.8814 310.498 78.0732C310.74 78.2649 311.048 78.3608 311.422 78.3608ZM315.873 79L314.211 73.5455H315.092L316.27 77.7216H316.327L317.492 73.5455H318.387L319.538 77.7074H319.594L320.773 73.5455H321.654L319.992 79H319.168L317.975 74.8097H317.89L316.697 79H315.873Z" fill="#737373"/>
<g clip-path="url(#clip0_1261_1397)">
<rect x="41" y="102" width="390" height="184.611" rx="9.59016" fill="url(#paint1_linear_1261_1397)"/>
<rect x="38.2028" y="102.4" width="392.398" height="26.3729" fill="#F9F9F9" stroke="#E5E5E5" stroke-width="0.79918"/>
<path d="M68.1724 123.578L72.9674 118.783L68.1724 113.988" stroke="black" stroke-width="1.59836" stroke-linecap="round" stroke-linejoin="round"/>
<path d="M74.5659 125.176H80.9594" stroke="black" stroke-width="1.59836" stroke-linecap="round" stroke-linejoin="round"/>
<path d="M87.1225 116.044H85.0519V114.634H90.8046V116.044H88.7341V122.791H87.1225V116.044ZM94.5814 122.949C93.5289 122.949 92.7276 122.678 92.1776 122.135C91.6313 121.589 91.3582 120.801 91.3582 119.77C91.3582 119.118 91.4711 118.55 91.6969 118.065C91.9227 117.577 92.2596 117.199 92.7076 116.929C93.1592 116.659 93.7237 116.525 94.4011 116.525C94.9584 116.525 95.441 116.654 95.8489 116.913C96.2568 117.171 96.5718 117.532 96.794 117.994C97.0198 118.453 97.1327 118.989 97.1327 119.6V120.251H92.9862C92.9862 121.205 93.5434 121.682 94.6579 121.682C95.39 121.682 96.1293 121.462 96.8759 121.021V122.49C96.133 122.796 95.3681 122.949 94.5814 122.949ZM95.5211 119.049C95.5211 118.626 95.4173 118.308 95.2097 118.093C95.0021 117.874 94.7053 117.765 94.3192 117.765C93.9258 117.765 93.6181 117.876 93.3959 118.098C93.1738 118.32 93.0426 118.637 93.0026 119.049H95.5211ZM98.5767 116.672H100.019L100.177 117.623C100.334 117.277 100.573 117.007 100.893 116.814C101.217 116.621 101.596 116.525 102.029 116.525C102.477 116.525 102.893 116.629 103.275 116.836V118.36C102.922 118.04 102.459 117.88 101.887 117.88C101.425 117.88 101.05 117.985 100.762 118.196C100.474 118.408 100.296 118.712 100.227 119.109C100.208 119.203 100.196 119.318 100.188 119.453C100.181 119.588 100.177 119.761 100.177 119.972V122.791H98.5767V116.672ZM104.058 116.672H105.063L105.222 117.306C105.313 117.062 105.457 116.871 105.653 116.732C105.85 116.594 106.07 116.525 106.314 116.525C106.573 116.525 106.804 116.599 107.008 116.749C107.212 116.894 107.336 117.073 107.38 117.284C107.616 116.778 108.006 116.525 108.549 116.525C109.062 116.525 109.419 116.705 109.62 117.066C109.82 117.43 109.92 118.189 109.92 119.344V122.791H108.609V118.863C108.609 118.419 108.574 118.116 108.505 117.956C108.436 117.799 108.308 117.721 108.123 117.721C107.944 117.721 107.82 117.798 107.751 117.951C107.675 118.118 107.636 118.422 107.636 118.863V122.791H106.342V118.863C106.342 118.433 106.305 118.131 106.232 117.956C106.163 117.799 106.037 117.721 105.855 117.721C105.67 117.721 105.544 117.794 105.478 117.94C105.406 118.085 105.369 118.393 105.369 118.863V122.791H104.058V116.672ZM112.424 115.946C112.315 115.946 112.26 115.891 112.26 115.782V114.241C112.26 114.132 112.315 114.077 112.424 114.077H113.697C113.806 114.077 113.861 114.132 113.861 114.241V115.782C113.861 115.891 113.806 115.946 113.697 115.946H112.424ZM114.396 122.857C113.638 122.857 113.092 122.658 112.757 122.261C112.426 121.86 112.26 121.208 112.26 120.305V117.901H110.965V116.672H113.861V120.305C113.861 120.779 113.935 121.117 114.085 121.321C114.238 121.525 114.491 121.627 114.844 121.627H116.122V122.857H114.396ZM117.25 116.672H118.681L118.839 117.59C118.952 117.248 119.145 116.985 119.418 116.803C119.695 116.618 120.03 116.525 120.424 116.525C120.992 116.525 121.423 116.72 121.718 117.109C122.013 117.499 122.161 118.069 122.161 118.819V122.791H120.571V119.065C120.571 118.635 120.509 118.322 120.385 118.125C120.265 117.925 120.078 117.825 119.823 117.825C119.513 117.825 119.271 117.956 119.096 118.218C118.925 118.481 118.839 118.837 118.839 119.289V122.791H117.25V116.672ZM125.304 122.949C124.67 122.949 124.157 122.769 123.763 122.409C123.374 122.044 123.179 121.522 123.179 120.841C123.179 120.411 123.255 120.061 123.408 119.792C123.565 119.519 123.776 119.307 124.042 119.158C124.312 119.009 124.616 118.907 124.954 118.852C125.293 118.794 125.648 118.765 126.02 118.765H127.129V118.497C127.129 118.278 127.07 118.113 126.954 118C126.841 117.887 126.693 117.81 126.511 117.77C126.333 117.73 126.149 117.71 125.96 117.71C125.573 117.71 125.202 117.763 124.845 117.869C124.492 117.974 124.139 118.124 123.785 118.317V116.951C124.164 116.798 124.539 116.689 124.911 116.623C125.286 116.554 125.665 116.519 126.047 116.519C126.717 116.519 127.247 116.616 127.637 116.809C128.026 116.998 128.303 117.293 128.467 117.694C128.635 118.091 128.718 118.597 128.718 119.213C128.718 119.355 128.715 119.537 128.708 119.759C128.704 119.981 128.702 120.203 128.702 120.425C128.702 120.622 128.7 120.808 128.697 120.983C128.693 121.157 128.691 121.305 128.691 121.425C128.691 121.531 128.697 121.669 128.708 121.84C128.718 122.008 128.744 122.179 128.784 122.354C128.824 122.529 128.886 122.674 128.97 122.791H127.385C127.316 122.674 127.265 122.565 127.232 122.463C127.2 122.361 127.176 122.243 127.161 122.108C126.947 122.396 126.677 122.609 126.353 122.747C126.032 122.882 125.683 122.949 125.304 122.949ZM125.828 121.84C126.164 121.84 126.424 121.749 126.61 121.567C126.799 121.381 126.932 121.15 127.008 120.873C127.089 120.593 127.129 120.311 127.129 120.027V119.917H126.489C126.238 119.917 125.989 119.936 125.741 119.972C125.493 120.005 125.288 120.09 125.124 120.229C124.963 120.363 124.883 120.587 124.883 120.901C124.883 121.199 124.965 121.431 125.129 121.595C125.297 121.758 125.53 121.84 125.828 121.84ZM133.315 122.835C132.557 122.835 132.011 122.636 131.676 122.239C131.344 121.839 131.179 121.187 131.179 120.283V115.52H129.556V114.29H132.779V120.283C132.779 120.757 132.854 121.096 133.003 121.3C133.156 121.503 133.409 121.605 133.763 121.605H135.041V122.835H133.315Z" fill="#2B2B2B"/>
<path d="M66.3205 155.881H67.2274L67.3257 156.799C67.6936 156.089 68.2927 155.734 69.1231 155.734C70.3723 155.734 70.9969 156.559 70.9969 158.209V162H69.9863V158.209C69.9863 157.659 69.8897 157.254 69.6967 156.996C69.5073 156.737 69.2123 156.608 68.8117 156.608C68.3346 156.608 67.9667 156.777 67.7081 157.116C67.4532 157.451 67.3257 157.926 67.3257 158.542V162H66.3205V155.881ZM72.6431 155.881H73.5554L73.6538 156.663C74.0034 156.043 74.5516 155.734 75.2982 155.734C76.0303 155.734 76.6057 156.02 77.0245 156.591C77.447 157.163 77.6583 157.945 77.6583 158.935C77.6583 159.933 77.4452 160.72 77.0191 161.295C76.5966 161.871 76.023 162.158 75.2982 162.158C74.5334 162.158 73.9852 161.849 73.6538 161.23V164.327H72.6431V155.881ZM75.1671 161.306C76.1249 161.306 76.6039 160.519 76.6039 158.946C76.6039 157.373 76.1249 156.586 75.1671 156.586C74.6754 156.586 74.3003 156.79 74.0417 157.198C73.7831 157.606 73.6538 158.187 73.6538 158.941C73.6538 159.698 73.7831 160.283 74.0417 160.694C74.3039 161.102 74.679 161.306 75.1671 161.306ZM80.774 158.81L78.5833 155.881H79.6978L81.3203 158.094L82.932 155.881H84.0628L81.8721 158.81L84.2759 162H83.1122L81.3203 159.547L79.5339 162H78.3702L80.774 158.81Z" fill="#171717"/>
<path d="M94.5064 162.158C93.8617 162.158 93.3191 162.024 92.8784 161.754C92.4413 161.481 92.1099 161.102 91.8841 160.618C91.6619 160.133 91.5508 159.576 91.5508 158.946C91.5508 158.312 91.6637 157.755 91.8895 157.274C92.1154 156.79 92.4486 156.413 92.8893 156.144C93.33 155.87 93.8763 155.734 94.5282 155.734C94.867 155.734 95.1729 155.774 95.4461 155.854C95.7192 155.93 95.9978 156.047 96.2819 156.204V157.258C96.0233 157.029 95.7629 156.859 95.5007 156.75C95.2421 156.641 94.9471 156.586 94.6157 156.586C94.124 156.586 93.7306 156.692 93.4356 156.903C93.1443 157.114 92.933 157.398 92.8019 157.755C92.6744 158.112 92.6107 158.509 92.6107 158.946C92.6107 159.38 92.6762 159.776 92.8074 160.137C92.9385 160.494 93.1497 160.778 93.4411 160.989C93.7325 161.201 94.1222 161.306 94.6102 161.306C94.9307 161.306 95.2294 161.253 95.5062 161.148C95.783 161.042 96.0415 160.875 96.2819 160.645V161.689C95.7611 162.002 95.1693 162.158 94.5064 162.158ZM98.6547 155.881H99.567L99.6654 157.078C99.8365 156.644 100.093 156.313 100.436 156.083C100.782 155.85 101.195 155.734 101.676 155.734C102.178 155.734 102.615 155.861 102.987 156.116V157.143C102.594 156.823 102.127 156.663 101.588 156.663C100.969 156.663 100.494 156.861 100.163 157.258C99.8311 157.651 99.6654 158.218 99.6654 158.957V162H98.6547V155.881ZM107.059 162.158C106.115 162.158 105.374 161.876 104.835 161.312C104.3 160.743 104.032 159.97 104.032 158.99C104.032 158.382 104.138 157.832 104.349 157.34C104.564 156.848 104.881 156.459 105.3 156.171C105.722 155.879 106.243 155.734 106.862 155.734C107.678 155.734 108.31 155.996 108.758 156.52C109.209 157.041 109.435 157.764 109.435 158.689V159.181H105.081V159.214C105.081 159.851 105.249 160.359 105.584 160.738C105.919 161.117 106.414 161.306 107.07 161.306C107.448 161.306 107.814 161.246 108.168 161.126C108.525 161.006 108.869 160.86 109.2 160.689V161.689C108.854 161.831 108.503 161.944 108.146 162.027C107.793 162.115 107.43 162.158 107.059 162.158ZM108.43 158.394C108.43 158.056 108.379 157.75 108.277 157.477C108.175 157.203 108.011 156.987 107.785 156.826C107.563 156.666 107.268 156.586 106.9 156.586C106.529 156.586 106.217 156.668 105.966 156.832C105.718 156.992 105.524 157.209 105.382 157.482C105.243 157.755 105.156 158.059 105.119 158.394H108.43ZM112.485 162.158C111.895 162.158 111.407 161.989 111.021 161.65C110.639 161.308 110.448 160.818 110.448 160.181C110.448 159.653 110.575 159.241 110.83 158.946C111.085 158.647 111.418 158.438 111.83 158.318C112.241 158.198 112.68 158.138 113.146 158.138H114.496V157.979C114.496 157.458 114.363 157.096 114.097 156.892C113.835 156.688 113.465 156.586 112.988 156.586C112.617 156.586 112.252 156.637 111.895 156.739C111.538 156.841 111.205 156.983 110.896 157.165V156.16C111.231 156.036 111.569 155.934 111.912 155.854C112.254 155.774 112.604 155.734 112.961 155.734C113.325 155.734 113.678 155.785 114.021 155.887C114.367 155.985 114.665 156.149 114.916 156.378C115.168 156.604 115.335 156.908 115.419 157.291C115.477 157.56 115.507 157.966 115.507 158.509V159.76C115.507 160.102 115.525 160.481 115.561 160.896C115.601 161.312 115.69 161.679 115.829 162H114.818C114.756 161.858 114.707 161.707 114.671 161.547C114.634 161.383 114.605 161.224 114.583 161.071C114.368 161.439 114.07 161.712 113.687 161.891C113.309 162.069 112.908 162.158 112.485 162.158ZM112.731 161.317C113.146 161.317 113.483 161.215 113.742 161.011C114.004 160.807 114.195 160.541 114.316 160.214C114.436 159.882 114.496 159.527 114.496 159.148V158.924H113.223C112.939 158.924 112.66 158.957 112.387 159.023C112.118 159.085 111.894 159.205 111.715 159.383C111.54 159.562 111.453 159.822 111.453 160.164C111.453 160.55 111.571 160.84 111.808 161.033C112.045 161.222 112.352 161.317 112.731 161.317ZM120.463 162.022C119.713 162.022 119.181 161.871 118.868 161.568C118.559 161.262 118.404 160.742 118.404 160.006V156.663H116.77V155.881H118.404V154.281L119.409 153.844V155.881H121.693V156.663H119.409V160.006C119.409 160.454 119.495 160.769 119.666 160.951C119.837 161.13 120.136 161.219 120.562 161.219H121.693V162.022H120.463ZM126.109 162.158C125.165 162.158 124.424 161.876 123.885 161.312C123.35 160.743 123.082 159.97 123.082 158.99C123.082 158.382 123.188 157.832 123.399 157.34C123.614 156.848 123.931 156.459 124.349 156.171C124.772 155.879 125.293 155.734 125.912 155.734C126.728 155.734 127.36 155.996 127.808 156.52C128.259 157.041 128.485 157.764 128.485 158.689V159.181H124.131V159.214C124.131 159.851 124.298 160.359 124.633 160.738C124.969 161.117 125.464 161.306 126.119 161.306C126.498 161.306 126.864 161.246 127.218 161.126C127.574 161.006 127.919 160.86 128.25 160.689V161.689C127.904 161.831 127.553 161.944 127.196 162.027C126.842 162.115 126.48 162.158 126.109 162.158ZM127.48 158.394C127.48 158.056 127.429 157.75 127.327 157.477C127.225 157.203 127.061 156.987 126.835 156.826C126.613 156.666 126.318 156.586 125.95 156.586C125.579 156.586 125.267 156.668 125.016 156.832C124.768 156.992 124.573 157.209 124.431 157.482C124.293 157.755 124.206 158.059 124.169 158.394H127.48ZM129.88 158.269H134.365V159.165H129.88V158.269ZM136.17 155.881H137.077L137.175 156.799C137.543 156.089 138.142 155.734 138.972 155.734C140.221 155.734 140.846 156.559 140.846 158.209V162H139.835V158.209C139.835 157.659 139.739 157.254 139.546 156.996C139.356 156.737 139.061 156.608 138.661 156.608C138.184 156.608 137.816 156.777 137.557 157.116C137.302 157.451 137.175 157.926 137.175 158.542V162H136.17V155.881ZM145.158 162.158C144.215 162.158 143.474 161.876 142.935 161.312C142.399 160.743 142.132 159.97 142.132 158.99C142.132 158.382 142.237 157.832 142.449 157.34C142.663 156.848 142.98 156.459 143.399 156.171C143.822 155.879 144.342 155.734 144.962 155.734C145.777 155.734 146.409 155.996 146.857 156.52C147.309 157.041 147.535 157.764 147.535 158.689V159.181H143.181V159.214C143.181 159.851 143.348 160.359 143.683 160.738C144.018 161.117 144.514 161.306 145.169 161.306C145.548 161.306 145.914 161.246 146.267 161.126C146.624 161.006 146.968 160.86 147.3 160.689V161.689C146.954 161.831 146.602 161.944 146.245 162.027C145.892 162.115 145.53 162.158 145.158 162.158ZM146.53 158.394C146.53 158.056 146.479 157.75 146.377 157.477C146.275 157.203 146.111 156.987 145.885 156.826C145.663 156.666 145.368 156.586 145 156.586C144.628 156.586 144.317 156.668 144.066 156.832C143.818 156.992 143.623 157.209 143.481 157.482C143.343 157.755 143.255 158.059 143.219 158.394H146.53ZM150.623 158.81L148.432 155.881H149.547L151.169 158.094L152.781 155.881H153.912L151.721 158.81L154.125 162H152.961L151.169 159.547L149.383 162H148.219L150.623 158.81ZM158.563 162.022C157.813 162.022 157.281 161.871 156.968 161.568C156.658 161.262 156.503 160.742 156.503 160.006V156.663H154.87V155.881H156.503V154.281L157.508 153.844V155.881H159.792V156.663H157.508V160.006C157.508 160.454 157.594 160.769 157.765 160.951C157.936 161.13 158.235 161.219 158.661 161.219H159.792V162.022H158.563ZM161.629 158.269H166.115V159.165H161.629V158.269ZM169.635 162.158C169.045 162.158 168.557 161.989 168.171 161.65C167.788 161.308 167.597 160.818 167.597 160.181C167.597 159.653 167.724 159.241 167.979 158.946C168.234 158.647 168.568 158.438 168.979 158.318C169.391 158.198 169.83 158.138 170.296 158.138H171.645V157.979C171.645 157.458 171.512 157.096 171.246 156.892C170.984 156.688 170.614 156.586 170.137 156.586C169.766 156.586 169.402 156.637 169.045 156.739C168.688 156.841 168.355 156.983 168.045 157.165V156.16C168.38 156.036 168.719 155.934 169.061 155.854C169.403 155.774 169.753 155.734 170.11 155.734C170.474 155.734 170.828 155.785 171.17 155.887C171.516 155.985 171.815 156.149 172.066 156.378C172.317 156.604 172.485 156.908 172.568 157.291C172.627 157.56 172.656 157.966 172.656 158.509V159.76C172.656 160.102 172.674 160.481 172.71 160.896C172.751 161.312 172.84 161.679 172.978 162H171.967C171.906 161.858 171.856 161.707 171.82 161.547C171.784 161.383 171.754 161.224 171.733 161.071C171.518 161.439 171.219 161.712 170.837 161.891C170.458 162.069 170.057 162.158 169.635 162.158ZM169.881 161.317C170.296 161.317 170.633 161.215 170.891 161.011C171.153 160.807 171.345 160.541 171.465 160.214C171.585 159.882 171.645 159.527 171.645 159.148V158.924H170.372C170.088 158.924 169.81 158.957 169.536 159.023C169.267 159.085 169.043 159.205 168.864 159.383C168.69 159.562 168.602 159.822 168.602 160.164C168.602 160.55 168.721 160.84 168.957 161.033C169.194 161.222 169.502 161.317 169.881 161.317ZM174.242 155.881H175.154L175.253 156.663C175.602 156.043 176.15 155.734 176.897 155.734C177.629 155.734 178.204 156.02 178.623 156.591C179.046 157.163 179.257 157.945 179.257 158.935C179.257 159.933 179.044 160.72 178.618 161.295C178.195 161.871 177.622 162.158 176.897 162.158C176.132 162.158 175.584 161.849 175.253 161.23V164.327H174.242V155.881ZM176.766 161.306C177.724 161.306 178.203 160.519 178.203 158.946C178.203 157.373 177.724 156.586 176.766 156.586C176.274 156.586 175.899 156.79 175.64 157.198C175.382 157.606 175.253 158.187 175.253 158.941C175.253 159.698 175.382 160.283 175.64 160.694C175.903 161.102 176.278 161.306 176.766 161.306ZM180.592 155.881H181.504L181.602 156.663C181.952 156.043 182.5 155.734 183.247 155.734C183.979 155.734 184.554 156.02 184.973 156.591C185.396 157.163 185.607 157.945 185.607 158.935C185.607 159.933 185.394 160.72 184.968 161.295C184.545 161.871 183.972 162.158 183.247 162.158C182.482 162.158 181.934 161.849 181.602 161.23V164.327H180.592V155.881ZM183.116 161.306C184.074 161.306 184.553 160.519 184.553 158.946C184.553 157.373 184.074 156.586 183.116 156.586C182.624 156.586 182.249 156.79 181.99 157.198C181.732 157.606 181.602 158.187 181.602 158.941C181.602 159.698 181.732 160.283 181.99 160.694C182.253 161.102 182.628 161.306 183.116 161.306ZM190.252 163.743C189.655 163.743 189.092 163.639 188.564 163.431C188.04 163.224 187.583 162.905 187.193 162.475C186.825 162.067 186.543 161.574 186.346 160.995C186.15 160.416 186.051 159.755 186.051 159.012C186.051 158.327 186.135 157.699 186.303 157.127C186.474 156.555 186.731 156.06 187.073 155.641C187.423 155.211 187.83 154.894 188.297 154.69C188.763 154.483 189.256 154.379 189.777 154.379C190.589 154.379 191.219 154.621 191.667 155.106C192.115 155.586 192.339 156.236 192.339 157.056V161.262H191.553V160.656C191.414 160.886 191.228 161.062 190.995 161.186C190.762 161.31 190.495 161.372 190.192 161.372C189.602 161.372 189.114 161.153 188.728 160.716C188.553 160.519 188.413 160.277 188.308 159.99C188.206 159.702 188.155 159.378 188.155 159.017C188.155 158.686 188.202 158.378 188.297 158.094C188.391 157.81 188.535 157.557 188.728 157.334C188.929 157.105 189.152 156.937 189.4 156.832C189.651 156.726 189.91 156.673 190.176 156.673C190.471 156.673 190.742 156.737 190.99 156.865C191.234 156.988 191.422 157.163 191.553 157.389V157.045C191.553 156.466 191.394 156.007 191.077 155.668C190.764 155.326 190.318 155.155 189.739 155.155C189.331 155.155 188.949 155.242 188.592 155.417C188.238 155.588 187.929 155.848 187.663 156.198C187.131 156.894 186.865 157.828 186.865 159.001C186.865 160.235 187.164 161.202 187.761 161.902C188.045 162.24 188.389 162.501 188.794 162.683C189.202 162.869 189.655 162.962 190.154 162.962C190.562 162.962 190.964 162.887 191.361 162.738L191.624 163.475C191.5 163.526 191.383 163.566 191.274 163.595C191.165 163.628 191.055 163.655 190.946 163.677C190.833 163.699 190.724 163.715 190.618 163.726C190.513 163.737 190.391 163.743 190.252 163.743ZM190.291 160.58C190.68 160.58 190.992 160.438 191.225 160.153C191.458 159.866 191.574 159.489 191.574 159.023C191.574 158.542 191.458 158.163 191.225 157.886C190.992 157.609 190.679 157.471 190.285 157.471C189.903 157.471 189.593 157.611 189.356 157.892C189.12 158.172 189.001 158.547 189.001 159.017C189.001 159.498 189.12 159.878 189.356 160.159C189.593 160.439 189.905 160.58 190.291 160.58ZM196.739 162.044C196.138 162.044 195.672 161.851 195.34 161.465C195.013 161.075 194.849 160.529 194.849 159.826V154.286H193.237V153.499H195.854V159.826C195.854 160.27 195.938 160.609 196.105 160.842C196.273 161.075 196.517 161.191 196.837 161.191H198.012V162.044H196.739ZM201.384 162.158C200.794 162.158 200.306 161.989 199.92 161.65C199.538 161.308 199.347 160.818 199.347 160.181C199.347 159.653 199.474 159.241 199.729 158.946C199.984 158.647 200.317 158.438 200.729 158.318C201.14 158.198 201.579 158.138 202.045 158.138H203.395V157.979C203.395 157.458 203.262 157.096 202.996 156.892C202.734 156.688 202.364 156.586 201.887 156.586C201.515 156.586 201.151 156.637 200.794 156.739C200.437 156.841 200.104 156.983 199.795 157.165V156.16C200.13 156.036 200.468 155.934 200.811 155.854C201.153 155.774 201.503 155.734 201.86 155.734C202.224 155.734 202.577 155.785 202.919 155.887C203.265 155.985 203.564 156.149 203.815 156.378C204.067 156.604 204.234 156.908 204.318 157.291C204.376 157.56 204.405 157.966 204.405 158.509V159.76C204.405 160.102 204.424 160.481 204.46 160.896C204.5 161.312 204.589 161.679 204.728 162H203.717C203.655 161.858 203.606 161.707 203.57 161.547C203.533 161.383 203.504 161.224 203.482 161.071C203.267 161.439 202.969 161.712 202.586 161.891C202.207 162.069 201.807 162.158 201.384 162.158ZM201.63 161.317C202.045 161.317 202.382 161.215 202.641 161.011C202.903 160.807 203.094 160.541 203.215 160.214C203.335 159.882 203.395 159.527 203.395 159.148V158.924H202.122C201.838 158.924 201.559 158.957 201.286 159.023C201.016 159.085 200.793 159.205 200.614 159.383C200.439 159.562 200.352 159.822 200.352 160.164C200.352 160.55 200.47 160.84 200.707 161.033C200.944 161.222 201.251 161.317 201.63 161.317ZM209.362 162.022C208.612 162.022 208.08 161.871 207.767 161.568C207.457 161.262 207.303 160.742 207.303 160.006V156.663H205.669V155.881H207.303V154.281L208.308 153.844V155.881H210.591V156.663H208.308V160.006C208.308 160.454 208.393 160.769 208.565 160.951C208.736 161.13 209.034 161.219 209.461 161.219H210.591V162.022H209.362ZM215.007 162.158C214.064 162.158 213.323 161.876 212.784 161.312C212.249 160.743 211.981 159.97 211.981 158.99C211.981 158.382 212.086 157.832 212.298 157.34C212.513 156.848 212.829 156.459 213.248 156.171C213.671 155.879 214.192 155.734 214.811 155.734C215.627 155.734 216.259 155.996 216.706 156.52C217.158 157.041 217.384 157.764 217.384 158.689V159.181H213.03V159.214C213.03 159.851 213.197 160.359 213.532 160.738C213.867 161.117 214.363 161.306 215.018 161.306C215.397 161.306 215.763 161.246 216.116 161.126C216.473 161.006 216.818 160.86 217.149 160.689V161.689C216.803 161.831 216.452 161.944 216.095 162.027C215.741 162.115 215.379 162.158 215.007 162.158ZM216.379 158.394C216.379 158.056 216.328 157.75 216.226 157.477C216.124 157.203 215.96 156.987 215.734 156.826C215.512 156.666 215.217 156.586 214.849 156.586C214.478 156.586 214.166 156.668 213.915 156.832C213.667 156.992 213.472 157.209 213.33 157.482C213.192 157.755 213.104 158.059 213.068 158.394H216.379ZM220.871 162.158C220.288 162.158 219.604 162.031 218.817 161.776V160.738C219.582 161.124 220.263 161.317 220.86 161.317C221.286 161.317 221.627 161.228 221.882 161.049C222.137 160.871 222.264 160.632 222.264 160.334C222.264 160.075 222.157 159.868 221.942 159.711C221.731 159.551 221.392 159.421 220.926 159.323L220.505 159.236C219.93 159.119 219.507 158.928 219.238 158.662C218.972 158.393 218.839 158.026 218.839 157.564C218.839 156.978 219.039 156.526 219.44 156.209C219.84 155.892 220.41 155.734 221.15 155.734C221.776 155.734 222.383 155.854 222.969 156.094V157.078C222.397 156.743 221.8 156.575 221.177 156.575C220.296 156.575 219.855 156.876 219.855 157.477C219.855 157.673 219.893 157.83 219.97 157.946C220.046 158.059 220.192 158.156 220.407 158.236C220.622 158.312 220.939 158.393 221.357 158.476L221.762 158.553C222.774 158.753 223.28 159.305 223.28 160.208C223.28 160.813 223.066 161.29 222.636 161.639C222.206 161.985 221.618 162.158 220.871 162.158ZM228.412 162.022C227.662 162.022 227.13 161.871 226.817 161.568C226.507 161.262 226.352 160.742 226.352 160.006V156.663H224.719V155.881H226.352V154.281L227.358 153.844V155.881H229.641V156.663H227.358V160.006C227.358 160.454 227.443 160.769 227.614 160.951C227.786 161.13 228.084 161.219 228.51 161.219H229.641V162.022H228.412Z" fill="#397C3B"/>
<g opacity="0.8">
<path d="M66.3102 191.486H66.9057C67.2007 191.486 67.4283 191.402 67.5885 191.235C67.767 191.049 67.9837 190.605 68.2387 189.902L65.8731 183.881H66.9384L68.7522 188.667L70.5386 183.881H71.604L69.9923 188.033C69.8649 188.361 69.7538 188.647 69.6591 188.891C69.6299 188.964 69.6063 189.022 69.5881 189.066C69.5735 189.106 69.5535 189.159 69.528 189.224C69.5061 189.29 69.4697 189.395 69.4187 189.541L69.3531 189.716C69.2111 190.113 69.0763 190.461 68.9489 190.759C68.825 191.062 68.7194 191.289 68.632 191.442C68.3042 192.032 67.7998 192.327 67.1187 192.327H66.3102V191.486ZM74.4356 190.158C73.8456 190.158 73.3576 189.989 72.9715 189.65C72.5891 189.308 72.3979 188.818 72.3979 188.181C72.3979 187.653 72.5253 187.241 72.7803 186.946C73.0352 186.647 73.3685 186.438 73.78 186.318C74.1916 186.198 74.6305 186.138 75.0967 186.138H76.4461V185.979C76.4461 185.458 76.3131 185.096 76.0472 184.892C75.785 184.688 75.4153 184.586 74.9382 184.586C74.5667 184.586 74.2025 184.637 73.8456 184.739C73.4887 184.841 73.1554 184.983 72.8458 185.165V184.16C73.1809 184.036 73.5196 183.934 73.862 183.854C74.2043 183.774 74.554 183.734 74.9109 183.734C75.2751 183.734 75.6284 183.785 75.9708 183.887C76.3168 183.985 76.6154 184.149 76.8667 184.378C77.118 184.604 77.2856 184.908 77.3693 185.291C77.4276 185.56 77.4567 185.966 77.4567 186.509V187.76C77.4567 188.102 77.475 188.481 77.5114 188.896C77.5514 189.312 77.6407 189.679 77.7791 190H76.7684C76.7065 189.858 76.6573 189.707 76.6209 189.547C76.5845 189.383 76.5553 189.224 76.5335 189.071C76.3186 189.439 76.0199 189.712 75.6375 189.891C75.2587 190.069 74.8581 190.158 74.4356 190.158ZM74.6815 189.317C75.0967 189.317 75.4336 189.215 75.6921 189.011C75.9544 188.807 76.1456 188.541 76.2658 188.214C76.386 187.882 76.4461 187.527 76.4461 187.148V186.924H75.1731C74.8891 186.924 74.6104 186.957 74.3373 187.023C74.0678 187.085 73.8438 187.205 73.6653 187.383C73.4905 187.562 73.4031 187.822 73.4031 188.164C73.4031 188.55 73.5215 188.84 73.7582 189.033C73.9949 189.222 74.3027 189.317 74.6815 189.317ZM79.6547 183.881H80.567L80.6654 185.078C80.8365 184.644 81.0933 184.313 81.4357 184.083C81.7817 183.85 82.195 183.734 82.6758 183.734C83.1784 183.734 83.6155 183.861 83.9869 184.116V185.143C83.5936 184.823 83.1274 184.663 82.5884 184.663C81.9692 184.663 81.4939 184.861 81.1625 185.258C80.8311 185.651 80.6654 186.218 80.6654 186.957V190H79.6547V183.881ZM85.42 183.881H86.3269L86.4253 184.799C86.7931 184.089 87.3922 183.734 88.2226 183.734C89.4719 183.734 90.0965 184.559 90.0965 186.209V190H89.0858V186.209C89.0858 185.659 88.9893 185.254 88.7963 184.996C88.6069 184.737 88.3119 184.608 87.9112 184.608C87.4341 184.608 87.0663 184.777 86.8077 185.116C86.5527 185.451 86.4253 185.926 86.4253 186.542V190H85.42V183.881Z" fill="#171717"/>
<path d="M100.906 190.158C100.261 190.158 99.7188 190.024 99.2781 189.754C98.841 189.481 98.5096 189.102 98.2838 188.618C98.0616 188.133 97.9505 187.576 97.9505 186.946C97.9505 186.312 98.0634 185.755 98.2892 185.274C98.5151 184.79 98.8483 184.413 99.289 184.144C99.7297 183.87 100.276 183.734 100.928 183.734C101.267 183.734 101.573 183.774 101.846 183.854C102.119 183.93 102.398 184.047 102.682 184.204V185.258C102.423 185.029 102.163 184.859 101.9 184.75C101.642 184.641 101.347 184.586 101.015 184.586C100.524 184.586 100.13 184.692 99.8353 184.903C99.544 185.114 99.3327 185.398 99.2016 185.755C99.0741 186.112 99.0104 186.509 99.0104 186.946C99.0104 187.38 99.0759 187.776 99.2071 188.137C99.3382 188.494 99.5494 188.778 99.8408 188.989C100.132 189.201 100.522 189.306 101.01 189.306C101.33 189.306 101.629 189.253 101.906 189.148C102.183 189.042 102.441 188.875 102.682 188.645V189.689C102.161 190.002 101.569 190.158 100.906 190.158ZM105.054 183.881H105.967L106.065 185.078C106.236 184.644 106.493 184.313 106.835 184.083C107.181 183.85 107.595 183.734 108.075 183.734C108.578 183.734 109.015 183.861 109.387 184.116V185.143C108.993 184.823 108.527 184.663 107.988 184.663C107.369 184.663 106.894 184.861 106.562 185.258C106.231 185.651 106.065 186.218 106.065 186.957V190H105.054V183.881ZM113.458 190.158C112.515 190.158 111.774 189.876 111.235 189.312C110.7 188.743 110.432 187.97 110.432 186.99C110.432 186.382 110.537 185.832 110.749 185.34C110.964 184.848 111.28 184.459 111.699 184.171C112.122 183.879 112.643 183.734 113.262 183.734C114.078 183.734 114.709 183.996 115.157 184.52C115.609 185.041 115.835 185.764 115.835 186.689V187.181H111.481V187.214C111.481 187.851 111.648 188.359 111.983 188.738C112.318 189.117 112.814 189.306 113.469 189.306C113.848 189.306 114.214 189.246 114.567 189.126C114.924 189.006 115.269 188.86 115.6 188.689V189.689C115.254 189.831 114.903 189.944 114.546 190.027C114.192 190.115 113.83 190.158 113.458 190.158ZM114.83 186.394C114.83 186.056 114.779 185.75 114.677 185.477C114.575 185.203 114.411 184.987 114.185 184.826C113.963 184.666 113.668 184.586 113.3 184.586C112.929 184.586 112.617 184.668 112.366 184.832C112.118 184.992 111.923 185.209 111.781 185.482C111.643 185.755 111.555 186.059 111.519 186.394H114.83ZM118.885 190.158C118.295 190.158 117.807 189.989 117.421 189.65C117.039 189.308 116.847 188.818 116.847 188.181C116.847 187.653 116.975 187.241 117.23 186.946C117.485 186.647 117.818 186.438 118.23 186.318C118.641 186.198 119.08 186.138 119.546 186.138H120.896V185.979C120.896 185.458 120.763 185.096 120.497 184.892C120.234 184.688 119.865 184.586 119.388 184.586C119.016 184.586 118.652 184.637 118.295 184.739C117.938 184.841 117.605 184.983 117.295 185.165V184.16C117.63 184.036 117.969 183.934 118.311 183.854C118.654 183.774 119.003 183.734 119.36 183.734C119.725 183.734 120.078 183.785 120.42 183.887C120.766 183.985 121.065 184.149 121.316 184.378C121.567 184.604 121.735 184.908 121.819 185.291C121.877 185.56 121.906 185.966 121.906 186.509V187.76C121.906 188.102 121.924 188.481 121.961 188.896C122.001 189.312 122.09 189.679 122.229 190H121.218C121.156 189.858 121.107 189.707 121.07 189.547C121.034 189.383 121.005 189.224 120.983 189.071C120.768 189.439 120.469 189.712 120.087 189.891C119.708 190.069 119.308 190.158 118.885 190.158ZM119.131 189.317C119.546 189.317 119.883 189.215 120.142 189.011C120.404 188.807 120.595 188.541 120.715 188.214C120.835 187.882 120.896 187.527 120.896 187.148V186.924H119.623C119.339 186.924 119.06 186.957 118.787 187.023C118.517 187.085 118.293 187.205 118.115 187.383C117.94 187.562 117.853 187.822 117.853 188.164C117.853 188.55 117.971 188.84 118.208 189.033C118.444 189.222 118.752 189.317 119.131 189.317ZM126.863 190.022C126.113 190.022 125.581 189.871 125.268 189.568C124.958 189.262 124.803 188.742 124.803 188.006V184.663H123.17V183.881H124.803V182.281L125.809 181.844V183.881H128.092V184.663H125.809V188.006C125.809 188.454 125.894 188.769 126.065 188.951C126.237 189.13 126.535 189.219 126.961 189.219H128.092V190.022H126.863ZM132.508 190.158C131.565 190.158 130.824 189.876 130.285 189.312C129.749 188.743 129.482 187.97 129.482 186.99C129.482 186.382 129.587 185.832 129.798 185.34C130.013 184.848 130.33 184.459 130.749 184.171C131.172 183.879 131.692 183.734 132.312 183.734C133.127 183.734 133.759 183.996 134.207 184.52C134.659 185.041 134.885 185.764 134.885 186.689V187.181H130.531V187.214C130.531 187.851 130.698 188.359 131.033 188.738C131.368 189.117 131.864 189.306 132.519 189.306C132.898 189.306 133.264 189.246 133.617 189.126C133.974 189.006 134.318 188.86 134.65 188.689V189.689C134.304 189.831 133.952 189.944 133.595 190.027C133.242 190.115 132.88 190.158 132.508 190.158ZM133.879 186.394C133.879 186.056 133.828 185.75 133.726 185.477C133.625 185.203 133.461 184.987 133.235 184.826C133.013 184.666 132.718 184.586 132.35 184.586C131.978 184.586 131.667 184.668 131.416 184.832C131.168 184.992 130.973 185.209 130.831 185.482C130.693 185.755 130.605 186.059 130.569 186.394H133.879ZM136.28 186.269H140.765V187.165H136.28V186.269ZM142.569 183.881H143.476L143.575 184.799C143.942 184.089 144.542 183.734 145.372 183.734C146.621 183.734 147.246 184.559 147.246 186.209V190H146.235V186.209C146.235 185.659 146.139 185.254 145.946 184.996C145.756 184.737 145.461 184.608 145.061 184.608C144.583 184.608 144.216 184.777 143.957 185.116C143.702 185.451 143.575 185.926 143.575 186.542V190H142.569V183.881ZM151.558 190.158C150.615 190.158 149.874 189.876 149.334 189.312C148.799 188.743 148.531 187.97 148.531 186.99C148.531 186.382 148.637 185.832 148.848 185.34C149.063 184.848 149.38 184.459 149.799 184.171C150.221 183.879 150.742 183.734 151.361 183.734C152.177 183.734 152.809 183.996 153.257 184.52C153.709 185.041 153.934 185.764 153.934 186.689V187.181H149.58V187.214C149.58 187.851 149.748 188.359 150.083 188.738C150.418 189.117 150.913 189.306 151.569 189.306C151.948 189.306 152.314 189.246 152.667 189.126C153.024 189.006 153.368 188.86 153.7 188.689V189.689C153.354 189.831 153.002 189.944 152.645 190.027C152.292 190.115 151.929 190.158 151.558 190.158ZM152.929 186.394C152.929 186.056 152.878 185.75 152.776 185.477C152.674 185.203 152.51 184.987 152.285 184.826C152.062 184.666 151.767 184.586 151.4 184.586C151.028 184.586 150.717 184.668 150.465 184.832C150.218 184.992 150.023 185.209 149.881 185.482C149.742 185.755 149.655 186.059 149.619 186.394H152.929ZM157.023 186.81L154.832 183.881H155.947L157.569 186.094L159.181 183.881H160.312L158.121 186.81L160.525 190H159.361L157.569 187.547L155.783 190H154.619L157.023 186.81ZM164.963 190.022C164.212 190.022 163.681 189.871 163.367 189.568C163.058 189.262 162.903 188.742 162.903 188.006V184.663H161.269V183.881H162.903V182.281L163.908 181.844V183.881H166.192V184.663H163.908V188.006C163.908 188.454 163.994 188.769 164.165 188.951C164.336 189.13 164.635 189.219 165.061 189.219H166.192V190.022H164.963ZM168.029 186.269H172.514V187.165H168.029V186.269ZM176.034 190.158C175.444 190.158 174.956 189.989 174.57 189.65C174.188 189.308 173.997 188.818 173.997 188.181C173.997 187.653 174.124 187.241 174.379 186.946C174.634 186.647 174.967 186.438 175.379 186.318C175.79 186.198 176.229 186.138 176.695 186.138H178.045V185.979C178.045 185.458 177.912 185.096 177.646 184.892C177.384 184.688 177.014 184.586 176.537 184.586C176.166 184.586 175.801 184.637 175.444 184.739C175.087 184.841 174.754 184.983 174.445 185.165V184.16C174.78 184.036 175.118 183.934 175.461 183.854C175.803 183.774 176.153 183.734 176.51 183.734C176.874 183.734 177.227 183.785 177.57 183.887C177.916 183.985 178.214 184.149 178.466 184.378C178.717 184.604 178.884 184.908 178.968 185.291C179.026 185.56 179.056 185.966 179.056 186.509V187.76C179.056 188.102 179.074 188.481 179.11 188.896C179.15 189.312 179.239 189.679 179.378 190H178.367C178.305 189.858 178.256 189.707 178.22 189.547C178.183 189.383 178.154 189.224 178.132 189.071C177.917 189.439 177.619 189.712 177.236 189.891C176.858 190.069 176.457 190.158 176.034 190.158ZM176.28 189.317C176.695 189.317 177.032 189.215 177.291 189.011C177.553 188.807 177.744 188.541 177.865 188.214C177.985 187.882 178.045 187.527 178.045 187.148V186.924H176.772C176.488 186.924 176.209 186.957 175.936 187.023C175.667 187.085 175.443 187.205 175.264 187.383C175.089 187.562 175.002 187.822 175.002 188.164C175.002 188.55 175.12 188.84 175.357 189.033C175.594 189.222 175.901 189.317 176.28 189.317ZM180.642 183.881H181.554L181.652 184.663C182.002 184.043 182.55 183.734 183.297 183.734C184.029 183.734 184.604 184.02 185.023 184.591C185.446 185.163 185.657 185.945 185.657 186.935C185.657 187.933 185.444 188.72 185.018 189.295C184.595 189.871 184.021 190.158 183.297 190.158C182.532 190.158 181.984 189.849 181.652 189.23V192.327H180.642V183.881ZM183.166 189.306C184.123 189.306 184.602 188.519 184.602 186.946C184.602 185.373 184.123 184.586 183.166 184.586C182.674 184.586 182.299 184.79 182.04 185.198C181.782 185.606 181.652 186.187 181.652 186.941C181.652 187.698 181.782 188.283 182.04 188.694C182.302 189.102 182.678 189.306 183.166 189.306ZM186.992 183.881H187.904L188.002 184.663C188.352 184.043 188.9 183.734 189.647 183.734C190.379 183.734 190.954 184.02 191.373 184.591C191.795 185.163 192.007 185.945 192.007 186.935C192.007 187.933 191.794 188.72 191.368 189.295C190.945 189.871 190.371 190.158 189.647 190.158C188.882 190.158 188.334 189.849 188.002 189.23V192.327H186.992V183.881ZM189.515 189.306C190.473 189.306 190.952 188.519 190.952 186.946C190.952 185.373 190.473 184.586 189.515 184.586C189.024 184.586 188.649 184.79 188.39 185.198C188.131 185.606 188.002 186.187 188.002 186.941C188.002 187.698 188.131 188.283 188.39 188.694C188.652 189.102 189.027 189.306 189.515 189.306Z" fill="#397C3B"/>
</g>
<g opacity="0.6">
<path d="M66.343 211.881H67.2553L67.3536 212.663C67.7033 212.043 68.2514 211.734 68.998 211.734C69.7301 211.734 70.3056 212.02 70.7244 212.591C71.1469 213.163 71.3581 213.945 71.3581 214.935C71.3581 215.933 71.1451 216.72 70.7189 217.295C70.2964 217.871 69.7228 218.158 68.998 218.158C68.2332 218.158 67.6851 217.849 67.3536 217.23V220.327H66.343V211.881ZM68.8669 217.306C69.8248 217.306 70.3037 216.519 70.3037 214.946C70.3037 213.373 69.8248 212.586 68.8669 212.586C68.3752 212.586 68.0001 212.79 67.7415 213.198C67.4829 213.606 67.3536 214.187 67.3536 214.941C67.3536 215.698 67.4829 216.283 67.7415 216.694C68.0037 217.102 68.3789 217.306 68.8669 217.306ZM72.7202 211.881H73.6271L73.7254 212.799C74.0933 212.089 74.6924 211.734 75.5228 211.734C76.772 211.734 77.3966 212.559 77.3966 214.209V218H76.386V214.209C76.386 213.659 76.2894 213.254 76.0964 212.996C75.907 212.737 75.612 212.608 75.2114 212.608C74.7343 212.608 74.3664 212.777 74.1078 213.116C73.8529 213.451 73.7254 213.926 73.7254 214.542V218H72.7202V211.881ZM79.0428 211.881H79.9551L80.0535 212.663C80.4031 212.043 80.9513 211.734 81.6979 211.734C82.43 211.734 83.0054 212.02 83.4242 212.591C83.8467 213.163 84.058 213.945 84.058 214.935C84.058 215.933 83.8449 216.72 83.4188 217.295C82.9963 217.871 82.4227 218.158 81.6979 218.158C80.9331 218.158 80.3849 217.849 80.0535 217.23V220.327H79.0428V211.881ZM81.5668 217.306C82.5246 217.306 83.0036 216.519 83.0036 214.946C83.0036 213.373 82.5246 212.586 81.5668 212.586C81.0751 212.586 80.7 212.79 80.4414 213.198C80.1828 213.606 80.0535 214.187 80.0535 214.941C80.0535 215.698 80.1828 216.283 80.4414 216.694C80.7036 217.102 81.0787 217.306 81.5668 217.306ZM84.9502 211.881H85.7751L85.8626 212.406C86.1102 211.958 86.4763 211.734 86.9606 211.734C87.4815 211.734 87.8439 211.991 88.0478 212.504C88.2955 211.991 88.6852 211.734 89.2169 211.734C89.7123 211.734 90.0583 211.92 90.2549 212.291C90.4552 212.673 90.5554 213.395 90.5554 214.454V218H89.6376V214.498C89.6376 214.039 89.6248 213.684 89.5993 213.433C89.5775 213.182 89.5411 212.996 89.4901 212.876C89.399 212.675 89.2188 212.575 88.9492 212.575C88.6724 212.575 88.4812 212.684 88.3756 212.903C88.3137 213.03 88.27 213.216 88.2445 213.46C88.219 213.704 88.2062 214.05 88.2062 214.498V218H87.2884V214.498C87.2884 214.057 87.2757 213.708 87.2502 213.449C87.2247 213.191 87.1846 213.001 87.13 212.881C87.0317 212.677 86.8477 212.575 86.5782 212.575C86.3087 212.575 86.1248 212.683 86.0265 212.897C85.9682 213.021 85.9263 213.211 85.9008 213.466C85.8753 213.717 85.8626 214.061 85.8626 214.498V218H84.9502V211.881Z" fill="#171717"/>
<path d="M100.906 218.158C100.261 218.158 99.7188 218.024 99.2781 217.754C98.841 217.481 98.5096 217.102 98.2838 216.618C98.0616 216.133 97.9505 215.576 97.9505 214.946C97.9505 214.312 98.0634 213.755 98.2892 213.274C98.5151 212.79 98.8483 212.413 99.289 212.144C99.7297 211.87 100.276 211.734 100.928 211.734C101.267 211.734 101.573 211.774 101.846 211.854C102.119 211.93 102.398 212.047 102.682 212.204V213.258C102.423 213.029 102.163 212.859 101.9 212.75C101.642 212.641 101.347 212.586 101.015 212.586C100.524 212.586 100.13 212.692 99.8353 212.903C99.544 213.114 99.3327 213.398 99.2016 213.755C99.0741 214.112 99.0104 214.509 99.0104 214.946C99.0104 215.38 99.0759 215.776 99.2071 216.137C99.3382 216.494 99.5494 216.778 99.8408 216.989C100.132 217.201 100.522 217.306 101.01 217.306C101.33 217.306 101.629 217.253 101.906 217.148C102.183 217.042 102.441 216.875 102.682 216.645V217.689C102.161 218.002 101.569 218.158 100.906 218.158ZM105.054 211.881H105.967L106.065 213.078C106.236 212.644 106.493 212.313 106.835 212.083C107.181 211.85 107.595 211.734 108.075 211.734C108.578 211.734 109.015 211.861 109.387 212.116V213.143C108.993 212.823 108.527 212.663 107.988 212.663C107.369 212.663 106.894 212.861 106.562 213.258C106.231 213.651 106.065 214.218 106.065 214.957V218H105.054V211.881ZM113.458 218.158C112.515 218.158 111.774 217.876 111.235 217.312C110.7 216.743 110.432 215.97 110.432 214.99C110.432 214.382 110.537 213.832 110.749 213.34C110.964 212.848 111.28 212.459 111.699 212.171C112.122 211.879 112.643 211.734 113.262 211.734C114.078 211.734 114.709 211.996 115.157 212.52C115.609 213.041 115.835 213.764 115.835 214.689V215.181H111.481V215.214C111.481 215.851 111.648 216.359 111.983 216.738C112.318 217.117 112.814 217.306 113.469 217.306C113.848 217.306 114.214 217.246 114.567 217.126C114.924 217.006 115.269 216.86 115.6 216.689V217.689C115.254 217.831 114.903 217.944 114.546 218.027C114.192 218.115 113.83 218.158 113.458 218.158ZM114.83 214.394C114.83 214.056 114.779 213.75 114.677 213.477C114.575 213.203 114.411 212.987 114.185 212.826C113.963 212.666 113.668 212.586 113.3 212.586C112.929 212.586 112.617 212.668 112.366 212.832C112.118 212.992 111.923 213.209 111.781 213.482C111.643 213.755 111.555 214.059 111.519 214.394H114.83ZM118.885 218.158C118.295 218.158 117.807 217.989 117.421 217.65C117.039 217.308 116.847 216.818 116.847 216.181C116.847 215.653 116.975 215.241 117.23 214.946C117.485 214.647 117.818 214.438 118.23 214.318C118.641 214.198 119.08 214.138 119.546 214.138H120.896V213.979C120.896 213.458 120.763 213.096 120.497 212.892C120.234 212.688 119.865 212.586 119.388 212.586C119.016 212.586 118.652 212.637 118.295 212.739C117.938 212.841 117.605 212.983 117.295 213.165V212.16C117.63 212.036 117.969 211.934 118.311 211.854C118.654 211.774 119.003 211.734 119.36 211.734C119.725 211.734 120.078 211.785 120.42 211.887C120.766 211.985 121.065 212.149 121.316 212.378C121.567 212.604 121.735 212.908 121.819 213.291C121.877 213.56 121.906 213.966 121.906 214.509V215.76C121.906 216.102 121.924 216.481 121.961 216.896C122.001 217.312 122.09 217.679 122.229 218H121.218C121.156 217.858 121.107 217.707 121.07 217.547C121.034 217.383 121.005 217.224 120.983 217.071C120.768 217.439 120.469 217.712 120.087 217.891C119.708 218.069 119.308 218.158 118.885 218.158ZM119.131 217.317C119.546 217.317 119.883 217.215 120.142 217.011C120.404 216.807 120.595 216.541 120.715 216.214C120.835 215.882 120.896 215.527 120.896 215.148V214.924H119.623C119.339 214.924 119.06 214.957 118.787 215.023C118.517 215.085 118.293 215.205 118.115 215.383C117.94 215.562 117.853 215.822 117.853 216.164C117.853 216.55 117.971 216.84 118.208 217.033C118.444 217.222 118.752 217.317 119.131 217.317ZM126.863 218.022C126.113 218.022 125.581 217.871 125.268 217.568C124.958 217.262 124.803 216.742 124.803 216.006V212.663H123.17V211.881H124.803V210.281L125.809 209.844V211.881H128.092V212.663H125.809V216.006C125.809 216.454 125.894 216.769 126.065 216.951C126.237 217.13 126.535 217.219 126.961 217.219H128.092V218.022H126.863ZM132.508 218.158C131.565 218.158 130.824 217.876 130.285 217.312C129.749 216.743 129.482 215.97 129.482 214.99C129.482 214.382 129.587 213.832 129.798 213.34C130.013 212.848 130.33 212.459 130.749 212.171C131.172 211.879 131.692 211.734 132.312 211.734C133.127 211.734 133.759 211.996 134.207 212.52C134.659 213.041 134.885 213.764 134.885 214.689V215.181H130.531V215.214C130.531 215.851 130.698 216.359 131.033 216.738C131.368 217.117 131.864 217.306 132.519 217.306C132.898 217.306 133.264 217.246 133.617 217.126C133.974 217.006 134.318 216.86 134.65 216.689V217.689C134.304 217.831 133.952 217.944 133.595 218.027C133.242 218.115 132.88 218.158 132.508 218.158ZM133.879 214.394C133.879 214.056 133.828 213.75 133.726 213.477C133.625 213.203 133.461 212.987 133.235 212.826C133.013 212.666 132.718 212.586 132.35 212.586C131.978 212.586 131.667 212.668 131.416 212.832C131.168 212.992 130.973 213.209 130.831 213.482C130.693 213.755 130.605 214.059 130.569 214.394H133.879ZM136.28 214.269H140.765V215.165H136.28V214.269ZM142.569 211.881H143.476L143.575 212.799C143.942 212.089 144.542 211.734 145.372 211.734C146.621 211.734 147.246 212.559 147.246 214.209V218H146.235V214.209C146.235 213.659 146.139 213.254 145.946 212.996C145.756 212.737 145.461 212.608 145.061 212.608C144.583 212.608 144.216 212.777 143.957 213.116C143.702 213.451 143.575 213.926 143.575 214.542V218H142.569V211.881ZM151.558 218.158C150.615 218.158 149.874 217.876 149.334 217.312C148.799 216.743 148.531 215.97 148.531 214.99C148.531 214.382 148.637 213.832 148.848 213.34C149.063 212.848 149.38 212.459 149.799 212.171C150.221 211.879 150.742 211.734 151.361 211.734C152.177 211.734 152.809 211.996 153.257 212.52C153.709 213.041 153.934 213.764 153.934 214.689V215.181H149.58V215.214C149.58 215.851 149.748 216.359 150.083 216.738C150.418 217.117 150.913 217.306 151.569 217.306C151.948 217.306 152.314 217.246 152.667 217.126C153.024 217.006 153.368 216.86 153.7 216.689V217.689C153.354 217.831 153.002 217.944 152.645 218.027C152.292 218.115 151.929 218.158 151.558 218.158ZM152.929 214.394C152.929 214.056 152.878 213.75 152.776 213.477C152.674 213.203 152.51 212.987 152.285 212.826C152.062 212.666 151.767 212.586 151.4 212.586C151.028 212.586 150.717 212.668 150.465 212.832C150.218 212.992 150.023 213.209 149.881 213.482C149.742 213.755 149.655 214.059 149.619 214.394H152.929ZM157.023 214.81L154.832 211.881H155.947L157.569 214.094L159.181 211.881H160.312L158.121 214.81L160.525 218H159.361L157.569 215.547L155.783 218H154.619L157.023 214.81ZM164.963 218.022C164.212 218.022 163.681 217.871 163.367 217.568C163.058 217.262 162.903 216.742 162.903 216.006V212.663H161.269V211.881H162.903V210.281L163.908 209.844V211.881H166.192V212.663H163.908V216.006C163.908 216.454 163.994 216.769 164.165 216.951C164.336 217.13 164.635 217.219 165.061 217.219H166.192V218.022H164.963ZM168.029 214.269H172.514V215.165H168.029V214.269ZM176.034 218.158C175.444 218.158 174.956 217.989 174.57 217.65C174.188 217.308 173.997 216.818 173.997 216.181C173.997 215.653 174.124 215.241 174.379 214.946C174.634 214.647 174.967 214.438 175.379 214.318C175.79 214.198 176.229 214.138 176.695 214.138H178.045V213.979C178.045 213.458 177.912 213.096 177.646 212.892C177.384 212.688 177.014 212.586 176.537 212.586C176.166 212.586 175.801 212.637 175.444 212.739C175.087 212.841 174.754 212.983 174.445 213.165V212.16C174.78 212.036 175.118 211.934 175.461 211.854C175.803 211.774 176.153 211.734 176.51 211.734C176.874 211.734 177.227 211.785 177.57 211.887C177.916 211.985 178.214 212.149 178.466 212.378C178.717 212.604 178.884 212.908 178.968 213.291C179.026 213.56 179.056 213.966 179.056 214.509V215.76C179.056 216.102 179.074 216.481 179.11 216.896C179.15 217.312 179.239 217.679 179.378 218H178.367C178.305 217.858 178.256 217.707 178.22 217.547C178.183 217.383 178.154 217.224 178.132 217.071C177.917 217.439 177.619 217.712 177.236 217.891C176.858 218.069 176.457 218.158 176.034 218.158ZM176.28 217.317C176.695 217.317 177.032 217.215 177.291 217.011C177.553 216.807 177.744 216.541 177.865 216.214C177.985 215.882 178.045 215.527 178.045 215.148V214.924H176.772C176.488 214.924 176.209 214.957 175.936 215.023C175.667 215.085 175.443 215.205 175.264 215.383C175.089 215.562 175.002 215.822 175.002 216.164C175.002 216.55 175.12 216.84 175.357 217.033C175.594 217.222 175.901 217.317 176.28 217.317ZM180.642 211.881H181.554L181.652 212.663C182.002 212.043 182.55 211.734 183.297 211.734C184.029 211.734 184.604 212.02 185.023 212.591C185.446 213.163 185.657 213.945 185.657 214.935C185.657 215.933 185.444 216.72 185.018 217.295C184.595 217.871 184.021 218.158 183.297 218.158C182.532 218.158 181.984 217.849 181.652 217.23V220.327H180.642V211.881ZM183.166 217.306C184.123 217.306 184.602 216.519 184.602 214.946C184.602 213.373 184.123 212.586 183.166 212.586C182.674 212.586 182.299 212.79 182.04 213.198C181.782 213.606 181.652 214.187 181.652 214.941C181.652 215.698 181.782 216.283 182.04 216.694C182.302 217.102 182.678 217.306 183.166 217.306ZM186.992 211.881H187.904L188.002 212.663C188.352 212.043 188.9 211.734 189.647 211.734C190.379 211.734 190.954 212.02 191.373 212.591C191.795 213.163 192.007 213.945 192.007 214.935C192.007 215.933 191.794 216.72 191.368 217.295C190.945 217.871 190.371 218.158 189.647 218.158C188.882 218.158 188.334 217.849 188.002 217.23V220.327H186.992V211.881ZM189.515 217.306C190.473 217.306 190.952 216.519 190.952 214.946C190.952 213.373 190.473 212.586 189.515 212.586C189.024 212.586 188.649 212.79 188.39 213.198C188.131 213.606 188.002 214.187 188.002 214.941C188.002 215.698 188.131 216.283 188.39 216.694C188.652 217.102 189.027 217.306 189.515 217.306Z" fill="#397C3B"/>
</g>
<g opacity="0.2">
<path d="M69.0472 246.158C68.2751 246.158 67.7142 245.849 67.3646 245.23L67.2662 246H66.3593V237.499H67.3646V240.663C67.5321 240.346 67.7634 240.113 68.0584 239.963C68.3534 239.81 68.6848 239.734 69.0527 239.734C69.4897 239.734 69.8576 239.828 70.1562 240.018C70.4549 240.204 70.6934 240.453 70.8719 240.766C71.054 241.076 71.1833 241.42 71.2598 241.799C71.3399 242.178 71.38 242.556 71.38 242.935C71.38 243.318 71.3399 243.7 71.2598 244.082C71.1797 244.461 71.0485 244.807 70.8664 245.12C70.688 245.434 70.4494 245.685 70.1508 245.874C69.8521 246.064 69.4843 246.158 69.0472 246.158ZM68.8451 245.306C69.1656 245.306 69.4223 245.232 69.6154 245.082C69.8121 244.933 69.9596 244.738 70.0579 244.498C70.1599 244.257 70.2291 244 70.2655 243.727C70.3019 243.454 70.3201 243.194 70.3201 242.946C70.3201 242.698 70.3019 242.438 70.2655 242.165C70.2291 241.888 70.1599 241.631 70.0579 241.395C69.9596 241.154 69.8121 240.959 69.6154 240.81C69.4223 240.661 69.1656 240.586 68.8451 240.586C68.5282 240.586 68.2714 240.661 68.0748 240.81C67.8817 240.959 67.7324 241.152 67.6268 241.389C67.5248 241.626 67.4556 241.883 67.4192 242.159C67.3828 242.433 67.3646 242.693 67.3646 242.941C67.3646 243.192 67.3828 243.456 67.4192 243.733C67.4556 244.006 67.5248 244.263 67.6268 244.503C67.7324 244.74 67.8817 244.933 68.0748 245.082C68.2714 245.232 68.5282 245.306 68.8451 245.306ZM74.5831 246.158C73.3412 246.158 72.7202 245.333 72.7202 243.684V239.892H73.7254V243.684C73.7254 244.751 74.1242 245.284 74.9218 245.284C75.388 245.284 75.7486 245.117 76.0035 244.782C76.2585 244.443 76.386 243.966 76.386 243.35V239.892H77.3966V246H76.4843L76.386 245.082C76.0218 245.8 75.4208 246.158 74.5831 246.158ZM79.0701 239.881H79.977L80.0753 240.799C80.4432 240.089 81.0423 239.734 81.8727 239.734C83.122 239.734 83.7466 240.559 83.7466 242.209V246H82.7359V242.209C82.7359 241.659 82.6394 241.254 82.4463 240.996C82.257 240.737 81.9619 240.608 81.5613 240.608C81.0842 240.608 80.7163 240.777 80.4578 241.116C80.2028 241.451 80.0753 241.926 80.0753 242.542V246H79.0701V239.881ZM87.1737 242.81L84.983 239.881H86.0975L87.72 242.094L89.3317 239.881H90.4625L88.2718 242.81L90.6756 246H89.5119L87.72 243.547L85.9336 246H84.7699L87.1737 242.81Z" fill="#171717"/>
<path d="M100.906 246.158C100.261 246.158 99.7188 246.024 99.2781 245.754C98.841 245.481 98.5096 245.102 98.2838 244.618C98.0616 244.133 97.9505 243.576 97.9505 242.946C97.9505 242.312 98.0634 241.755 98.2892 241.274C98.5151 240.79 98.8483 240.413 99.289 240.144C99.7297 239.87 100.276 239.734 100.928 239.734C101.267 239.734 101.573 239.774 101.846 239.854C102.119 239.93 102.398 240.047 102.682 240.204V241.258C102.423 241.029 102.163 240.859 101.9 240.75C101.642 240.641 101.347 240.586 101.015 240.586C100.524 240.586 100.13 240.692 99.8353 240.903C99.544 241.114 99.3327 241.398 99.2016 241.755C99.0741 242.112 99.0104 242.509 99.0104 242.946C99.0104 243.38 99.0759 243.776 99.2071 244.137C99.3382 244.494 99.5494 244.778 99.8408 244.989C100.132 245.201 100.522 245.306 101.01 245.306C101.33 245.306 101.629 245.253 101.906 245.148C102.183 245.042 102.441 244.875 102.682 244.645V245.689C102.161 246.002 101.569 246.158 100.906 246.158ZM105.054 239.881H105.967L106.065 241.078C106.236 240.644 106.493 240.313 106.835 240.083C107.181 239.85 107.595 239.734 108.075 239.734C108.578 239.734 109.015 239.861 109.387 240.116V241.143C108.993 240.823 108.527 240.663 107.988 240.663C107.369 240.663 106.894 240.861 106.562 241.258C106.231 241.651 106.065 242.218 106.065 242.957V246H105.054V239.881ZM113.458 246.158C112.515 246.158 111.774 245.876 111.235 245.312C110.7 244.743 110.432 243.97 110.432 242.99C110.432 242.382 110.537 241.832 110.749 241.34C110.964 240.848 111.28 240.459 111.699 240.171C112.122 239.879 112.643 239.734 113.262 239.734C114.078 239.734 114.709 239.996 115.157 240.52C115.609 241.041 115.835 241.764 115.835 242.689V243.181H111.481V243.214C111.481 243.851 111.648 244.359 111.983 244.738C112.318 245.117 112.814 245.306 113.469 245.306C113.848 245.306 114.214 245.246 114.567 245.126C114.924 245.006 115.269 244.86 115.6 244.689V245.689C115.254 245.831 114.903 245.944 114.546 246.027C114.192 246.115 113.83 246.158 113.458 246.158ZM114.83 242.394C114.83 242.056 114.779 241.75 114.677 241.477C114.575 241.203 114.411 240.987 114.185 240.826C113.963 240.666 113.668 240.586 113.3 240.586C112.929 240.586 112.617 240.668 112.366 240.832C112.118 240.992 111.923 241.209 111.781 241.482C111.643 241.755 111.555 242.059 111.519 242.394H114.83ZM118.885 246.158C118.295 246.158 117.807 245.989 117.421 245.65C117.039 245.308 116.847 244.818 116.847 244.181C116.847 243.653 116.975 243.241 117.23 242.946C117.485 242.647 117.818 242.438 118.23 242.318C118.641 242.198 119.08 242.138 119.546 242.138H120.896V241.979C120.896 241.458 120.763 241.096 120.497 240.892C120.234 240.688 119.865 240.586 119.388 240.586C119.016 240.586 118.652 240.637 118.295 240.739C117.938 240.841 117.605 240.983 117.295 241.165V240.16C117.63 240.036 117.969 239.934 118.311 239.854C118.654 239.774 119.003 239.734 119.36 239.734C119.725 239.734 120.078 239.785 120.42 239.887C120.766 239.985 121.065 240.149 121.316 240.378C121.567 240.604 121.735 240.908 121.819 241.291C121.877 241.56 121.906 241.966 121.906 242.509V243.76C121.906 244.102 121.924 244.481 121.961 244.896C122.001 245.312 122.09 245.679 122.229 246H121.218C121.156 245.858 121.107 245.707 121.07 245.547C121.034 245.383 121.005 245.224 120.983 245.071C120.768 245.439 120.469 245.712 120.087 245.891C119.708 246.069 119.308 246.158 118.885 246.158ZM119.131 245.317C119.546 245.317 119.883 245.215 120.142 245.011C120.404 244.807 120.595 244.541 120.715 244.214C120.835 243.882 120.896 243.527 120.896 243.148V242.924H119.623C119.339 242.924 119.06 242.957 118.787 243.023C118.517 243.085 118.293 243.205 118.115 243.383C117.94 243.562 117.853 243.822 117.853 244.164C117.853 244.55 117.971 244.84 118.208 245.033C118.444 245.222 118.752 245.317 119.131 245.317ZM126.863 246.022C126.113 246.022 125.581 245.871 125.268 245.568C124.958 245.262 124.803 244.742 124.803 244.006V240.663H123.17V239.881H124.803V238.281L125.809 237.844V239.881H128.092V240.663H125.809V244.006C125.809 244.454 125.894 244.769 126.065 244.951C126.237 245.13 126.535 245.219 126.961 245.219H128.092V246.022H126.863ZM132.508 246.158C131.565 246.158 130.824 245.876 130.285 245.312C129.749 244.743 129.482 243.97 129.482 242.99C129.482 242.382 129.587 241.832 129.798 241.34C130.013 240.848 130.33 240.459 130.749 240.171C131.172 239.879 131.692 239.734 132.312 239.734C133.127 239.734 133.759 239.996 134.207 240.52C134.659 241.041 134.885 241.764 134.885 242.689V243.181H130.531V243.214C130.531 243.851 130.698 244.359 131.033 244.738C131.368 245.117 131.864 245.306 132.519 245.306C132.898 245.306 133.264 245.246 133.617 245.126C133.974 245.006 134.318 244.86 134.65 244.689V245.689C134.304 245.831 133.952 245.944 133.595 246.027C133.242 246.115 132.88 246.158 132.508 246.158ZM133.879 242.394C133.879 242.056 133.828 241.75 133.726 241.477C133.625 241.203 133.461 240.987 133.235 240.826C133.013 240.666 132.718 240.586 132.35 240.586C131.978 240.586 131.667 240.668 131.416 240.832C131.168 240.992 130.973 241.209 130.831 241.482C130.693 241.755 130.605 242.059 130.569 242.394H133.879ZM136.28 242.269H140.765V243.165H136.28V242.269ZM142.569 239.881H143.476L143.575 240.799C143.942 240.089 144.542 239.734 145.372 239.734C146.621 239.734 147.246 240.559 147.246 242.209V246H146.235V242.209C146.235 241.659 146.139 241.254 145.946 240.996C145.756 240.737 145.461 240.608 145.061 240.608C144.583 240.608 144.216 240.777 143.957 241.116C143.702 241.451 143.575 241.926 143.575 242.542V246H142.569V239.881ZM151.558 246.158C150.615 246.158 149.874 245.876 149.334 245.312C148.799 244.743 148.531 243.97 148.531 242.99C148.531 242.382 148.637 241.832 148.848 241.34C149.063 240.848 149.38 240.459 149.799 240.171C150.221 239.879 150.742 239.734 151.361 239.734C152.177 239.734 152.809 239.996 153.257 240.52C153.709 241.041 153.934 241.764 153.934 242.689V243.181H149.58V243.214C149.58 243.851 149.748 244.359 150.083 244.738C150.418 245.117 150.913 245.306 151.569 245.306C151.948 245.306 152.314 245.246 152.667 245.126C153.024 245.006 153.368 244.86 153.7 244.689V245.689C153.354 245.831 153.002 245.944 152.645 246.027C152.292 246.115 151.929 246.158 151.558 246.158ZM152.929 242.394C152.929 242.056 152.878 241.75 152.776 241.477C152.674 241.203 152.51 240.987 152.285 240.826C152.062 240.666 151.767 240.586 151.4 240.586C151.028 240.586 150.717 240.668 150.465 240.832C150.218 240.992 150.023 241.209 149.881 241.482C149.742 241.755 149.655 242.059 149.619 242.394H152.929ZM157.023 242.81L154.832 239.881H155.947L157.569 242.094L159.181 239.881H160.312L158.121 242.81L160.525 246H159.361L157.569 243.547L155.783 246H154.619L157.023 242.81ZM164.963 246.022C164.212 246.022 163.681 245.871 163.367 245.568C163.058 245.262 162.903 244.742 162.903 244.006V240.663H161.269V239.881H162.903V238.281L163.908 237.844V239.881H166.192V240.663H163.908V244.006C163.908 244.454 163.994 244.769 164.165 244.951C164.336 245.13 164.635 245.219 165.061 245.219H166.192V246.022H164.963ZM168.029 242.269H172.514V243.165H168.029V242.269ZM176.034 246.158C175.444 246.158 174.956 245.989 174.57 245.65C174.188 245.308 173.997 244.818 173.997 244.181C173.997 243.653 174.124 243.241 174.379 242.946C174.634 242.647 174.967 242.438 175.379 242.318C175.79 242.198 176.229 242.138 176.695 242.138H178.045V241.979C178.045 241.458 177.912 241.096 177.646 240.892C177.384 240.688 177.014 240.586 176.537 240.586C176.166 240.586 175.801 240.637 175.444 240.739C175.087 240.841 174.754 240.983 174.445 241.165V240.16C174.78 240.036 175.118 239.934 175.461 239.854C175.803 239.774 176.153 239.734 176.51 239.734C176.874 239.734 177.227 239.785 177.57 239.887C177.916 239.985 178.214 240.149 178.466 240.378C178.717 240.604 178.884 240.908 178.968 241.291C179.026 241.56 179.056 241.966 179.056 242.509V243.76C179.056 244.102 179.074 244.481 179.11 244.896C179.15 245.312 179.239 245.679 179.378 246H178.367C178.305 245.858 178.256 245.707 178.22 245.547C178.183 245.383 178.154 245.224 178.132 245.071C177.917 245.439 177.619 245.712 177.236 245.891C176.858 246.069 176.457 246.158 176.034 246.158ZM176.28 245.317C176.695 245.317 177.032 245.215 177.291 245.011C177.553 244.807 177.744 244.541 177.865 244.214C177.985 243.882 178.045 243.527 178.045 243.148V242.924H176.772C176.488 242.924 176.209 242.957 175.936 243.023C175.667 243.085 175.443 243.205 175.264 243.383C175.089 243.562 175.002 243.822 175.002 244.164C175.002 244.55 175.12 244.84 175.357 245.033C175.594 245.222 175.901 245.317 176.28 245.317ZM180.642 239.881H181.554L181.652 240.663C182.002 240.043 182.55 239.734 183.297 239.734C184.029 239.734 184.604 240.02 185.023 240.591C185.446 241.163 185.657 241.945 185.657 242.935C185.657 243.933 185.444 244.72 185.018 245.295C184.595 245.871 184.021 246.158 183.297 246.158C182.532 246.158 181.984 245.849 181.652 245.23V248.327H180.642V239.881ZM183.166 245.306C184.123 245.306 184.602 244.519 184.602 242.946C184.602 241.373 184.123 240.586 183.166 240.586C182.674 240.586 182.299 240.79 182.04 241.198C181.782 241.606 181.652 242.187 181.652 242.941C181.652 243.698 181.782 244.283 182.04 244.694C182.302 245.102 182.678 245.306 183.166 245.306ZM186.992 239.881H187.904L188.002 240.663C188.352 240.043 188.9 239.734 189.647 239.734C190.379 239.734 190.954 240.02 191.373 240.591C191.795 241.163 192.007 241.945 192.007 242.935C192.007 243.933 191.794 244.72 191.368 245.295C190.945 245.871 190.371 246.158 189.647 246.158C188.882 246.158 188.334 245.849 188.002 245.23V248.327H186.992V239.881ZM189.515 245.306C190.473 245.306 190.952 244.519 190.952 242.946C190.952 241.373 190.473 240.586 189.515 240.586C189.024 240.586 188.649 240.79 188.39 241.198C188.131 241.606 188.002 242.187 188.002 242.941C188.002 243.698 188.131 244.283 188.39 244.694C188.652 245.102 189.027 245.306 189.515 245.306Z" fill="#397C3B"/>
</g>
</g>
<rect x="41.5" y="102.5" width="389" height="183.611" rx="9.09016" stroke="#E5E5E5"/>
<defs>
<linearGradient id="paint0_linear_1261_1397" x1="233.18" y1="34.8618" x2="233.18" y2="61.0357" gradientUnits="userSpaceOnUse">
<stop/>
<stop offset="1" stop-color="#989696"/>
</linearGradient>
<linearGradient id="paint1_linear_1261_1397" x1="236" y1="102" x2="236" y2="286.611" gradientUnits="userSpaceOnUse">
<stop offset="0.16633" stop-color="#F5F5F5"/>
<stop offset="1" stop-color="#F9F9F9"/>
</linearGradient>
<clipPath id="clip0_1261_1397">
<rect x="41" y="102" width="390" height="184.611" rx="9.59016" fill="white"/>
</clipPath>
</defs>
</svg>
