<svg width="748" height="208" viewBox="0 0 748 208" fill="none" xmlns="http://www.w3.org/2000/svg">
<rect x="1.49609" y="88.2329" width="50.8459" height="55.3323" fill="#E9F5FE"/>
<rect y="88.2325" width="747.731" height="0.747731" fill="#71B2F9"/>
<rect x="677.443" y="88.2325" width="68.7916" height="55.3323" fill="#E9F5FE"/>
<path d="M232.83 141.874C229.506 141.874 226.792 140.856 224.689 138.821C222.654 136.718 221.637 133.937 221.637 130.477V101.986H209.019V91.4033H221.637V75.7331H234.458V91.4033H248.297V101.986H234.458V128.239C234.458 130.274 235.408 131.291 237.307 131.291H247.076V141.874H232.83ZM273.987 143.298C268.968 143.298 264.524 142.247 260.658 140.144C256.859 137.973 253.874 134.955 251.703 131.088C249.6 127.153 248.549 122.54 248.549 117.249V116.028C248.549 110.737 249.6 106.158 251.703 102.291C253.806 98.3566 256.757 95.3379 260.556 93.2349C264.355 91.0642 268.764 89.9788 273.784 89.9788C278.736 89.9788 283.044 91.0981 286.707 93.3367C290.37 95.5075 293.219 98.5601 295.254 102.495C297.289 106.361 298.307 110.872 298.307 116.028V120.404H261.573C261.709 123.863 262.998 126.678 265.44 128.849C267.882 131.02 270.867 132.105 274.394 132.105C277.99 132.105 280.635 131.325 282.331 129.765C284.027 128.205 285.316 126.475 286.198 124.576L296.679 130.07C295.729 131.834 294.338 133.767 292.507 135.87C290.743 137.905 288.369 139.669 285.384 141.162C282.399 142.586 278.6 143.298 273.987 143.298ZM261.675 110.839H285.282C285.011 107.922 283.824 105.581 281.721 103.817C279.686 102.054 277.006 101.172 273.682 101.172C270.223 101.172 267.475 102.054 265.44 103.817C263.405 105.581 262.15 107.922 261.675 110.839ZM326.305 143.298C321.42 143.298 316.977 142.281 312.975 140.246C309.04 138.211 305.92 135.26 303.613 131.393C301.307 127.526 300.154 122.846 300.154 117.351V115.926C300.154 110.432 301.307 105.751 303.613 101.884C305.92 98.0174 309.04 95.0665 312.975 93.0314C316.977 90.9963 321.42 89.9788 326.305 89.9788C331.121 89.9788 335.259 90.8267 338.719 92.5227C342.179 94.2186 344.96 96.5589 347.063 99.5438C349.234 102.461 350.658 105.785 351.336 109.516L338.922 112.161C338.651 110.126 338.04 108.295 337.091 106.667C336.141 105.039 334.784 103.75 333.021 102.8C331.325 101.85 329.188 101.375 326.61 101.375C324.032 101.375 321.692 101.952 319.589 103.105C317.554 104.191 315.926 105.853 314.705 108.091C313.551 110.262 312.975 112.942 312.975 116.13V117.147C312.975 120.336 313.551 123.049 314.705 125.288C315.926 127.459 317.554 129.121 319.589 130.274C321.692 131.359 324.032 131.902 326.61 131.902C330.477 131.902 333.394 130.918 335.361 128.951C337.396 126.916 338.685 124.27 339.228 121.014L351.642 123.965C350.76 127.56 349.234 130.85 347.063 133.835C344.96 136.752 342.179 139.059 338.719 140.755C335.259 142.451 331.121 143.298 326.305 143.298ZM355.095 141.874V70.6453H367.916V97.6104H369.748C370.29 96.525 371.138 95.4396 372.292 94.3542C373.445 93.2689 374.971 92.387 376.871 91.7086C378.838 90.9624 381.314 90.5893 384.299 90.5893C388.233 90.5893 391.659 91.5051 394.576 93.3367C397.561 95.1004 399.867 97.5765 401.495 100.765C403.123 103.885 403.938 107.548 403.938 111.754V141.874H391.116V112.772C391.116 108.973 390.167 106.124 388.267 104.224C386.436 102.325 383.79 101.375 380.33 101.375C376.396 101.375 373.343 102.698 371.172 105.344C369.002 107.922 367.916 111.551 367.916 116.232V141.874H355.095ZM410.675 141.874V70.6453H423.496V110.025H425.328L442.015 91.4033H458.703L435.401 115.825L459.517 141.874H443.033L425.328 121.828H423.496V141.874H410.675ZM475.665 143.298C472.069 143.298 468.847 142.688 465.998 141.467C463.149 140.178 460.876 138.346 459.18 135.972C457.552 133.53 456.738 130.579 456.738 127.119C456.738 123.66 457.552 120.777 459.18 118.47C460.876 116.096 463.183 114.332 466.1 113.179C469.084 111.958 472.476 111.347 476.275 111.347H490.114V108.498C490.114 106.124 489.368 104.191 487.875 102.698C486.383 101.138 484.008 100.358 480.752 100.358C477.564 100.358 475.19 101.104 473.629 102.596C472.069 104.021 471.052 105.886 470.577 108.193L458.773 104.224C459.587 101.647 460.876 99.3063 462.64 97.2034C464.472 95.0326 466.88 93.3028 469.865 92.0139C472.917 90.6571 476.614 89.9788 480.956 89.9788C487.604 89.9788 492.861 91.6408 496.728 94.9648C500.595 98.2888 502.528 103.105 502.528 109.414V128.239C502.528 130.274 503.478 131.291 505.377 131.291H509.447V141.874H500.9C498.39 141.874 496.321 141.263 494.693 140.042C493.065 138.821 492.251 137.193 492.251 135.158V135.056H490.317C490.046 135.87 489.435 136.956 488.486 138.312C487.536 139.601 486.044 140.755 484.008 141.772C481.973 142.79 479.192 143.298 475.665 143.298ZM477.903 132.919C481.499 132.919 484.416 131.936 486.654 129.969C488.961 127.933 490.114 125.254 490.114 121.93V120.912H477.191C474.817 120.912 472.951 121.421 471.594 122.439C470.238 123.456 469.559 124.881 469.559 126.712C469.559 128.544 470.272 130.036 471.696 131.19C473.121 132.343 475.19 132.919 477.903 132.919ZM511.699 141.874V91.4033H524.316V97.1016H526.148C526.894 95.0665 528.115 93.5741 529.811 92.6244C531.575 91.6747 533.61 91.1998 535.916 91.1998H542.022V102.596H535.713C532.457 102.596 529.777 103.478 527.674 105.242C525.571 106.938 524.52 109.584 524.52 113.179V141.874H511.699ZM566.128 143.298C561.108 143.298 556.665 142.247 552.798 140.144C548.999 137.973 546.014 134.955 543.844 131.088C541.741 127.153 540.689 122.54 540.689 117.249V116.028C540.689 110.737 541.741 106.158 543.844 102.291C545.947 98.3566 548.898 95.3379 552.696 93.2349C556.495 91.0642 560.905 89.9788 565.925 89.9788C570.877 89.9788 575.184 91.0981 578.847 93.3367C582.511 95.5075 585.36 98.5601 587.395 102.495C589.43 106.361 590.448 110.872 590.448 116.028V120.404H553.714C553.85 123.863 555.139 126.678 557.581 128.849C560.023 131.02 563.008 132.105 566.535 132.105C570.13 132.105 572.776 131.325 574.472 129.765C576.168 128.205 577.457 126.475 578.339 124.576L588.819 130.07C587.87 131.834 586.479 133.767 584.648 135.87C582.884 137.905 580.509 139.669 577.525 141.162C574.54 142.586 570.741 143.298 566.128 143.298ZM553.816 110.839H577.423C577.152 107.922 575.964 105.581 573.861 103.817C571.826 102.054 569.147 101.172 565.823 101.172C562.363 101.172 559.616 102.054 557.581 103.817C555.546 105.581 554.291 107.922 553.816 110.839ZM617.733 143.298C612.713 143.298 608.27 142.247 604.403 140.144C600.604 137.973 597.619 134.955 595.449 131.088C593.346 127.153 592.294 122.54 592.294 117.249V116.028C592.294 110.737 593.346 106.158 595.449 102.291C597.552 98.3566 600.503 95.3379 604.301 93.2349C608.1 91.0642 612.51 89.9788 617.53 89.9788C622.482 89.9788 626.789 91.0981 630.452 93.3367C634.116 95.5075 636.965 98.5601 639 102.495C641.035 106.361 642.053 110.872 642.053 116.028V120.404H605.319C605.455 123.863 606.743 126.678 609.186 128.849C611.628 131.02 614.613 132.105 618.14 132.105C621.735 132.105 624.381 131.325 626.077 129.765C627.773 128.205 629.062 126.475 629.944 124.576L640.424 130.07C639.475 131.834 638.084 133.767 636.252 135.87C634.489 137.905 632.114 139.669 629.13 141.162C626.145 142.586 622.346 143.298 617.733 143.298ZM605.421 110.839H629.028C628.757 107.922 627.569 105.581 625.466 103.817C623.431 102.054 620.752 101.172 617.428 101.172C613.968 101.172 611.221 102.054 609.186 103.817C607.151 105.581 605.896 107.922 605.421 110.839ZM646.341 141.874V91.4033H658.959V97.1016H660.791C661.537 95.0665 662.758 93.5741 664.454 92.6244C666.218 91.6747 668.253 91.1998 670.559 91.1998H676.664V102.596H670.356C667.099 102.596 664.42 103.478 662.317 105.242C660.214 106.938 659.162 109.584 659.162 113.179V141.874H646.341Z" fill="black"/>
<rect x="52.3413" y="2.99084" width="0.747734" height="204.879" fill="#71B2F9"/>
<rect x="179.456" y="2.99158" width="0.747734" height="204.879" fill="#71B2F9"/>
<rect x="209.365" y="2.99158" width="0.747734" height="204.879" fill="#71B2F9"/>
<rect x="677.443" y="0.00012207" width="0.747734" height="206.375" fill="#71B2F9"/>
<rect x="0.186933" y="43.5556" width="747.357" height="0.373865" stroke="#71B2F9" stroke-width="0.373865" stroke-dasharray="2.99 2.99"/>
<rect x="0.186933" y="172.166" width="747.357" height="0.373865" stroke="#71B2F9" stroke-width="0.373865" stroke-dasharray="2.99 2.99"/>
<rect y="143.565" width="747.731" height="0.747731" fill="#71B2F9"/>
<rect x="52.3413" y="44.864" width="127.115" height="127.115" rx="11.5558" fill="#2D5BF6"/>
<path d="M67.2959 77.4093C67.2959 76.3226 68.4508 75.625 69.4127 76.1308L105.525 95.1179C106 95.3676 106.297 95.8599 106.297 96.3964L106.297 108.68C106.297 109.781 105.116 110.477 104.153 109.944L68.0414 89.9715C67.5815 89.7172 67.296 89.2331 67.296 88.7075L67.2959 77.4093Z" fill="white"/>
<rect x="91.4902" y="108.602" width="14.806" height="30.5839" rx="0.72224" fill="white"/>
<path d="M138.995 95.6388C141.957 92.4082 144.872 89.2428 147.775 86.0671C148.522 85.25 149.381 84.8163 150.531 84.8298C154.161 84.8721 157.792 84.856 161.423 84.8419C162.444 84.8379 163.247 85.1894 163.775 86.0778C164.428 87.177 163.98 88.0552 163.214 88.889C159.797 92.6083 156.389 96.3364 152.978 100.062C143.479 110.438 131.104 123.956 121.605 134.332C120.72 135.298 119.847 136.274 118.94 137.219C117.577 138.638 115.809 138.207 115.203 136.333C115.051 135.86 115.033 135.38 115.032 134.891C115.028 131.149 115.052 127.405 114.99 123.663C114.969 122.411 115.375 121.44 116.207 120.534C122.839 113.315 132.327 102.933 138.995 95.6388Z" fill="white"/>
<path d="M153.529 126.025C156.131 128.871 158.678 131.659 161.226 134.447C161.919 135.205 162.143 136.055 161.718 137.024C161.324 137.922 160.541 138.311 159.651 138.32C155.724 138.359 151.796 138.343 147.868 138.331C147.076 138.329 146.429 137.944 145.905 137.376C142.914 134.132 139.917 130.893 136.952 127.624C136.066 126.646 136.07 125.695 136.946 124.706C138.904 122.494 140.885 120.303 142.898 118.14C143.984 116.973 145.241 117.057 146.395 118.302C148.761 120.852 151.115 123.412 153.529 126.025Z" fill="white"/>
<path d="M119.8 83.7564C121.894 83.7535 123.877 83.7386 125.86 83.7519C127.813 83.765 128.638 84.6184 128.636 86.5698C128.632 90.1238 128.609 93.678 128.643 97.2317C128.652 98.0798 128.403 98.7153 127.824 99.3346C124.912 102.448 122.027 105.587 119.157 108.739C118.391 109.581 117.488 109.936 116.447 109.533C115.44 109.144 115.234 108.201 115.227 107.211C115.18 100.703 115.128 94.1954 115.084 87.6877C115.062 84.435 115.738 83.7661 119.015 83.7586C119.24 83.7581 119.464 83.7574 119.8 83.7564Z" fill="white"/>
</svg>
