<svg width="482" height="269" viewBox="0 0 482 269" fill="none" xmlns="http://www.w3.org/2000/svg">
<rect width="482" height="269" rx="12" fill="white"/>
<path d="M132.773 167.731H137.842V203.494H158.962V208H132.773V167.731ZM172.714 204.846C178.459 204.846 180.599 201.129 181.106 199.158H185.612C184.147 204.508 180.036 208.788 172.883 208.788C164.154 208.788 158.86 202.65 158.86 193.638C158.86 184.064 164.266 178.488 172.658 178.488C181.669 178.488 186.062 184.627 186.062 194.821H163.365C163.365 200.003 166.463 204.846 172.714 204.846ZM172.658 182.431C167.251 182.431 163.365 186.261 163.365 190.879H181.556C181.556 186.261 178.065 182.431 172.658 182.431ZM206.405 186.598C206.405 184.346 205.166 182.431 200.548 182.431C195.085 182.431 193.282 184.008 193.001 188.175H188.495C188.777 182.656 192.212 178.488 200.548 178.488C206.011 178.488 210.911 180.629 210.911 187.556V201.523C210.911 203.776 211.305 205.015 214.177 204.677V207.831C212.994 208.225 212.375 208.282 211.53 208.282C208.827 208.282 207.193 207.549 206.405 204.396H206.292C204.49 207.099 201.28 208.788 196.549 208.788C190.748 208.788 187.087 205.466 187.087 200.622C187.087 194.089 191.931 192.399 199.365 190.991C204.208 190.09 206.405 189.471 206.405 186.598ZM197 204.846C202.35 204.846 206.405 202.424 206.405 196.905V192.118C205.56 192.963 202.8 193.751 199.759 194.371C194.184 195.553 191.593 196.961 191.593 200.397C191.593 203.213 193.282 204.846 197 204.846ZM229.596 178.488C236.692 178.488 242.436 184.177 242.436 193.638C242.436 203.1 236.692 208.788 229.596 208.788C224.865 208.788 222.161 206.761 220.472 204.283H220.359V217.687H215.853V179.277H220.359V182.825H220.472C222.161 180.629 224.865 178.488 229.596 178.488ZM229.032 204.846C234.946 204.846 237.931 199.27 237.931 193.638C237.931 188.006 234.946 182.431 229.032 182.431C223.682 182.431 220.359 186.88 220.359 193.638C220.359 200.397 223.682 204.846 229.032 204.846ZM251.203 185.303H269.169V189.809H251.203V208H246.135V167.731H273.45V172.237H251.203V185.303ZM276.498 167.731H281.004V208H276.498V167.731ZM298.141 208.788C289.355 208.788 284.061 202.593 284.061 193.638C284.061 184.684 289.355 178.488 298.141 178.488C306.871 178.488 312.165 184.684 312.165 193.638C312.165 202.593 306.871 208.788 298.141 208.788ZM298.141 204.846C304.562 204.846 307.659 199.777 307.659 193.638C307.659 187.5 304.562 182.431 298.141 182.431C291.664 182.431 288.567 187.5 288.567 193.638C288.567 199.777 291.664 204.846 298.141 204.846ZM311.602 179.277H316.559L323.092 203.1H323.204L329.625 179.277H334.412L340.889 203.1H341.001L347.534 179.277H352.491L343.31 208H338.523L332.047 184.289H331.934L325.57 208H320.783L311.602 179.277Z" fill="#243C36"/>
<path d="M248.364 102.62L245.13 102.62C244.714 102.62 244.353 102.335 244.255 101.931C244.217 101.77 244.223 101.601 244.274 101.443L248.047 89.8111C262.824 78.2019 285.051 67.7571 293.191 69.5791L293.982 101.489L248.364 102.62Z" fill="#2F6C56"/>
<path d="M209.128 32.8987H241.722L241.273 88.4215L204.632 125.287C189.571 136.526 167.092 146.417 159 144.394V112.474H204.632H205.283C206.436 112.474 207.528 111.956 208.259 111.064C208.821 110.377 209.128 109.516 209.128 108.629V106.854V32.8987Z" fill="#2F6C56"/>
<path d="M273.417 143.76L240.823 143.76L241.272 88.2369L277.913 51.3716C292.974 40.1321 315.453 30.2414 323.545 32.2645L323.545 64.1845L277.913 64.1845L277.262 64.1845C276.109 64.1845 275.017 64.7022 274.286 65.5949C273.724 66.2819 273.417 67.1422 273.417 68.0299L273.417 69.8043L273.417 143.76Z" fill="#2F6C56"/>
</svg>
