<svg width="471" height="353" viewBox="0 0 471 353" fill="none" xmlns="http://www.w3.org/2000/svg">
<g clip-path="url(#clip0_1261_1931)">
<rect width="471" height="353" fill="#F9F9F9"/>
<line x1="-73.8784" y1="145.063" x2="307.504" y2="145.063" stroke="#E1E1E1" stroke-opacity="0.2" stroke-width="0.86243"/>
<line x1="-73.8784" y1="94.976" x2="307.504" y2="94.976" stroke="#E1E1E1" stroke-opacity="0.2" stroke-width="0.86243"/>
<line x1="-73.8784" y1="42.5032" x2="307.504" y2="42.5032" stroke="#E1E1E1" stroke-opacity="0.2" stroke-width="0.86243"/>
<line x1="-73.8784" y1="-0.429201" x2="307.504" y2="-0.429201" stroke="#E1E1E1" stroke-opacity="0.2" stroke-width="0.86243"/>
<line y1="-0.431215" x2="352.998" y2="-0.431215" transform="matrix(-0.00191266 -0.999998 0.999986 -0.00525317 116.093 353)" stroke="#E1E1E1" stroke-opacity="0.2" stroke-width="0.86243"/>
<line y1="-0.431215" x2="353" y2="-0.431215" transform="matrix(-0.00150686 -0.999999 0.999991 -0.00413866 68.6001 353)" stroke="#E1E1E1" stroke-opacity="0.2" stroke-width="0.86243"/>
<line y1="-0.431215" x2="352.998" y2="-0.431215" transform="matrix(-0.00111643 -0.999999 0.999995 -0.00306633 21.1069 353)" stroke="#E1E1E1" stroke-opacity="0.2" stroke-width="0.86243"/>
<line y1="-0.431215" x2="352.997" y2="-0.431215" transform="matrix(9.64262e-05 -1 1 0.000264841 163.586 353)" stroke="#E1E1E1" stroke-opacity="0.2" stroke-width="0.86243"/>
<line y1="-0.431215" x2="352.998" y2="-0.431215" transform="matrix(-0.00197169 -0.999998 0.999985 -0.00541532 212.518 353)" stroke="#E1E1E1" stroke-opacity="0.2" stroke-width="0.86243"/>
<line y1="-0.431215" x2="352.997" y2="-0.431215" transform="matrix(4.5227e-05 -1 1 0.000124219 260.011 353)" stroke="#E1E1E1" stroke-opacity="0.2" stroke-width="0.86243"/>
<line y1="-0.431215" x2="352.998" y2="-0.431215" transform="matrix(-0.00204485 -0.999998 0.999984 -0.00561624 308.943 353)" stroke="#E1E1E1" stroke-opacity="0.2" stroke-width="0.86243"/>
<line x1="-73.8784" y1="197.536" x2="307.504" y2="197.536" stroke="#E1E1E1" stroke-opacity="0.2" stroke-width="0.86243"/>
<line x1="-73.8784" y1="250.008" x2="307.504" y2="250.008" stroke="#E1E1E1" stroke-opacity="0.2" stroke-width="0.86243"/>
<line y1="-0.431215" x2="382.824" y2="-0.431215" transform="matrix(0.999995 -0.00318666 0.000982912 0.999999 -73.8784 301.747)" stroke="#E1E1E1" stroke-opacity="0.2" stroke-width="0.86243"/>
<line x1="-73.8784" y1="352.569" x2="307.504" y2="352.569" stroke="#E1E1E1" stroke-opacity="0.2" stroke-width="0.86243"/>
<line x1="307.383" y1="145.061" x2="543.408" y2="145.061" stroke="#E1E1E1" stroke-opacity="0.2" stroke-width="0.86243"/>
<line x1="307.383" y1="94.9735" x2="543.408" y2="94.9735" stroke="#E1E1E1" stroke-opacity="0.2" stroke-width="0.86243"/>
<line x1="307.383" y1="42.5011" x2="543.408" y2="42.5011" stroke="#E1E1E1" stroke-opacity="0.2" stroke-width="0.86243"/>
<line x1="307.383" y1="-0.431154" x2="543.408" y2="-0.431154" stroke="#E1E1E1" stroke-opacity="0.2" stroke-width="0.86243"/>
<line y1="-0.431215" x2="353" y2="-0.431215" transform="matrix(-0.00150686 -0.999999 0.999991 -0.00413866 449.983 353)" stroke="#E1E1E1" stroke-opacity="0.2" stroke-width="0.86243"/>
<line y1="-0.431215" x2="352.998" y2="-0.431215" transform="matrix(-0.00111643 -0.999999 0.999995 -0.00306633 402.49 353)" stroke="#E1E1E1" stroke-opacity="0.2" stroke-width="0.86243"/>
<line y1="-0.431215" x2="352.999" y2="-0.431215" transform="matrix(0.00333496 -0.999994 0.999958 0.00915935 353.558 353)" stroke="#E1E1E1" stroke-opacity="0.2" stroke-width="0.86243"/>
<line x1="307.383" y1="197.534" x2="543.408" y2="197.534" stroke="#E1E1E1" stroke-opacity="0.2" stroke-width="0.86243"/>
<line x1="307.383" y1="250.006" x2="543.408" y2="250.006" stroke="#E1E1E1" stroke-opacity="0.2" stroke-width="0.86243"/>
<line y1="-0.431215" x2="237.346" y2="-0.431215" transform="matrix(0.999988 -0.00490206 0.000638952 1 307.504 301.747)" stroke="#E1E1E1" stroke-opacity="0.2" stroke-width="0.86243"/>
<path d="M307.383 352.283L544.128 352.283" stroke="#E1E1E1" stroke-opacity="0.2" stroke-width="0.86243"/>
<path d="M172.152 57V35.1818H176.104V53.6868H185.714V57H172.152ZM195.168 57.3196C193.527 57.3196 192.111 56.9787 190.917 56.2969C189.731 55.608 188.819 54.6349 188.179 53.3778C187.54 52.1136 187.221 50.6257 187.221 48.9141C187.221 47.2308 187.54 45.7536 188.179 44.4822C188.826 43.2038 189.728 42.2095 190.885 41.4993C192.043 40.782 193.403 40.4233 194.966 40.4233C195.974 40.4233 196.926 40.5866 197.821 40.9134C198.723 41.233 199.518 41.7301 200.207 42.4048C200.903 43.0795 201.45 43.9389 201.848 44.983C202.245 46.0199 202.444 47.2557 202.444 48.6903V49.8729H189.032V47.2734H198.748C198.74 46.5348 198.581 45.8778 198.268 45.3026C197.956 44.7202 197.519 44.2621 196.958 43.9283C196.404 43.5945 195.758 43.4276 195.019 43.4276C194.231 43.4276 193.538 43.6193 192.941 44.0028C192.345 44.3793 191.88 44.8764 191.546 45.4943C191.219 46.1051 191.052 46.7763 191.045 47.5078V49.777C191.045 50.7287 191.219 51.5455 191.567 52.2273C191.915 52.902 192.402 53.4205 193.027 53.7827C193.652 54.1378 194.383 54.3153 195.221 54.3153C195.782 54.3153 196.29 54.2372 196.745 54.081C197.199 53.9176 197.593 53.6797 197.927 53.3672C198.261 53.0547 198.513 52.6676 198.684 52.206L202.285 52.6108C202.057 53.5625 201.624 54.3935 200.985 55.1037C200.353 55.8068 199.543 56.3537 198.556 56.7443C197.569 57.1278 196.439 57.3196 195.168 57.3196ZM209.366 57.3303C208.329 57.3303 207.395 57.1456 206.564 56.7763C205.74 56.3999 205.087 55.8459 204.604 55.1143C204.128 54.3828 203.89 53.4808 203.89 52.4084C203.89 51.4851 204.06 50.7216 204.401 50.1179C204.742 49.5142 205.207 49.0312 205.797 48.669C206.386 48.3068 207.05 48.0334 207.789 47.8487C208.535 47.657 209.305 47.5185 210.101 47.4332C211.06 47.3338 211.837 47.245 212.434 47.1669C213.031 47.0817 213.464 46.9538 213.734 46.7834C214.011 46.6058 214.149 46.3324 214.149 45.9631V45.8991C214.149 45.0966 213.911 44.4751 213.435 44.0348C212.959 43.5945 212.274 43.3743 211.379 43.3743C210.435 43.3743 209.685 43.5803 209.131 43.9922C208.584 44.4041 208.215 44.8906 208.023 45.4517L204.423 44.9403C204.707 43.946 205.175 43.1151 205.829 42.4474C206.482 41.7727 207.281 41.2685 208.226 40.9347C209.17 40.5938 210.214 40.4233 211.358 40.4233C212.146 40.4233 212.931 40.5156 213.712 40.7003C214.494 40.8849 215.207 41.1903 215.854 41.6165C216.5 42.0355 217.018 42.6072 217.409 43.3317C217.807 44.0561 218.006 44.9616 218.006 46.0483V57H214.298V54.7521H214.17C213.936 55.2067 213.606 55.6328 213.18 56.0305C212.761 56.4212 212.232 56.7372 211.592 56.9787C210.96 57.2131 210.218 57.3303 209.366 57.3303ZM210.367 54.4964C211.141 54.4964 211.812 54.3437 212.381 54.0384C212.949 53.7259 213.386 53.3139 213.691 52.8026C214.004 52.2912 214.16 51.7337 214.16 51.13V49.2017C214.039 49.3011 213.833 49.3935 213.542 49.4787C213.258 49.5639 212.938 49.6385 212.583 49.7024C212.228 49.7663 211.876 49.8232 211.528 49.8729C211.18 49.9226 210.879 49.9652 210.623 50.0007C210.048 50.0788 209.533 50.2067 209.078 50.3842C208.624 50.5618 208.265 50.8104 208.002 51.13C207.739 51.4425 207.608 51.8473 207.608 52.3445C207.608 53.0547 207.867 53.5909 208.386 53.9531C208.904 54.3153 209.565 54.4964 210.367 54.4964ZM220.833 63.1364V40.6364H224.626V43.3423H224.85C225.049 42.9446 225.329 42.522 225.691 42.0746C226.054 41.62 226.544 41.233 227.162 40.9134C227.78 40.5866 228.568 40.4233 229.527 40.4233C230.791 40.4233 231.931 40.7464 232.946 41.3928C233.969 42.032 234.779 42.9801 235.375 44.2372C235.979 45.4872 236.281 47.0213 236.281 48.8395C236.281 50.6364 235.986 52.1634 235.397 53.4205C234.807 54.6776 234.005 55.6364 232.989 56.2969C231.973 56.9574 230.823 57.2876 229.537 57.2876C228.6 57.2876 227.822 57.1314 227.204 56.8189C226.586 56.5064 226.089 56.13 225.713 55.6896C225.343 55.2422 225.056 54.8196 224.85 54.4219H224.69V63.1364H220.833ZM224.615 48.8182C224.615 49.8764 224.765 50.8033 225.063 51.5987C225.368 52.3942 225.805 53.0156 226.373 53.4631C226.949 53.9034 227.645 54.1236 228.461 54.1236C229.314 54.1236 230.027 53.8963 230.603 53.4418C231.178 52.9801 231.611 52.3516 231.902 51.5561C232.201 50.7536 232.35 49.8409 232.35 48.8182C232.35 47.8026 232.204 46.9006 231.913 46.1122C231.622 45.3239 231.189 44.706 230.613 44.2585C230.038 43.8111 229.321 43.5874 228.461 43.5874C227.637 43.5874 226.938 43.804 226.363 44.2372C225.787 44.6705 225.351 45.2777 225.052 46.0589C224.761 46.8402 224.615 47.7599 224.615 48.8182ZM238.704 57V35.1818H252.681V38.495H242.656V44.4183H251.722V47.7315H242.656V57H238.704ZM258.918 35.1818V57H255.062V35.1818H258.918ZM268.972 57.3196C267.374 57.3196 265.989 56.968 264.817 56.2649C263.645 55.5618 262.736 54.5781 262.09 53.3139C261.45 52.0497 261.131 50.5724 261.131 48.8821C261.131 47.1918 261.45 45.7109 262.09 44.4396C262.736 43.1683 263.645 42.1811 264.817 41.478C265.989 40.7749 267.374 40.4233 268.972 40.4233C270.57 40.4233 271.955 40.7749 273.126 41.478C274.298 42.1811 275.204 43.1683 275.843 44.4396C276.489 45.7109 276.813 47.1918 276.813 48.8821C276.813 50.5724 276.489 52.0497 275.843 53.3139C275.204 54.5781 274.298 55.5618 273.126 56.2649C271.955 56.968 270.57 57.3196 268.972 57.3196ZM268.993 54.2301C269.859 54.2301 270.584 53.9922 271.166 53.5163C271.749 53.0334 272.182 52.3871 272.466 51.5774C272.757 50.7678 272.903 49.8658 272.903 48.8714C272.903 47.87 272.757 46.9645 272.466 46.1548C272.182 45.3381 271.749 44.6882 271.166 44.2053C270.584 43.7223 269.859 43.4808 268.993 43.4808C268.105 43.4808 267.367 43.7223 266.777 44.2053C266.195 44.6882 265.758 45.3381 265.467 46.1548C265.183 46.9645 265.041 47.87 265.041 48.8714C265.041 49.8658 265.183 50.7678 265.467 51.5774C265.758 52.3871 266.195 53.0334 266.777 53.5163C267.367 53.9922 268.105 54.2301 268.993 54.2301ZM281.944 57L277.321 40.6364H281.252L284.128 52.142H284.277L287.218 40.6364H291.106L294.046 52.0781H294.206L297.04 40.6364H300.982L296.348 57H292.331L289.263 45.9418H289.039L285.971 57H281.944Z" fill="url(#paint0_linear_1261_1931)"/>
<path d="M167.409 70.1818H168.215L169.829 72.8977H169.897L171.511 70.1818H172.318L170.215 73.6023V76H169.511V73.6023L167.409 70.1818ZM174.014 76.0909C173.62 76.0909 173.274 75.9972 172.977 75.8097C172.681 75.6222 172.45 75.3598 172.283 75.0227C172.119 74.6856 172.036 74.2917 172.036 73.8409C172.036 73.3864 172.119 72.9896 172.283 72.6506C172.45 72.3116 172.681 72.0483 172.977 71.8608C173.274 71.6733 173.62 71.5795 174.014 71.5795C174.407 71.5795 174.752 71.6733 175.048 71.8608C175.345 72.0483 175.576 72.3116 175.741 72.6506C175.907 72.9896 175.991 73.3864 175.991 73.8409C175.991 74.2917 175.907 74.6856 175.741 75.0227C175.576 75.3598 175.345 75.6222 175.048 75.8097C174.752 75.9972 174.407 76.0909 174.014 76.0909ZM174.014 75.4886C174.313 75.4886 174.559 75.4119 174.752 75.2585C174.945 75.1051 175.088 74.9034 175.181 74.6534C175.274 74.4034 175.32 74.1326 175.32 73.8409C175.32 73.5492 175.274 73.2775 175.181 73.0256C175.088 72.7737 174.945 72.5701 174.752 72.4148C174.559 72.2595 174.313 72.1818 174.014 72.1818C173.714 72.1818 173.468 72.2595 173.275 72.4148C173.082 72.5701 172.939 72.7737 172.846 73.0256C172.753 73.2775 172.707 73.5492 172.707 73.8409C172.707 74.1326 172.753 74.4034 172.846 74.6534C172.939 74.9034 173.082 75.1051 173.275 75.2585C173.468 75.4119 173.714 75.4886 174.014 75.4886ZM179.484 74.2159V71.6364H180.155V76H179.484V75.2614H179.439C179.337 75.483 179.177 75.6714 178.962 75.8267C178.746 75.9801 178.473 76.0568 178.143 76.0568C177.871 76.0568 177.628 75.9972 177.416 75.8778C177.204 75.7566 177.037 75.5748 176.916 75.3324C176.795 75.0881 176.734 74.7803 176.734 74.4091V71.6364H177.405V74.3636C177.405 74.6818 177.494 74.9356 177.672 75.125C177.852 75.3144 178.081 75.4091 178.359 75.4091C178.526 75.4091 178.695 75.3665 178.868 75.2812C179.042 75.196 179.188 75.0653 179.305 74.8892C179.425 74.7131 179.484 74.4886 179.484 74.2159ZM181.103 76V71.6364H181.75V72.2955H181.796C181.875 72.0795 182.019 71.9044 182.228 71.7699C182.436 71.6354 182.671 71.5682 182.932 71.5682C182.981 71.5682 183.043 71.5691 183.117 71.571C183.191 71.5729 183.247 71.5758 183.285 71.5795V72.2614C183.262 72.2557 183.21 72.2472 183.128 72.2358C183.049 72.2225 182.964 72.2159 182.875 72.2159C182.663 72.2159 182.474 72.2604 182.307 72.3494C182.142 72.4366 182.012 72.5578 181.915 72.7131C181.821 72.8665 181.773 73.0417 181.773 73.2386V76H181.103ZM186.099 76H185.36L187.497 70.1818H188.224L190.36 76H189.622L187.883 71.1023H187.837L186.099 76ZM186.372 73.7273H189.349V74.3523H186.372V73.7273ZM191.691 70.1818V76H190.986V70.1818H191.691ZM195.032 76H194.294L196.43 70.1818H197.157L199.294 76H198.555L196.816 71.1023H196.771L195.032 76ZM195.305 73.7273H198.282V74.3523H195.305V73.7273ZM201.59 77.7273C201.266 77.7273 200.988 77.6856 200.755 77.6023C200.522 77.5208 200.328 77.4129 200.173 77.2784C200.019 77.1458 199.897 77.0038 199.806 76.8523L200.34 76.4773C200.401 76.5568 200.478 76.6477 200.57 76.75C200.663 76.8542 200.79 76.9441 200.951 77.0199C201.114 77.0975 201.327 77.1364 201.59 77.1364C201.943 77.1364 202.233 77.0511 202.462 76.8807C202.692 76.7102 202.806 76.4432 202.806 76.0795V75.1932H202.749C202.7 75.2727 202.63 75.3712 202.539 75.4886C202.45 75.6042 202.321 75.7074 202.153 75.7983C201.986 75.8873 201.761 75.9318 201.477 75.9318C201.124 75.9318 200.808 75.8485 200.528 75.6818C200.249 75.5152 200.029 75.2727 199.866 74.9545C199.705 74.6364 199.624 74.25 199.624 73.7955C199.624 73.3485 199.703 72.9593 199.86 72.6278C200.017 72.2945 200.236 72.0369 200.516 71.8551C200.797 71.6714 201.121 71.5795 201.488 71.5795C201.772 71.5795 201.998 71.6269 202.164 71.7216C202.333 71.8144 202.462 71.9205 202.551 72.0398C202.641 72.1572 202.712 72.2538 202.761 72.3295H202.829V71.6364H203.477V76.125C203.477 76.5 203.391 76.8049 203.221 77.0398C203.052 77.2765 202.825 77.4498 202.539 77.5597C202.255 77.6714 201.939 77.7273 201.59 77.7273ZM201.568 75.3295C201.837 75.3295 202.064 75.268 202.249 75.1449C202.435 75.0218 202.576 74.8447 202.673 74.6136C202.769 74.3826 202.818 74.1061 202.818 73.7841C202.818 73.4697 202.77 73.1922 202.676 72.9517C202.581 72.7112 202.441 72.5227 202.255 72.3864C202.069 72.25 201.84 72.1818 201.568 72.1818C201.283 72.1818 201.047 72.2538 200.857 72.3977C200.67 72.5417 200.529 72.7348 200.434 72.9773C200.341 73.2197 200.295 73.4886 200.295 73.7841C200.295 74.0871 200.342 74.3551 200.437 74.5881C200.533 74.8191 200.676 75.0009 200.863 75.1335C201.052 75.2642 201.287 75.3295 201.568 75.3295ZM206.253 76.0909C205.833 76.0909 205.47 75.9981 205.165 75.8125C204.862 75.625 204.628 75.3636 204.464 75.0284C204.301 74.6913 204.219 74.2992 204.219 73.8523C204.219 73.4053 204.301 73.0114 204.464 72.6705C204.628 72.3277 204.858 72.0606 205.151 71.8693C205.447 71.6761 205.791 71.5795 206.185 71.5795C206.413 71.5795 206.637 71.6174 206.859 71.6932C207.08 71.7689 207.282 71.892 207.464 72.0625C207.646 72.2311 207.79 72.4545 207.898 72.733C208.006 73.0114 208.06 73.3542 208.06 73.7614V74.0455H204.697V73.4659H207.378C207.378 73.2197 207.329 73 207.231 72.8068C207.134 72.6136 206.996 72.4612 206.816 72.3494C206.638 72.2377 206.428 72.1818 206.185 72.1818C205.918 72.1818 205.687 72.2481 205.492 72.3807C205.299 72.5114 205.15 72.6818 205.046 72.892C204.942 73.1023 204.89 73.3277 204.89 73.5682V73.9545C204.89 74.2841 204.947 74.5634 205.06 74.7926C205.176 75.0199 205.336 75.1932 205.54 75.3125C205.745 75.4299 205.983 75.4886 206.253 75.4886C206.43 75.4886 206.589 75.464 206.731 75.4148C206.875 75.3636 206.999 75.2879 207.103 75.1875C207.207 75.0852 207.288 74.9583 207.344 74.8068L207.992 74.9886C207.924 75.2083 207.809 75.4015 207.648 75.5682C207.487 75.733 207.289 75.8617 207.052 75.9545C206.815 76.0455 206.549 76.0909 206.253 76.0909ZM209.471 73.375V76H208.8V71.6364H209.448V72.3182H209.505C209.607 72.0966 209.762 71.9186 209.971 71.7841C210.179 71.6477 210.448 71.5795 210.777 71.5795C211.073 71.5795 211.331 71.6402 211.553 71.7614C211.775 71.8807 211.947 72.0625 212.07 72.3068C212.193 72.5492 212.255 72.8561 212.255 73.2273V76H211.584V73.2727C211.584 72.9299 211.495 72.6629 211.317 72.4716C211.139 72.2784 210.895 72.1818 210.584 72.1818C210.37 72.1818 210.179 72.2282 210.01 72.321C209.844 72.4138 209.712 72.5492 209.616 72.7273C209.519 72.9053 209.471 73.1212 209.471 73.375ZM215.098 71.6364V72.2045H212.836V71.6364H215.098ZM213.495 70.5909H214.166V74.75C214.166 74.9394 214.193 75.0814 214.248 75.1761C214.305 75.2689 214.377 75.3314 214.464 75.3636C214.553 75.3939 214.647 75.4091 214.745 75.4091C214.819 75.4091 214.88 75.4053 214.927 75.3977C214.975 75.3883 215.012 75.3807 215.041 75.375L215.177 75.9773C215.132 75.9943 215.068 76.0114 214.987 76.0284C214.905 76.0473 214.802 76.0568 214.677 76.0568C214.488 76.0568 214.302 76.0161 214.12 75.9347C213.94 75.8532 213.791 75.7292 213.671 75.5625C213.554 75.3958 213.495 75.1856 213.495 74.9318V70.5909ZM219.694 71.6364V72.2045H217.433V71.6364H219.694ZM218.092 70.5909H218.762V74.75C218.762 74.9394 218.79 75.0814 218.844 75.1761C218.901 75.2689 218.973 75.3314 219.06 75.3636C219.149 75.3939 219.243 75.4091 219.342 75.4091C219.415 75.4091 219.476 75.4053 219.523 75.3977C219.571 75.3883 219.609 75.3807 219.637 75.375L219.773 75.9773C219.728 75.9943 219.665 76.0114 219.583 76.0284C219.502 76.0473 219.398 76.0568 219.273 76.0568C219.084 76.0568 218.898 76.0161 218.717 75.9347C218.537 75.8532 218.387 75.7292 218.268 75.5625C218.15 75.3958 218.092 75.1856 218.092 74.9318V70.5909ZM222.148 76.0909C221.754 76.0909 221.409 75.9972 221.111 75.8097C220.816 75.6222 220.585 75.3598 220.418 75.0227C220.253 74.6856 220.171 74.2917 220.171 73.8409C220.171 73.3864 220.253 72.9896 220.418 72.6506C220.585 72.3116 220.816 72.0483 221.111 71.8608C221.409 71.6733 221.754 71.5795 222.148 71.5795C222.542 71.5795 222.887 71.6733 223.182 71.8608C223.48 72.0483 223.711 72.3116 223.876 72.6506C224.042 72.9896 224.126 73.3864 224.126 73.8409C224.126 74.2917 224.042 74.6856 223.876 75.0227C223.711 75.3598 223.48 75.6222 223.182 75.8097C222.887 75.9972 222.542 76.0909 222.148 76.0909ZM222.148 75.4886C222.447 75.4886 222.694 75.4119 222.887 75.2585C223.08 75.1051 223.223 74.9034 223.316 74.6534C223.409 74.4034 223.455 74.1326 223.455 73.8409C223.455 73.5492 223.409 73.2775 223.316 73.0256C223.223 72.7737 223.08 72.5701 222.887 72.4148C222.694 72.2595 222.447 72.1818 222.148 72.1818C221.849 72.1818 221.603 72.2595 221.41 72.4148C221.216 72.5701 221.073 72.7737 220.981 73.0256C220.888 73.2775 220.841 73.5492 220.841 73.8409C220.841 74.1326 220.888 74.4034 220.981 74.6534C221.073 74.9034 221.216 75.1051 221.41 75.2585C221.603 75.4119 221.849 75.4886 222.148 75.4886ZM229.93 72.6136L229.328 72.7841C229.29 72.6837 229.234 72.5862 229.16 72.4915C229.088 72.3949 228.99 72.3153 228.865 72.2528C228.74 72.1903 228.579 72.1591 228.384 72.1591C228.117 72.1591 227.895 72.2206 227.717 72.3438C227.541 72.465 227.453 72.6193 227.453 72.8068C227.453 72.9735 227.513 73.1051 227.634 73.2017C227.756 73.2983 227.945 73.3788 228.203 73.4432L228.85 73.6023C229.24 73.697 229.531 73.8419 229.722 74.0369C229.914 74.2301 230.009 74.4792 230.009 74.7841C230.009 75.0341 229.937 75.2576 229.793 75.4545C229.651 75.6515 229.453 75.8068 229.197 75.9205C228.941 76.0341 228.644 76.0909 228.305 76.0909C227.86 76.0909 227.491 75.9943 227.2 75.8011C226.908 75.608 226.723 75.3258 226.646 74.9545L227.282 74.7955C227.343 75.0303 227.457 75.2064 227.626 75.3239C227.796 75.4413 228.019 75.5 228.293 75.5C228.606 75.5 228.854 75.4337 229.038 75.3011C229.223 75.1667 229.316 75.0057 229.316 74.8182C229.316 74.6667 229.263 74.5398 229.157 74.4375C229.051 74.3333 228.888 74.2557 228.668 74.2045L227.941 74.0341C227.542 73.9394 227.248 73.7926 227.061 73.5938C226.875 73.393 226.782 73.142 226.782 72.8409C226.782 72.5947 226.851 72.3769 226.99 72.1875C227.13 71.9981 227.32 71.8494 227.561 71.7415C227.803 71.6335 228.078 71.5795 228.384 71.5795C228.816 71.5795 229.155 71.6742 229.401 71.8636C229.65 72.053 229.826 72.303 229.93 72.6136ZM233.489 74.2159V71.6364H234.159V76H233.489V75.2614H233.443C233.341 75.483 233.182 75.6714 232.966 75.8267C232.75 75.9801 232.477 76.0568 232.148 76.0568C231.875 76.0568 231.633 75.9972 231.42 75.8778C231.208 75.7566 231.042 75.5748 230.92 75.3324C230.799 75.0881 230.739 74.7803 230.739 74.4091V71.6364H231.409V74.3636C231.409 74.6818 231.498 74.9356 231.676 75.125C231.856 75.3144 232.085 75.4091 232.364 75.4091C232.53 75.4091 232.7 75.3665 232.872 75.2812C233.046 75.196 233.192 75.0653 233.31 74.8892C233.429 74.7131 233.489 74.4886 233.489 74.2159ZM235.107 77.6364V71.6364H235.755V72.3295H235.834C235.884 72.2538 235.952 72.1572 236.039 72.0398C236.128 71.9205 236.255 71.8144 236.42 71.7216C236.586 71.6269 236.812 71.5795 237.096 71.5795C237.463 71.5795 237.787 71.6714 238.067 71.8551C238.348 72.0388 238.566 72.2992 238.724 72.6364C238.881 72.9735 238.959 73.3712 238.959 73.8295C238.959 74.2917 238.881 74.6922 238.724 75.0312C238.566 75.3684 238.349 75.6297 238.07 75.8153C237.792 75.9991 237.471 76.0909 237.107 76.0909C236.827 76.0909 236.602 76.0445 236.434 75.9517C236.265 75.857 236.135 75.75 236.045 75.6307C235.954 75.5095 235.884 75.4091 235.834 75.3295H235.778V77.6364H235.107ZM235.766 73.8182C235.766 74.1477 235.814 74.4384 235.911 74.6903C236.008 74.9403 236.149 75.1364 236.334 75.2784C236.52 75.4186 236.747 75.4886 237.016 75.4886C237.296 75.4886 237.53 75.4148 237.718 75.267C237.907 75.1174 238.049 74.9167 238.144 74.6648C238.241 74.411 238.289 74.1288 238.289 73.8182C238.289 73.5114 238.242 73.2348 238.147 72.9886C238.054 72.7405 237.913 72.5445 237.724 72.4006C237.536 72.2547 237.3 72.1818 237.016 72.1818C236.743 72.1818 236.514 72.2509 236.329 72.3892C236.143 72.5256 236.003 72.7169 235.908 72.9631C235.814 73.2074 235.766 73.4924 235.766 73.8182ZM241.532 76.0909C241.111 76.0909 240.748 75.9981 240.444 75.8125C240.141 75.625 239.907 75.3636 239.742 75.0284C239.579 74.6913 239.498 74.2992 239.498 73.8523C239.498 73.4053 239.579 73.0114 239.742 72.6705C239.907 72.3277 240.136 72.0606 240.429 71.8693C240.725 71.6761 241.07 71.5795 241.463 71.5795C241.691 71.5795 241.915 71.6174 242.137 71.6932C242.358 71.7689 242.56 71.892 242.742 72.0625C242.924 72.2311 243.069 72.4545 243.177 72.733C243.284 73.0114 243.338 73.3542 243.338 73.7614V74.0455H239.975V73.4659H242.657C242.657 73.2197 242.607 73 242.509 72.8068C242.412 72.6136 242.274 72.4612 242.094 72.3494C241.916 72.2377 241.706 72.1818 241.463 72.1818C241.196 72.1818 240.965 72.2481 240.77 72.3807C240.577 72.5114 240.428 72.6818 240.324 72.892C240.22 73.1023 240.168 73.3277 240.168 73.5682V73.9545C240.168 74.2841 240.225 74.5634 240.338 74.7926C240.454 75.0199 240.614 75.1932 240.819 75.3125C241.023 75.4299 241.261 75.4886 241.532 75.4886C241.708 75.4886 241.867 75.464 242.009 75.4148C242.153 75.3636 242.277 75.2879 242.381 75.1875C242.485 75.0852 242.566 74.9583 242.623 74.8068L243.27 74.9886C243.202 75.2083 243.087 75.4015 242.927 75.5682C242.766 75.733 242.567 75.8617 242.33 75.9545C242.093 76.0455 241.827 76.0909 241.532 76.0909ZM244.078 76V71.6364H244.726V72.2955H244.772C244.851 72.0795 244.995 71.9044 245.203 71.7699C245.412 71.6354 245.647 71.5682 245.908 71.5682C245.957 71.5682 246.019 71.5691 246.093 71.571C246.166 71.5729 246.222 71.5758 246.26 71.5795V72.2614C246.237 72.2557 246.185 72.2472 246.104 72.2358C246.024 72.2225 245.94 72.2159 245.851 72.2159C245.639 72.2159 245.45 72.2604 245.283 72.3494C245.118 72.4366 244.987 72.5578 244.891 72.7131C244.796 72.8665 244.749 73.0417 244.749 73.2386V76H244.078ZM248.415 76.0909C248.006 76.0909 247.653 75.9943 247.358 75.8011C247.063 75.608 246.835 75.3419 246.676 75.0028C246.517 74.6638 246.438 74.2765 246.438 73.8409C246.438 73.3977 246.519 73.0066 246.682 72.6676C246.847 72.3267 247.076 72.0606 247.369 71.8693C247.665 71.6761 248.009 71.5795 248.403 71.5795C248.71 71.5795 248.987 71.6364 249.233 71.75C249.479 71.8636 249.681 72.0227 249.838 72.2273C249.995 72.4318 250.093 72.6705 250.131 72.9432H249.46C249.409 72.7443 249.295 72.5682 249.119 72.4148C248.945 72.2595 248.71 72.1818 248.415 72.1818C248.153 72.1818 247.924 72.25 247.727 72.3864C247.532 72.5208 247.38 72.7112 247.27 72.9574C247.162 73.2017 247.108 73.4886 247.108 73.8182C247.108 74.1553 247.161 74.4489 247.267 74.6989C247.375 74.9489 247.527 75.143 247.722 75.2812C247.919 75.4195 248.15 75.4886 248.415 75.4886C248.589 75.4886 248.747 75.4583 248.889 75.3977C249.031 75.3371 249.152 75.25 249.25 75.1364C249.349 75.0227 249.419 74.8864 249.46 74.7273H250.131C250.093 74.9848 249.999 75.2169 249.849 75.4233C249.702 75.6278 249.506 75.7907 249.261 75.9119C249.019 76.0312 248.737 76.0909 248.415 76.0909ZM251.501 73.375V76H250.831V70.1818H251.501V72.3182H251.558C251.66 72.0928 251.814 71.9138 252.018 71.7812C252.225 71.6468 252.499 71.5795 252.842 71.5795C253.14 71.5795 253.4 71.6392 253.623 71.7585C253.847 71.8759 254.02 72.0568 254.143 72.3011C254.268 72.5436 254.331 72.8523 254.331 73.2273V76H253.66V73.2727C253.66 72.9261 253.57 72.6581 253.39 72.4688C253.212 72.2775 252.965 72.1818 252.649 72.1818C252.429 72.1818 252.232 72.2282 252.058 72.321C251.886 72.4138 251.749 72.5492 251.649 72.7273C251.551 72.9053 251.501 73.1212 251.501 73.375ZM256.561 76.1023C256.285 76.1023 256.034 76.0502 255.809 75.946C255.583 75.84 255.404 75.6875 255.272 75.4886C255.139 75.2879 255.073 75.0455 255.073 74.7614C255.073 74.5114 255.122 74.3087 255.221 74.1534C255.319 73.9962 255.451 73.8731 255.615 73.7841C255.78 73.6951 255.962 73.6288 256.161 73.5852C256.362 73.5398 256.563 73.5038 256.766 73.4773C257.031 73.4432 257.246 73.4176 257.411 73.4006C257.578 73.3816 257.699 73.3504 257.775 73.3068C257.852 73.2633 257.891 73.1875 257.891 73.0795V73.0568C257.891 72.7765 257.814 72.5587 257.661 72.4034C257.509 72.2481 257.279 72.1705 256.971 72.1705C256.65 72.1705 256.4 72.2405 256.218 72.3807C256.036 72.5208 255.908 72.6705 255.834 72.8295L255.198 72.6023C255.311 72.3371 255.463 72.1307 255.652 71.983C255.844 71.8333 256.052 71.7292 256.277 71.6705C256.505 71.6098 256.728 71.5795 256.948 71.5795C257.088 71.5795 257.249 71.5966 257.431 71.6307C257.615 71.6629 257.792 71.7301 257.962 71.8324C258.134 71.9347 258.277 72.089 258.391 72.2955C258.505 72.5019 258.561 72.7784 258.561 73.125V76H257.891V75.4091H257.857C257.811 75.5038 257.736 75.6051 257.63 75.7131C257.524 75.821 257.382 75.9129 257.206 75.9886C257.03 76.0644 256.815 76.1023 256.561 76.1023ZM256.664 75.5C256.929 75.5 257.152 75.4479 257.334 75.3438C257.518 75.2396 257.656 75.1051 257.749 74.9403C257.844 74.7756 257.891 74.6023 257.891 74.4205V73.8068C257.863 73.8409 257.8 73.8722 257.704 73.9006C257.609 73.9271 257.499 73.9508 257.374 73.9716C257.251 73.9905 257.131 74.0076 257.013 74.0227C256.898 74.036 256.804 74.0473 256.732 74.0568C256.558 74.0795 256.395 74.1165 256.243 74.1676C256.094 74.2169 255.972 74.2917 255.88 74.392C255.789 74.4905 255.743 74.625 255.743 74.7955C255.743 75.0284 255.829 75.2045 256.002 75.3239C256.176 75.4413 256.397 75.5 256.664 75.5ZM259.505 76V71.6364H260.153V72.2955H260.198C260.278 72.0795 260.422 71.9044 260.63 71.7699C260.839 71.6354 261.073 71.5682 261.335 71.5682C261.384 71.5682 261.446 71.5691 261.519 71.571C261.593 71.5729 261.649 71.5758 261.687 71.5795V72.2614C261.664 72.2557 261.612 72.2472 261.531 72.2358C261.451 72.2225 261.367 72.2159 261.278 72.2159C261.066 72.2159 260.876 72.2604 260.71 72.3494C260.545 72.4366 260.414 72.5578 260.318 72.7131C260.223 72.8665 260.176 73.0417 260.176 73.2386V76H259.505ZM263.83 77.7273C263.506 77.7273 263.228 77.6856 262.995 77.6023C262.762 77.5208 262.568 77.4129 262.413 77.2784C262.259 77.1458 262.137 77.0038 262.046 76.8523L262.58 76.4773C262.641 76.5568 262.718 76.6477 262.81 76.75C262.903 76.8542 263.03 76.9441 263.191 77.0199C263.354 77.0975 263.567 77.1364 263.83 77.1364C264.183 77.1364 264.473 77.0511 264.702 76.8807C264.932 76.7102 265.046 76.4432 265.046 76.0795V75.1932H264.989C264.94 75.2727 264.87 75.3712 264.779 75.4886C264.69 75.6042 264.561 75.7074 264.393 75.7983C264.226 75.8873 264.001 75.9318 263.717 75.9318C263.364 75.9318 263.048 75.8485 262.768 75.6818C262.489 75.5152 262.269 75.2727 262.106 74.9545C261.945 74.6364 261.864 74.25 261.864 73.7955C261.864 73.3485 261.943 72.9593 262.1 72.6278C262.257 72.2945 262.476 72.0369 262.756 71.8551C263.037 71.6714 263.361 71.5795 263.728 71.5795C264.012 71.5795 264.238 71.6269 264.404 71.7216C264.573 71.8144 264.702 71.9205 264.791 72.0398C264.881 72.1572 264.952 72.2538 265.001 72.3295H265.069V71.6364H265.717V76.125C265.717 76.5 265.631 76.8049 265.461 77.0398C265.292 77.2765 265.065 77.4498 264.779 77.5597C264.495 77.6714 264.179 77.7273 263.83 77.7273ZM263.808 75.3295C264.077 75.3295 264.304 75.268 264.489 75.1449C264.675 75.0218 264.816 74.8447 264.913 74.6136C265.009 74.3826 265.058 74.1061 265.058 73.7841C265.058 73.4697 265.01 73.1922 264.916 72.9517C264.821 72.7112 264.681 72.5227 264.495 72.3864C264.309 72.25 264.08 72.1818 263.808 72.1818C263.523 72.1818 263.287 72.2538 263.097 72.3977C262.91 72.5417 262.769 72.7348 262.674 72.9773C262.581 73.2197 262.535 73.4886 262.535 73.7841C262.535 74.0871 262.582 74.3551 262.677 74.5881C262.773 74.8191 262.916 75.0009 263.103 75.1335C263.292 75.2642 263.527 75.3295 263.808 75.3295ZM268.493 76.0909C268.073 76.0909 267.71 75.9981 267.405 75.8125C267.102 75.625 266.868 75.3636 266.704 75.0284C266.541 74.6913 266.459 74.2992 266.459 73.8523C266.459 73.4053 266.541 73.0114 266.704 72.6705C266.868 72.3277 267.098 72.0606 267.391 71.8693C267.687 71.6761 268.031 71.5795 268.425 71.5795C268.653 71.5795 268.877 71.6174 269.099 71.6932C269.32 71.7689 269.522 71.892 269.704 72.0625C269.886 72.2311 270.03 72.4545 270.138 72.733C270.246 73.0114 270.3 73.3542 270.3 73.7614V74.0455H266.937V73.4659H269.618C269.618 73.2197 269.569 73 269.471 72.8068C269.374 72.6136 269.236 72.4612 269.056 72.3494C268.878 72.2377 268.668 72.1818 268.425 72.1818C268.158 72.1818 267.927 72.2481 267.732 72.3807C267.539 72.5114 267.39 72.6818 267.286 72.892C267.182 73.1023 267.13 73.3277 267.13 73.5682V73.9545C267.13 74.2841 267.187 74.5634 267.3 74.7926C267.416 75.0199 267.576 75.1932 267.78 75.3125C267.985 75.4299 268.223 75.4886 268.493 75.4886C268.67 75.4886 268.829 75.464 268.971 75.4148C269.115 75.3636 269.239 75.2879 269.343 75.1875C269.447 75.0852 269.528 74.9583 269.584 74.8068L270.232 74.9886C270.164 75.2083 270.049 75.4015 269.888 75.5682C269.727 75.733 269.529 75.8617 269.292 75.9545C269.055 76.0455 268.789 76.0909 268.493 76.0909ZM273.999 76L272.669 71.6364H273.374L274.317 74.9773H274.362L275.294 71.6364H276.01L276.931 74.9659H276.976L277.919 71.6364H278.624L277.294 76H276.635L275.681 72.6477H275.612L274.658 76H273.999ZM280.854 76.0909C280.461 76.0909 280.115 75.9972 279.818 75.8097C279.522 75.6222 279.291 75.3598 279.124 75.0227C278.96 74.6856 278.877 74.2917 278.877 73.8409C278.877 73.3864 278.96 72.9896 279.124 72.6506C279.291 72.3116 279.522 72.0483 279.818 71.8608C280.115 71.6733 280.461 71.5795 280.854 71.5795C281.248 71.5795 281.593 71.6733 281.889 71.8608C282.186 72.0483 282.417 72.3116 282.582 72.6506C282.748 72.9896 282.832 73.3864 282.832 73.8409C282.832 74.2917 282.748 74.6856 282.582 75.0227C282.417 75.3598 282.186 75.6222 281.889 75.8097C281.593 75.9972 281.248 76.0909 280.854 76.0909ZM280.854 75.4886C281.154 75.4886 281.4 75.4119 281.593 75.2585C281.786 75.1051 281.929 74.9034 282.022 74.6534C282.115 74.4034 282.161 74.1326 282.161 73.8409C282.161 73.5492 282.115 73.2775 282.022 73.0256C281.929 72.7737 281.786 72.5701 281.593 72.4148C281.4 72.2595 281.154 72.1818 280.854 72.1818C280.555 72.1818 280.309 72.2595 280.116 72.4148C279.923 72.5701 279.78 72.7737 279.687 73.0256C279.594 73.2775 279.548 73.5492 279.548 73.8409C279.548 74.1326 279.594 74.4034 279.687 74.6534C279.78 74.9034 279.923 75.1051 280.116 75.2585C280.309 75.4119 280.555 75.4886 280.854 75.4886ZM283.575 76V71.6364H284.223V72.2955H284.268C284.348 72.0795 284.492 71.9044 284.7 71.7699C284.909 71.6354 285.143 71.5682 285.405 71.5682C285.454 71.5682 285.516 71.5691 285.589 71.571C285.663 71.5729 285.719 71.5758 285.757 71.5795V72.2614C285.734 72.2557 285.682 72.2472 285.601 72.2358C285.521 72.2225 285.437 72.2159 285.348 72.2159C285.136 72.2159 284.946 72.2604 284.78 72.3494C284.615 72.4366 284.484 72.5578 284.388 72.7131C284.293 72.8665 284.246 73.0417 284.246 73.2386V76H283.575ZM286.897 74.4091L286.885 73.5795H287.022L288.931 71.6364H289.76L287.726 73.6932H287.669L286.897 74.4091ZM286.272 76V70.1818H286.942V76H286.272ZM289.044 76L287.34 73.8409L287.817 73.375L289.897 76H289.044ZM292.287 71.6364V72.2045H289.934V71.6364H292.287ZM290.639 76V71.0341C290.639 70.7841 290.697 70.5758 290.815 70.4091C290.932 70.2424 291.085 70.1174 291.272 70.0341C291.46 69.9508 291.658 69.9091 291.866 69.9091C292.031 69.9091 292.165 69.9223 292.269 69.9489C292.374 69.9754 292.451 70 292.502 70.0227L292.309 70.6023C292.275 70.5909 292.228 70.5767 292.167 70.5597C292.108 70.5426 292.031 70.5341 291.934 70.5341C291.713 70.5341 291.553 70.59 291.454 70.7017C291.358 70.8134 291.309 70.9773 291.309 71.1932V76H290.639ZM293.617 70.1818V76H292.946V70.1818H293.617ZM296.337 76.0909C295.943 76.0909 295.598 75.9972 295.3 75.8097C295.005 75.6222 294.774 75.3598 294.607 75.0227C294.442 74.6856 294.36 74.2917 294.36 73.8409C294.36 73.3864 294.442 72.9896 294.607 72.6506C294.774 72.3116 295.005 72.0483 295.3 71.8608C295.598 71.6733 295.943 71.5795 296.337 71.5795C296.731 71.5795 297.076 71.6733 297.371 71.8608C297.669 72.0483 297.9 72.3116 298.065 72.6506C298.231 72.9896 298.315 73.3864 298.315 73.8409C298.315 74.2917 298.231 74.6856 298.065 75.0227C297.9 75.3598 297.669 75.6222 297.371 75.8097C297.076 75.9972 296.731 76.0909 296.337 76.0909ZM296.337 75.4886C296.637 75.4886 296.883 75.4119 297.076 75.2585C297.269 75.1051 297.412 74.9034 297.505 74.6534C297.598 74.4034 297.644 74.1326 297.644 73.8409C297.644 73.5492 297.598 73.2775 297.505 73.0256C297.412 72.7737 297.269 72.5701 297.076 72.4148C296.883 72.2595 296.637 72.1818 296.337 72.1818C296.038 72.1818 295.792 72.2595 295.599 72.4148C295.405 72.5701 295.262 72.7737 295.17 73.0256C295.077 73.2775 295.03 73.5492 295.03 73.8409C295.03 74.1326 295.077 74.4034 295.17 74.6534C295.262 74.9034 295.405 75.1051 295.599 75.2585C295.792 75.4119 296.038 75.4886 296.337 75.4886ZM299.898 76L298.569 71.6364H299.273L300.216 74.9773H300.262L301.194 71.6364H301.91L302.83 74.9659H302.875L303.819 71.6364H304.523L303.194 76H302.535L301.58 72.6477H301.512L300.557 76H299.898Z" fill="#737373"/>
<g clip-path="url(#clip1_1261_1931)">
<path d="M80.8491 115.66C117.698 147.83 239.358 230.887 392.019 115.66" stroke="#E1E1E1" stroke-width="1.16981"/>
<path d="M391.434 265.457C354.585 233.287 232.924 150.231 80.264 265.457" stroke="#E1E1E1" stroke-width="1.75472"/>
<rect x="83.7734" y="191.113" width="304.151" height="1.16981" fill="#E1E1E1"/>
<g filter="url(#filter0_d_1261_1931)">
<circle cx="61.5467" cy="101.038" r="21.5914" fill="white" stroke="#E1E1E1" stroke-width="1.27008"/>
<path d="M61.9142 91.3507C59.2475 91.3507 56.69 92.41 54.8044 94.2957C52.9187 96.1813 51.8594 98.7388 51.8594 101.406C51.8594 104.072 52.9187 106.63 54.8044 108.515C56.69 110.401 59.2475 111.46 61.9142 111.46C64.5809 111.46 67.1383 110.401 69.024 108.515C70.9096 106.63 71.969 104.072 71.969 101.406C71.969 98.7388 70.9096 96.1813 69.024 94.2957C67.1383 92.41 64.5809 91.3507 61.9142 91.3507Z" fill="#0288D1"/>
<path d="M56.8872 98.8919H58.8982V106.433H56.8872V98.8919ZM57.8867 97.8864H57.8756C57.2753 97.8864 56.8872 97.4389 56.8872 96.8804C56.8872 96.3098 57.2874 95.8754 57.8982 95.8754C58.5101 95.8754 58.8866 96.3098 58.8982 96.8804C58.8982 97.4389 58.5101 97.8864 57.8867 97.8864ZM67.4447 101.657C67.4447 100.13 66.207 98.8919 64.6797 98.8919C63.7436 98.8919 62.9176 99.3584 62.4173 100.07V98.8919H60.4064V106.433H62.4173V102.411C62.4173 101.578 63.0925 100.903 63.9256 100.903C64.7586 100.903 65.4338 101.578 65.4338 102.411V106.433H67.4447C67.4447 106.433 67.4447 101.869 67.4447 101.657Z" fill="white"/>
</g>
<g filter="url(#filter1_d_1261_1931)">
<circle cx="410.151" cy="99.8679" r="21.5914" fill="white" stroke="#E1E1E1" stroke-width="1.27008"/>
<path d="M410.518 90.1808C407.851 90.1808 405.294 91.2402 403.408 93.1258C401.523 95.0115 400.463 97.5689 400.463 100.236C400.463 102.902 401.523 105.46 403.408 107.345C405.294 109.231 407.851 110.29 410.518 110.29C413.185 110.29 415.742 109.231 417.628 107.345C419.514 105.46 420.573 102.902 420.573 100.236C420.573 97.5689 419.514 95.0115 417.628 93.1258C415.742 91.2402 413.185 90.1808 410.518 90.1808Z" fill="#0288D1"/>
<path d="M405.491 97.722H407.502V105.263H405.491V97.722ZM406.49 96.7165H406.479C405.879 96.7165 405.491 96.2691 405.491 95.7105C405.491 95.1399 405.891 94.7056 406.502 94.7056C407.114 94.7056 407.49 95.1399 407.502 95.7105C407.502 96.2691 407.114 96.7165 406.49 96.7165ZM416.048 100.487C416.048 98.9598 414.811 97.722 413.283 97.722C412.347 97.722 411.521 98.1885 411.021 98.9004V97.722H409.01V105.263H411.021V101.241C411.021 100.408 411.696 99.733 412.529 99.733C413.362 99.733 414.037 100.408 414.037 101.241V105.263H416.048C416.048 105.263 416.048 100.699 416.048 100.487Z" fill="white"/>
<circle cx="410.075" cy="100.434" r="12.8604" fill="#FF5B35"/>
<g clip-path="url(#clip2_1261_1931)">
<path d="M414.109 97.8381V95.9502C414.359 95.8336 414.57 95.6485 414.718 95.4166C414.867 95.1846 414.946 94.9152 414.947 94.6398V94.5965C414.947 93.7936 414.296 93.1427 413.494 93.1427H413.45C412.647 93.1427 411.996 93.7936 411.996 94.5965V94.6398C411.998 94.9152 412.077 95.1846 412.225 95.4166C412.374 95.6485 412.585 95.8336 412.835 95.9502V97.8381C412.118 97.9479 411.442 98.2452 410.877 98.6999L405.699 94.6671C405.736 94.5338 405.756 94.3968 405.758 94.2592C405.758 93.9352 405.663 93.6183 405.484 93.3485C405.304 93.0788 405.049 92.8684 404.749 92.7438C404.45 92.6193 404.121 92.5863 403.803 92.649C403.485 92.7116 403.193 92.8672 402.964 93.0959C402.734 93.3246 402.578 93.6163 402.514 93.934C402.45 94.2517 402.482 94.5811 402.606 94.8806C402.729 95.1801 402.939 95.4363 403.208 95.6167C403.477 95.797 403.794 95.8935 404.118 95.894C404.401 95.8926 404.679 95.8169 404.924 95.6745L410.023 99.6419C409.086 101.058 409.111 102.903 410.086 104.293L408.535 105.845C408.41 105.804 408.279 105.783 408.148 105.781C407.405 105.782 406.804 106.384 406.804 107.127C406.804 107.87 407.406 108.471 408.148 108.472C408.891 108.472 409.493 107.87 409.494 107.128C409.492 106.996 409.471 106.865 409.431 106.74L410.965 105.205C412.336 106.261 414.218 106.352 415.684 105.433C417.15 104.515 417.89 102.782 417.539 101.088C417.187 99.394 415.819 98.0977 414.109 97.8381ZM413.473 104.047C413.19 104.055 412.908 104.006 412.644 103.902C412.38 103.799 412.139 103.644 411.936 103.446C411.733 103.249 411.571 103.012 411.461 102.751C411.351 102.49 411.294 102.209 411.294 101.926C411.294 101.642 411.351 101.361 411.461 101.1C411.571 100.839 411.733 100.603 411.936 100.405C412.139 100.207 412.38 100.052 412.644 99.9489C412.908 99.8457 413.19 99.7964 413.473 99.8041C414.615 99.8441 415.521 100.781 415.521 101.924C415.522 103.067 414.617 104.005 413.475 104.046" fill="#FCFEFF"/>
</g>
</g>
<circle cx="235.849" cy="189.943" r="30.6824" fill="white" stroke="#E1E1E1" stroke-width="1.80485"/>
<path d="M237.044 193.276L236.228 193.276C236.123 193.276 236.031 193.204 236.007 193.102C235.997 193.061 235.999 193.019 236.012 192.979L236.964 190.043C240.693 187.113 246.303 184.477 248.357 184.937L248.557 192.991L237.044 193.276Z" fill="#2F6C56"/>
<path d="M227.142 175.68H235.368L235.255 189.693L226.007 198.997C222.206 201.834 216.533 204.33 214.491 203.819V195.763H226.007H226.172C226.463 195.763 226.738 195.632 226.923 195.407C227.065 195.234 227.142 195.017 227.142 194.793V194.345V175.68Z" fill="#2F6C56"/>
<path d="M243.367 203.659L235.141 203.659L235.254 189.646L244.502 180.342C248.303 177.505 253.976 175.009 256.019 175.519L256.019 183.575L244.502 183.575L244.338 183.575C244.047 183.575 243.771 183.706 243.587 183.931C243.445 184.105 243.367 184.322 243.367 184.546L243.367 184.994L243.367 203.659Z" fill="#2F6C56"/>
<g filter="url(#filter2_d_1261_1931)">
<circle cx="61.5467" cy="191.113" r="21.5914" fill="white" stroke="#E1E1E1" stroke-width="1.27008"/>
<path fill-rule="evenodd" clip-rule="evenodd" d="M55.4807 184.825C56.0812 185.313 56.3064 185.276 57.4343 185.2L68.0659 184.562C68.2916 184.562 68.1039 184.337 68.0289 184.299L66.2634 183.023C65.9252 182.76 65.4743 182.459 64.6106 182.535L54.3163 183.285C53.9409 183.322 53.8659 183.51 54.0155 183.66L55.4807 184.825Z" fill="white"/>
<path fill-rule="evenodd" clip-rule="evenodd" d="M56.1182 187.303V198.489C56.1182 199.09 56.4184 199.315 57.095 199.278L68.7789 198.602C69.4555 198.565 69.531 198.151 69.531 197.663V186.551C69.531 186.064 69.3434 185.801 68.9295 185.838L56.7196 186.551C56.2688 186.589 56.1182 186.815 56.1182 187.303Z" fill="white"/>
<path fill-rule="evenodd" clip-rule="evenodd" d="M55.4802 184.825C56.0807 185.313 56.3059 185.276 57.4338 185.2L68.0654 184.562C68.2911 184.562 68.1034 184.337 68.0284 184.299L66.2629 183.023C65.9247 182.76 65.4738 182.459 64.6101 182.534L54.3158 183.285C53.9404 183.322 53.8654 183.51 54.015 183.66L55.4802 184.825ZM56.1182 187.302V198.489C56.1182 199.09 56.4185 199.315 57.095 199.278L68.779 198.602C69.4555 198.565 69.5311 198.151 69.5311 197.663V186.551C69.5311 186.064 69.3434 185.801 68.9296 185.838L56.7197 186.551C56.2688 186.589 56.1182 186.814 56.1182 187.302ZM67.6526 187.902C67.7276 188.241 67.6526 188.578 67.3138 188.616L66.7508 188.729V196.987C66.2619 197.25 65.8111 197.4 65.4358 197.4C64.8343 197.4 64.6837 197.212 64.2333 196.649L60.5508 190.868V196.462L61.7163 196.724C61.7163 196.724 61.7163 197.4 60.776 197.4L58.1844 197.55C58.1093 197.4 58.1844 197.024 58.4471 196.949L59.1237 196.762V189.367L58.1844 189.292C58.1089 188.954 58.2965 188.466 58.8229 188.428L61.6032 188.241L65.4353 194.097V188.916L64.458 188.804C64.3829 188.391 64.6832 188.091 65.059 188.054L67.6526 187.902ZM53.4506 182.272L64.1582 181.484C65.4733 181.371 65.8116 181.447 66.6378 182.047L70.056 184.449C70.62 184.862 70.8081 184.975 70.8081 185.425V198.601C70.8081 199.427 70.5074 199.915 69.4555 199.989L57.0205 200.741C56.2308 200.778 55.855 200.666 55.4417 200.14L52.9247 196.874C52.4738 196.273 52.2861 195.823 52.2861 195.298V183.585C52.2861 182.91 52.5869 182.347 53.4506 182.272Z" fill="#424242"/>
</g>
<g filter="url(#filter3_d_1261_1931)">
<circle cx="410.151" cy="189.943" r="21.5914" fill="white" stroke="#E1E1E1" stroke-width="1.27008"/>
<g clip-path="url(#clip3_1261_1931)">
<circle cx="410.075" cy="190.189" r="12.0566" fill="#147B3D"/>
<path d="M408.22 188.016C408.22 189.63 409.039 191.372 410.842 191.372C412.179 191.372 413.53 190.329 413.53 187.992C413.53 185.943 412.468 184.568 410.886 184.568C409.598 184.568 408.22 185.473 408.22 188.016ZM411.522 181.577C414.754 181.577 416.927 184.137 416.927 187.947C416.927 191.698 414.637 194.316 411.365 194.316C409.804 194.316 408.805 193.648 408.282 193.164C408.286 193.279 408.288 193.407 408.288 193.544V198.63H404.94V185.079C404.94 184.882 404.877 184.82 404.682 184.82H403.53V181.852H406.34C407.633 181.852 407.965 182.511 408.028 183.018C408.553 182.43 409.641 181.577 411.522 181.577Z" fill="#CBCBCB"/>
</g>
</g>
<g filter="url(#filter4_d_1261_1931)">
<circle cx="61.5467" cy="281.189" r="21.5914" fill="white" stroke="#E1E1E1" stroke-width="1.27008"/>
<circle cx="60.9624" cy="280.604" r="9.94339" fill="#5D6AD1"/>
<g clip-path="url(#clip4_1261_1931)">
<path d="M54.2726 282.184C54.242 282.054 54.397 281.972 54.4915 282.067L59.4992 287.074C59.5937 287.169 59.5117 287.324 59.3816 287.293C56.8546 286.7 54.8654 284.711 54.2726 282.184ZM54.1048 280.177C54.1023 280.216 54.1169 280.254 54.1445 280.281L61.2843 287.421C61.3119 287.449 61.3498 287.464 61.3887 287.461C61.7136 287.441 62.0324 287.398 62.3436 287.334C62.4484 287.313 62.4848 287.184 62.4091 287.108L54.4578 279.157C54.3821 279.081 54.2533 279.117 54.2317 279.222C54.1678 279.533 54.125 279.852 54.1048 280.177ZM54.682 277.82C54.6592 277.872 54.6708 277.932 54.7105 277.971L63.5945 286.855C63.6342 286.895 63.6941 286.907 63.7454 286.884C63.9904 286.775 64.2278 286.652 64.4566 286.516C64.5323 286.471 64.544 286.367 64.4817 286.304L55.2614 277.084C55.1992 277.022 55.0951 277.034 55.0501 277.109C54.9142 277.338 54.7911 277.575 54.682 277.82ZM55.8406 276.225C55.7899 276.174 55.7867 276.093 55.8346 276.039C57.0916 274.632 58.92 273.746 60.9554 273.746C64.7463 273.746 67.8195 276.82 67.8195 280.61C67.8195 282.646 66.9336 284.474 65.5264 285.731C65.4728 285.779 65.3914 285.776 65.3406 285.725L55.8406 276.225Z" fill="white"/>
</g>
</g>
<g filter="url(#filter5_d_1261_1931)">
<circle cx="410.151" cy="280.019" r="21.5914" fill="white" stroke="#E1E1E1" stroke-width="1.27008"/>
<path d="M417.923 280.011C417.338 279.087 416.518 278.324 415.542 277.798C414.566 277.272 413.467 276.999 412.351 277.007C411.236 277.015 410.141 277.303 409.173 277.843C408.204 278.382 407.396 279.156 406.825 280.089C406.811 280.113 406.796 280.135 406.782 280.159C406.457 280.708 406.283 281.328 406.275 281.96C406.268 282.593 406.427 283.216 406.737 283.772C407.048 284.327 407.5 284.796 408.05 285.134C408.6 285.471 409.23 285.665 409.88 285.698C408.775 285.666 407.696 285.359 406.748 284.807C405.799 284.255 405.011 283.476 404.459 282.545C403.907 281.613 403.609 280.56 403.593 279.485C403.577 278.41 403.845 277.348 404.37 276.402C404.372 276.4 404.372 276.395 404.374 276.392L406.714 272.452C408.209 269.937 411.942 269.937 413.436 272.452L417.923 280.011Z" fill="#51D7FF"/>
<path d="M410.997 288.775C410.064 289.302 409.009 289.592 407.93 289.618H403.245C400.258 289.618 398.391 286.474 399.883 283.959L404.37 276.402C403.845 277.348 403.577 278.41 403.593 279.485C403.609 280.56 403.907 281.613 404.459 282.545C405.011 283.477 405.799 284.255 406.747 284.807C407.696 285.359 408.774 285.666 409.879 285.699C409.945 285.703 410.01 285.703 410.075 285.703C410.733 285.703 411.381 285.536 411.953 285.219C412.525 284.903 413.003 284.447 413.34 283.896C413.677 283.346 413.861 282.72 413.874 282.08C413.888 281.439 413.73 280.806 413.416 280.243C414.246 281.689 414.457 283.395 414.004 284.991C413.552 286.588 412.471 287.947 410.997 288.775Z" fill="#318EFF"/>
<path d="M416.906 289.618H407.931C409.046 289.589 410.134 289.28 411.09 288.722C412.046 288.164 412.838 287.376 413.39 286.433C413.941 285.491 414.233 284.426 414.238 283.342C414.243 282.257 413.96 281.19 413.417 280.243C413.098 279.671 412.629 279.191 412.059 278.852C411.488 278.513 410.836 278.326 410.167 278.31C409.498 278.294 408.837 278.45 408.25 278.763C407.664 279.075 407.172 279.532 406.825 280.088C407.396 279.156 408.204 278.382 409.172 277.842C410.14 277.302 411.235 277.014 412.351 277.006C413.467 276.998 414.566 277.271 415.542 277.797C416.518 278.324 417.338 279.086 417.922 280.011L420.267 283.959C421.759 286.474 419.893 289.618 416.906 289.618Z" fill="#33B6FF"/>
</g>
</g>
</g>
<defs>
<filter id="filter0_d_1261_1931" x="29.9618" y="71.7925" width="63.1696" height="63.1697" filterUnits="userSpaceOnUse" color-interpolation-filters="sRGB">
<feFlood flood-opacity="0" result="BackgroundImageFix"/>
<feColorMatrix in="SourceAlpha" type="matrix" values="0 0 0 0 0 0 0 0 0 0 0 0 0 0 0 0 0 0 127 0" result="hardAlpha"/>
<feOffset dy="2.33962"/>
<feGaussianBlur stdDeviation="4.67924"/>
<feComposite in2="hardAlpha" operator="out"/>
<feColorMatrix type="matrix" values="0 0 0 0 0 0 0 0 0 0 0 0 0 0 0 0 0 0 0.15 0"/>
<feBlend mode="normal" in2="BackgroundImageFix" result="effect1_dropShadow_1261_1931"/>
<feBlend mode="normal" in="SourceGraphic" in2="effect1_dropShadow_1261_1931" result="shape"/>
</filter>
<filter id="filter1_d_1261_1931" x="378.566" y="70.6227" width="63.1696" height="63.1697" filterUnits="userSpaceOnUse" color-interpolation-filters="sRGB">
<feFlood flood-opacity="0" result="BackgroundImageFix"/>
<feColorMatrix in="SourceAlpha" type="matrix" values="0 0 0 0 0 0 0 0 0 0 0 0 0 0 0 0 0 0 127 0" result="hardAlpha"/>
<feOffset dy="2.33962"/>
<feGaussianBlur stdDeviation="4.67924"/>
<feComposite in2="hardAlpha" operator="out"/>
<feColorMatrix type="matrix" values="0 0 0 0 0 0 0 0 0 0 0 0 0 0 0 0 0 0 0.15 0"/>
<feBlend mode="normal" in2="BackgroundImageFix" result="effect1_dropShadow_1261_1931"/>
<feBlend mode="normal" in="SourceGraphic" in2="effect1_dropShadow_1261_1931" result="shape"/>
</filter>
<filter id="filter2_d_1261_1931" x="29.9618" y="161.868" width="63.1696" height="63.1697" filterUnits="userSpaceOnUse" color-interpolation-filters="sRGB">
<feFlood flood-opacity="0" result="BackgroundImageFix"/>
<feColorMatrix in="SourceAlpha" type="matrix" values="0 0 0 0 0 0 0 0 0 0 0 0 0 0 0 0 0 0 127 0" result="hardAlpha"/>
<feOffset dy="2.33962"/>
<feGaussianBlur stdDeviation="4.67924"/>
<feComposite in2="hardAlpha" operator="out"/>
<feColorMatrix type="matrix" values="0 0 0 0 0 0 0 0 0 0 0 0 0 0 0 0 0 0 0.15 0"/>
<feBlend mode="normal" in2="BackgroundImageFix" result="effect1_dropShadow_1261_1931"/>
<feBlend mode="normal" in="SourceGraphic" in2="effect1_dropShadow_1261_1931" result="shape"/>
</filter>
<filter id="filter3_d_1261_1931" x="378.566" y="160.698" width="63.1696" height="63.1697" filterUnits="userSpaceOnUse" color-interpolation-filters="sRGB">
<feFlood flood-opacity="0" result="BackgroundImageFix"/>
<feColorMatrix in="SourceAlpha" type="matrix" values="0 0 0 0 0 0 0 0 0 0 0 0 0 0 0 0 0 0 127 0" result="hardAlpha"/>
<feOffset dy="2.33962"/>
<feGaussianBlur stdDeviation="4.67924"/>
<feComposite in2="hardAlpha" operator="out"/>
<feColorMatrix type="matrix" values="0 0 0 0 0 0 0 0 0 0 0 0 0 0 0 0 0 0 0.15 0"/>
<feBlend mode="normal" in2="BackgroundImageFix" result="effect1_dropShadow_1261_1931"/>
<feBlend mode="normal" in="SourceGraphic" in2="effect1_dropShadow_1261_1931" result="shape"/>
</filter>
<filter id="filter4_d_1261_1931" x="29.9618" y="251.943" width="63.1696" height="63.1697" filterUnits="userSpaceOnUse" color-interpolation-filters="sRGB">
<feFlood flood-opacity="0" result="BackgroundImageFix"/>
<feColorMatrix in="SourceAlpha" type="matrix" values="0 0 0 0 0 0 0 0 0 0 0 0 0 0 0 0 0 0 127 0" result="hardAlpha"/>
<feOffset dy="2.33962"/>
<feGaussianBlur stdDeviation="4.67924"/>
<feComposite in2="hardAlpha" operator="out"/>
<feColorMatrix type="matrix" values="0 0 0 0 0 0 0 0 0 0 0 0 0 0 0 0 0 0 0.15 0"/>
<feBlend mode="normal" in2="BackgroundImageFix" result="effect1_dropShadow_1261_1931"/>
<feBlend mode="normal" in="SourceGraphic" in2="effect1_dropShadow_1261_1931" result="shape"/>
</filter>
<filter id="filter5_d_1261_1931" x="378.566" y="250.773" width="63.1696" height="63.1697" filterUnits="userSpaceOnUse" color-interpolation-filters="sRGB">
<feFlood flood-opacity="0" result="BackgroundImageFix"/>
<feColorMatrix in="SourceAlpha" type="matrix" values="0 0 0 0 0 0 0 0 0 0 0 0 0 0 0 0 0 0 127 0" result="hardAlpha"/>
<feOffset dy="2.33962"/>
<feGaussianBlur stdDeviation="4.67924"/>
<feComposite in2="hardAlpha" operator="out"/>
<feColorMatrix type="matrix" values="0 0 0 0 0 0 0 0 0 0 0 0 0 0 0 0 0 0 0.15 0"/>
<feBlend mode="normal" in2="BackgroundImageFix" result="effect1_dropShadow_1261_1931"/>
<feBlend mode="normal" in="SourceGraphic" in2="effect1_dropShadow_1261_1931" result="shape"/>
</filter>
<linearGradient id="paint0_linear_1261_1931" x1="234.77" y1="34.8618" x2="234.77" y2="61.0357" gradientUnits="userSpaceOnUse">
<stop/>
<stop offset="1" stop-color="#989696"/>
</linearGradient>
<clipPath id="clip0_1261_1931">
<rect width="471" height="353" fill="white"/>
</clipPath>
<clipPath id="clip1_1261_1931">
<rect width="393.849" height="234.434" fill="white" transform="translate(39 79)"/>
</clipPath>
<clipPath id="clip2_1261_1931">
<rect width="16.0755" height="16.0755" fill="white" transform="translate(402.037 92.3962)"/>
</clipPath>
<clipPath id="clip3_1261_1931">
<rect width="24.1132" height="24.1132" fill="white" transform="translate(398.019 178.132)"/>
</clipPath>
<clipPath id="clip4_1261_1931">
<rect width="13.715" height="13.715" fill="white" transform="translate(54.1045 273.746)"/>
</clipPath>
</defs>
</svg>
