<svg width="563" height="254" viewBox="0 0 563 254" fill="none" xmlns="http://www.w3.org/2000/svg">
<g clip-path="url(#clip0_902_459)">
<path d="M76.1497 271.324C59.8216 271.324 44.3809 267.775 29.8276 260.676C15.6293 253.576 4.09315 244.17 -4.78081 232.456C-13.2998 220.388 -17.5593 207.432 -17.5593 193.588H23.9708C23.9708 194.298 24.1483 196.961 24.5033 201.575C24.8582 206.19 26.4555 211.336 29.2952 217.016C32.1349 222.695 37.1043 227.664 44.2034 231.924C51.6576 236.183 62.1288 238.313 75.6173 238.313C90.5255 238.313 102.594 235.651 111.823 230.327C121.052 225.002 125.666 217.548 125.666 207.964C125.666 199.09 122.294 192.169 115.55 187.199C108.806 182.23 100.109 178.325 89.4606 175.486C78.8119 172.291 67.4532 169.274 55.3846 166.434C43.671 163.595 32.4898 159.867 21.8411 155.253C11.5473 150.284 3.02827 143.717 -3.71594 135.553C-10.1052 127.034 -13.1223 115.675 -12.7674 101.477C-12.7674 82.3091 -4.78081 67.5783 11.1923 57.2845C27.5204 46.6357 48.108 41.3114 72.9551 41.3114C88.9282 41.3114 104.191 43.9736 118.745 49.2979C133.298 54.2674 145.189 62.4314 154.418 73.79C164.002 85.1487 168.616 100.412 168.261 119.58H127.264C127.619 107.511 124.779 98.4597 118.745 92.4254C113.065 86.0361 105.966 81.7766 97.4472 79.6469C88.9282 77.1622 80.9416 75.9198 73.4875 75.9198C59.2892 75.9198 48.108 78.582 39.9439 83.9064C31.7799 88.8758 27.6979 95.62 27.6979 104.139C27.6979 113.368 31.07 120.467 37.8142 125.437C44.5584 130.051 53.2549 133.955 63.9036 137.15C74.5524 139.99 85.7336 142.829 97.4472 145.669C109.516 148.509 120.874 152.236 131.523 156.85C142.172 161.465 150.868 168.031 157.613 176.55C164.712 185.069 168.261 196.428 168.261 210.626C168.261 231.569 159.565 247.01 142.172 256.949C124.779 266.532 102.772 271.324 76.1497 271.324ZM254.079 270.792C233.847 270.792 217.519 266.177 205.095 256.949C192.672 247.365 183.443 234.231 177.408 217.548C171.729 200.51 168.889 181.165 168.889 159.512C168.889 126.501 175.634 99.5245 189.122 78.582C202.611 57.2845 224.263 46.6357 254.079 46.6357C270.053 46.6357 283.009 49.4754 292.947 55.1547C302.886 60.8341 310.518 67.2233 315.842 74.3225C321.522 81.4217 325.426 87.6334 327.556 92.9578H328.621V48.2331H373.878V266H336.075L328.621 227.132H327.556C325.426 232.456 321.522 238.668 315.842 245.767C310.163 252.512 302.354 258.368 292.415 263.338C282.476 268.307 269.698 270.792 254.079 270.792ZM271.65 232.989C292.592 232.989 307.146 226.245 315.31 212.756C323.829 199.268 328.088 181.697 328.088 160.045C328.088 137.328 323.651 119.402 314.777 106.269C306.258 93.1353 291.883 86.5686 271.65 86.5686C256.742 86.5686 245.028 89.9407 236.509 96.6849C227.99 103.074 221.778 111.771 217.874 122.774C214.324 133.778 212.549 146.024 212.549 159.512C212.549 180.455 216.986 198.025 225.86 212.224C234.734 226.067 249.997 232.989 271.65 232.989ZM513.073 271.324C499.584 271.324 488.048 269.195 478.464 264.935C468.881 260.321 461.072 254.996 455.037 248.962C449.003 242.928 444.566 237.426 441.726 232.456C438.887 227.132 437.112 223.76 436.402 222.34H435.337L428.415 266H390.08V-33.7623H435.337L435.869 99.3471H436.934C437.289 97.9272 438.709 94.5551 441.194 89.2307C444.034 83.9064 448.293 78.0496 453.972 71.6603C459.652 65.2711 467.283 59.7692 476.867 55.1547C486.451 50.5403 498.52 48.2331 513.073 48.2331C544.664 48.2331 567.914 58.7043 582.822 79.6469C598.085 100.589 605.717 127.566 605.717 160.577C605.717 193.234 598.085 219.855 582.822 240.443C567.914 261.031 544.664 271.324 513.073 271.324ZM500.294 232.989C515.913 232.989 528.159 229.617 537.033 222.873C546.262 215.773 552.651 206.722 556.2 195.718C560.105 184.36 562.057 172.468 562.057 160.045C562.057 147.976 559.927 136.44 555.668 125.437C551.763 114.433 545.019 105.559 535.435 98.8146C526.206 91.7154 513.783 88.1659 498.165 88.1659C477.577 88.1659 462.136 94.9101 451.843 108.398C441.549 121.532 436.402 138.747 436.402 160.045C436.402 182.052 441.726 199.8 452.375 213.289C463.379 226.422 479.352 232.989 500.294 232.989Z" fill="#F9DDDD"/>
<path d="M523.493 -2.34723C522.845 -2.32322 522.412 -2.47925 522.196 -2.81532C521.98 -3.15138 521.872 -3.57147 521.872 -4.07557C521.872 -4.50765 521.98 -4.89173 522.196 -5.22779C522.412 -5.56386 522.845 -5.73189 523.493 -5.73189C524.117 -5.73189 524.537 -5.56386 524.753 -5.22779C524.993 -4.89173 525.113 -4.50765 525.113 -4.07557C525.113 -3.57147 524.993 -3.15138 524.753 -2.81532C524.537 -2.50326 524.117 -2.34723 523.493 -2.34723ZM521.98 14V-0.726905H524.969V14H521.98ZM526.495 14V-0.690899H529.052L529.556 2.69377H529.628C529.652 2.59775 529.748 2.36971 529.916 2.00963C530.084 1.64956 530.36 1.26549 530.744 0.857407C531.128 0.425322 531.644 0.0532481 532.292 -0.258814C532.94 -0.570875 533.756 -0.726905 534.741 -0.726905C536.037 -0.726905 537.045 -0.474856 537.765 0.0292436C538.485 0.509338 539.014 1.14546 539.35 1.93762C539.686 2.70577 539.89 3.52193 539.962 4.3861C540.058 5.25027 540.106 6.05443 540.106 6.79858V14H537.189V6.76257C537.189 5.85039 537.093 5.03423 536.901 4.31409C536.709 3.56994 536.349 2.99383 535.821 2.58575C535.317 2.15366 534.573 1.93762 533.588 1.93762C532.58 1.93762 531.776 2.17767 531.176 2.65776C530.576 3.13786 530.156 3.76198 529.916 4.53013C529.676 5.29828 529.556 6.11444 529.556 6.97861V14H526.495ZM546.229 14.3241C544.861 14.3241 543.756 14.012 542.916 13.3879C542.076 12.7398 541.452 11.8516 541.044 10.7234C540.66 9.57113 540.468 8.26287 540.468 6.79858C540.468 4.56614 540.924 2.74178 541.836 1.3255C542.748 -0.114785 544.213 -0.834928 546.229 -0.834928C547.309 -0.834928 548.185 -0.64289 548.857 -0.258814C549.53 0.125262 550.046 0.557347 550.406 1.03744C550.79 1.51754 551.054 1.93762 551.198 2.29769H551.27V-0.726905H554.331V14H551.774L551.27 11.3715H551.198C551.054 11.7316 550.79 12.1516 550.406 12.6317C550.022 13.0878 549.494 13.4839 548.821 13.82C548.149 14.156 547.285 14.3241 546.229 14.3241ZM547.417 11.7676C548.833 11.7676 549.818 11.3115 550.37 10.3993C550.946 9.48711 551.234 8.29887 551.234 6.83459C551.234 5.29828 550.934 4.08604 550.334 3.19787C549.758 2.30969 548.785 1.86561 547.417 1.86561C546.409 1.86561 545.617 2.09365 545.041 2.54974C544.465 2.98183 544.044 3.56994 543.78 4.31409C543.54 5.05824 543.42 5.8864 543.42 6.79858C543.42 8.21486 543.72 9.40309 544.321 10.3633C544.921 11.2995 545.953 11.7676 547.417 11.7676Z" fill="#F9DDDD"/>
<path d="M213.51 139.661C212.648 139.661 211.451 139.517 209.919 139.23C208.435 138.943 206.904 138.416 205.324 137.65C203.792 136.884 202.476 135.783 201.375 134.347C200.322 132.863 199.795 130.948 199.795 128.603H207.765C207.765 128.651 207.789 128.938 207.837 129.465C207.885 129.943 208.053 130.494 208.34 131.116C208.627 131.738 209.153 132.289 209.919 132.768C210.685 133.198 211.81 133.414 213.294 133.414C215.017 133.414 216.214 133.103 216.884 132.48C217.555 131.858 217.89 131.236 217.89 130.613C217.89 129.752 217.459 129.058 216.597 128.531C215.783 128.005 214.706 127.574 213.366 127.239C212.026 126.856 210.59 126.449 209.058 126.018C207.574 125.539 206.162 124.965 204.821 124.295C203.529 123.577 202.452 122.619 201.59 121.423C200.729 120.226 200.322 118.694 200.37 116.827C200.37 113.955 201.471 111.825 203.672 110.437C205.922 109.001 208.771 108.282 212.217 108.282C214.802 108.282 217.148 108.713 219.254 109.575C221.408 110.389 223.107 111.633 224.352 113.309C225.597 114.984 226.243 117.09 226.291 119.627H218.392C218.44 118.335 218.153 117.354 217.531 116.683C216.956 115.965 216.214 115.487 215.305 115.247C214.395 114.96 213.486 114.817 212.576 114.817C210.996 114.817 209.872 115.104 209.201 115.678C208.579 116.205 208.268 116.803 208.268 117.473C208.268 118.479 208.699 119.268 209.56 119.843C210.422 120.369 211.523 120.824 212.863 121.207C214.252 121.59 215.712 121.997 217.243 122.428C218.775 122.859 220.211 123.409 221.552 124.079C222.892 124.749 223.993 125.659 224.855 126.808C225.764 127.909 226.219 129.369 226.219 131.188C226.219 134.012 225.07 136.142 222.772 137.578C220.475 138.967 217.387 139.661 213.51 139.661ZM237.269 139.661C233.2 139.661 230.352 138.296 228.725 135.568C227.097 132.791 226.283 129.129 226.283 124.582C226.283 119.986 227.097 116.301 228.725 113.524C230.4 110.7 233.248 109.288 237.269 109.288C239.088 109.288 240.596 109.551 241.793 110.078C242.99 110.556 243.947 111.155 244.665 111.873C245.383 112.591 245.886 113.261 246.173 113.883C246.508 114.458 246.723 114.817 246.819 114.96H246.963V109.36H255.866V138.943H248.327L246.963 134.491H246.819C246.723 134.73 246.364 135.281 245.742 136.142C245.168 136.956 244.186 137.746 242.798 138.512C241.458 139.278 239.615 139.661 237.269 139.661ZM240.859 132.408C242.583 132.408 243.875 132.049 244.737 131.331C245.599 130.613 246.173 129.68 246.46 128.531C246.747 127.334 246.891 126.042 246.891 124.654C246.891 123.218 246.747 121.925 246.46 120.776C246.173 119.58 245.599 118.646 244.737 117.976C243.875 117.258 242.583 116.899 240.859 116.899C239.136 116.899 237.82 117.258 236.91 117.976C236.049 118.694 235.474 119.651 235.187 120.848C234.9 121.997 234.756 123.265 234.756 124.654C234.756 126.042 234.9 127.334 235.187 128.531C235.474 129.68 236.049 130.613 236.91 131.331C237.82 132.049 239.136 132.408 240.859 132.408ZM276.172 139.661C274.401 139.661 272.917 139.397 271.72 138.871C270.524 138.344 269.542 137.746 268.777 137.076C268.011 136.406 267.46 135.807 267.125 135.281C266.79 134.706 266.598 134.371 266.551 134.275H266.407L265.043 138.943H257.503V98.5172H266.407L266.479 115.247H266.622C266.622 115.2 266.766 114.888 267.053 114.314C267.388 113.692 267.915 112.998 268.633 112.232C269.351 111.466 270.308 110.796 271.505 110.221C272.75 109.647 274.305 109.36 276.172 109.36C280.528 109.36 283.592 110.724 285.363 113.452C287.182 116.181 288.092 119.939 288.092 124.726C288.092 129.273 287.206 132.911 285.435 135.64C283.664 138.32 280.576 139.661 276.172 139.661ZM273.085 132.408C274.904 132.408 276.268 132.049 277.178 131.331C278.135 130.566 278.781 129.608 279.116 128.459C279.451 127.263 279.619 125.994 279.619 124.654C279.619 123.361 279.451 122.141 279.116 120.992C278.781 119.795 278.135 118.838 277.178 118.12C276.22 117.354 274.832 116.971 273.013 116.971C270.38 116.971 268.633 117.737 267.771 119.268C266.91 120.752 266.479 122.547 266.479 124.654C266.479 126.808 266.91 128.651 267.771 130.183C268.681 131.667 270.452 132.408 273.085 132.408Z" fill="black"/>
<path d="M295.194 105.985C293.422 106.033 292.226 105.626 291.603 104.764C291.029 103.855 290.742 102.778 290.742 101.533C290.742 100.336 291.029 99.307 291.603 98.4454C292.226 97.5837 293.422 97.1529 295.194 97.1529C296.917 97.1529 298.066 97.5837 298.64 98.4454C299.262 99.307 299.574 100.336 299.574 101.533C299.574 102.825 299.262 103.902 298.64 104.764C298.066 105.578 296.917 105.985 295.194 105.985ZM290.885 138.943V109.36H299.574V138.943H290.885ZM302.134 138.943V109.431H309.601L311.037 115.247H311.181C311.229 115.2 311.396 114.864 311.684 114.242C311.971 113.62 312.45 112.95 313.12 112.232C313.838 111.466 314.819 110.796 316.064 110.221C317.308 109.647 318.888 109.36 320.803 109.36C323.483 109.36 325.518 109.91 326.906 111.011C328.342 112.112 329.347 113.5 329.922 115.176C330.544 116.803 330.879 118.479 330.927 120.202C331.023 121.925 331.071 123.409 331.071 124.654V138.943H322.67V124.582C322.67 123.289 322.55 122.069 322.311 120.92C322.071 119.771 321.545 118.838 320.731 118.12C319.917 117.354 318.649 116.971 316.925 116.971C315.202 116.971 313.91 117.354 313.048 118.12C312.234 118.885 311.684 119.867 311.396 121.064C311.157 122.26 311.037 123.481 311.037 124.726V138.943H302.134ZM342.745 139.661C338.676 139.661 335.828 138.296 334.2 135.568C332.573 132.791 331.759 129.129 331.759 124.582C331.759 119.986 332.573 116.301 334.2 113.524C335.876 110.7 338.724 109.288 342.745 109.288C344.564 109.288 346.072 109.551 347.269 110.078C348.465 110.556 349.423 111.155 350.141 111.873C350.859 112.591 351.361 113.261 351.649 113.883C351.984 114.458 352.199 114.817 352.295 114.96H352.438V109.36H361.342V138.943H353.803L352.438 134.491H352.295C352.199 134.73 351.84 135.281 351.218 136.142C350.643 136.956 349.662 137.746 348.274 138.512C346.933 139.278 345.091 139.661 342.745 139.661ZM346.335 132.408C348.058 132.408 349.351 132.049 350.213 131.331C351.074 130.613 351.649 129.68 351.936 128.531C352.223 127.334 352.367 126.042 352.367 124.654C352.367 123.218 352.223 121.925 351.936 120.776C351.649 119.58 351.074 118.646 350.213 117.976C349.351 117.258 348.058 116.899 346.335 116.899C344.612 116.899 343.295 117.258 342.386 117.976C341.524 118.694 340.95 119.651 340.663 120.848C340.375 121.997 340.232 123.265 340.232 124.654C340.232 126.042 340.375 127.334 340.663 128.531C340.95 129.68 341.524 130.613 342.386 131.331C343.295 132.049 344.612 132.408 346.335 132.408Z" fill="#EC5B4D"/>
<path d="M333.519 105.11C333.094 105.11 332.731 105.011 332.43 104.813C332.137 104.608 331.913 104.333 331.759 103.988C331.605 103.636 331.528 103.247 331.528 102.822C331.528 102.389 331.605 102.001 331.759 101.656C331.92 101.311 332.148 101.04 332.441 100.842C332.742 100.637 333.105 100.534 333.53 100.534C333.838 100.534 334.095 100.589 334.3 100.699C334.505 100.802 334.67 100.926 334.795 101.073C334.927 101.212 335.026 101.348 335.092 101.48C335.158 101.605 335.198 101.693 335.213 101.744H335.235L335.246 98.8072H335.752V105H335.334L335.246 103.911H335.224C335.202 103.962 335.154 104.05 335.081 104.175C335.015 104.3 334.916 104.435 334.784 104.582C334.652 104.729 334.48 104.853 334.267 104.956C334.062 105.059 333.812 105.11 333.519 105.11ZM333.585 104.637C334.04 104.637 334.425 104.479 334.74 104.164C335.055 103.849 335.213 103.401 335.213 102.822C335.213 102.257 335.063 101.817 334.762 101.502C334.469 101.179 334.102 101.018 333.662 101.018C333.295 101.018 332.991 101.106 332.749 101.282C332.507 101.451 332.324 101.674 332.199 101.953C332.082 102.224 332.023 102.514 332.023 102.822C332.023 103.13 332.078 103.423 332.188 103.702C332.298 103.981 332.467 104.208 332.694 104.384C332.921 104.553 333.218 104.637 333.585 104.637ZM338.673 105.11C338.196 105.11 337.8 104.996 337.485 104.769C337.177 104.542 336.946 104.252 336.792 103.9C336.638 103.541 336.564 103.17 336.572 102.789C336.572 102.393 336.652 102.023 336.814 101.678C336.975 101.333 337.21 101.058 337.518 100.853C337.833 100.64 338.214 100.534 338.662 100.534C339.219 100.534 339.677 100.717 340.037 101.084C340.403 101.443 340.609 101.927 340.653 102.536C340.66 102.573 340.664 102.617 340.664 102.668C340.664 102.719 340.664 102.767 340.664 102.811H337.056C337.056 103.376 337.195 103.827 337.474 104.164C337.752 104.501 338.152 104.67 338.673 104.67C339.047 104.67 339.369 104.571 339.641 104.373C339.919 104.175 340.092 103.907 340.158 103.57H340.653C340.565 104.025 340.341 104.395 339.982 104.681C339.63 104.967 339.193 105.11 338.673 105.11ZM337.089 102.481H340.147C340.139 102.29 340.084 102.078 339.982 101.843C339.886 101.608 339.729 101.403 339.509 101.227C339.296 101.051 339.014 100.963 338.662 100.963C338.178 100.963 337.807 101.113 337.551 101.414C337.294 101.715 337.14 102.07 337.089 102.481ZM343.285 105.11C342.911 105.11 342.607 105.048 342.372 104.923C342.137 104.791 341.958 104.637 341.833 104.461C341.708 104.285 341.62 104.116 341.569 103.955C341.525 103.794 341.503 103.676 341.503 103.603H341.998C341.998 103.61 342.002 103.673 342.009 103.79C342.024 103.9 342.068 104.028 342.141 104.175C342.214 104.322 342.339 104.45 342.515 104.56C342.698 104.663 342.959 104.714 343.296 104.714C343.531 104.714 343.751 104.688 343.956 104.637C344.169 104.578 344.337 104.49 344.462 104.373C344.594 104.248 344.66 104.087 344.66 103.889C344.653 103.654 344.576 103.475 344.429 103.35C344.282 103.218 344.092 103.119 343.857 103.053C343.622 102.987 343.377 102.928 343.12 102.877C342.863 102.826 342.618 102.756 342.383 102.668C342.156 102.58 341.969 102.452 341.822 102.283C341.683 102.114 341.617 101.883 341.624 101.59C341.624 101.245 341.785 100.963 342.108 100.743C342.431 100.523 342.845 100.413 343.351 100.413C343.542 100.413 343.74 100.435 343.945 100.479C344.158 100.523 344.356 100.6 344.539 100.71C344.722 100.82 344.869 100.974 344.979 101.172C345.089 101.363 345.137 101.608 345.122 101.909H344.638C344.653 101.682 344.616 101.498 344.528 101.359C344.44 101.212 344.323 101.102 344.176 101.029C344.037 100.956 343.89 100.908 343.736 100.886C343.582 100.857 343.443 100.842 343.318 100.842C342.973 100.842 342.68 100.908 342.438 101.04C342.203 101.165 342.086 101.352 342.086 101.601C342.086 101.828 342.159 102.001 342.306 102.118C342.453 102.228 342.643 102.316 342.878 102.382C343.113 102.441 343.358 102.499 343.615 102.558C343.872 102.609 344.114 102.683 344.341 102.778C344.576 102.866 344.766 102.998 344.913 103.174C345.067 103.35 345.144 103.596 345.144 103.911C345.144 104.19 345.06 104.421 344.891 104.604C344.722 104.78 344.495 104.908 344.209 104.989C343.93 105.07 343.622 105.11 343.285 105.11ZM346.414 100.061C346.29 100.068 346.205 100.035 346.161 99.9621C346.117 99.8888 346.095 99.8008 346.095 99.6981C346.095 99.6028 346.117 99.5221 346.161 99.4561C346.205 99.3901 346.29 99.3572 346.414 99.3572C346.532 99.3572 346.612 99.3901 346.656 99.4561C346.7 99.5221 346.722 99.6028 346.722 99.6981C346.722 99.8081 346.7 99.8961 346.656 99.9621C346.612 100.028 346.532 100.061 346.414 100.061ZM346.15 105V100.534H346.645V105H346.15ZM348.737 106.76V106.287H351.091V103.911H351.069C351.054 103.962 351.01 104.05 350.937 104.175C350.871 104.3 350.772 104.435 350.64 104.582C350.508 104.729 350.335 104.853 350.123 104.956C349.917 105.059 349.668 105.11 349.375 105.11C348.949 105.11 348.586 105.007 348.286 104.802C347.992 104.597 347.769 104.322 347.615 103.977C347.461 103.632 347.384 103.247 347.384 102.822C347.384 102.389 347.461 102.001 347.615 101.656C347.776 101.311 348.003 101.04 348.297 100.842C348.597 100.637 348.96 100.534 349.386 100.534C349.686 100.534 349.939 100.589 350.145 100.699C350.357 100.802 350.526 100.926 350.651 101.073C350.783 101.212 350.878 101.348 350.937 101.48C351.003 101.605 351.043 101.693 351.058 101.744H351.08L351.091 100.534H351.608V105.957C351.608 106.192 351.564 106.382 351.476 106.529C351.395 106.683 351.223 106.76 350.959 106.76H348.737ZM349.441 104.637C349.888 104.637 350.269 104.479 350.585 104.164C350.907 103.849 351.069 103.401 351.069 102.822C351.069 102.257 350.918 101.817 350.618 101.502C350.317 101.179 349.947 101.018 349.507 101.018C349.14 101.018 348.836 101.106 348.594 101.282C348.352 101.451 348.172 101.674 348.055 101.953C347.937 102.224 347.879 102.514 347.879 102.822C347.879 103.13 347.93 103.423 348.033 103.702C348.143 103.981 348.311 104.208 348.539 104.384C348.773 104.553 349.074 104.637 349.441 104.637ZM352.601 105V100.545H353.019L353.107 101.722H353.129C353.144 101.671 353.181 101.583 353.239 101.458C353.298 101.333 353.39 101.201 353.514 101.062C353.639 100.915 353.804 100.791 354.009 100.688C354.215 100.585 354.471 100.534 354.779 100.534C355.161 100.534 355.465 100.604 355.692 100.743C355.92 100.875 356.092 101.051 356.209 101.271C356.327 101.491 356.404 101.733 356.44 101.997C356.477 102.261 356.495 102.525 356.495 102.789V105H356V102.778C356 102.235 355.905 101.803 355.714 101.48C355.531 101.157 355.186 100.996 354.68 100.996C354.321 100.996 354.024 101.084 353.789 101.26C353.562 101.429 353.39 101.66 353.272 101.953C353.162 102.239 353.107 102.551 353.107 102.888V105H352.601ZM359.097 105.11C358.723 105.11 358.419 105.048 358.184 104.923C357.949 104.791 357.77 104.637 357.645 104.461C357.52 104.285 357.432 104.116 357.381 103.955C357.337 103.794 357.315 103.676 357.315 103.603H357.81C357.81 103.61 357.814 103.673 357.821 103.79C357.836 103.9 357.88 104.028 357.953 104.175C358.026 104.322 358.151 104.45 358.327 104.56C358.51 104.663 358.771 104.714 359.108 104.714C359.343 104.714 359.563 104.688 359.768 104.637C359.981 104.578 360.149 104.49 360.274 104.373C360.406 104.248 360.472 104.087 360.472 103.889C360.465 103.654 360.388 103.475 360.241 103.35C360.094 103.218 359.904 103.119 359.669 103.053C359.434 102.987 359.189 102.928 358.932 102.877C358.675 102.826 358.43 102.756 358.195 102.668C357.968 102.58 357.781 102.452 357.634 102.283C357.495 102.114 357.429 101.883 357.436 101.59C357.436 101.245 357.597 100.963 357.92 100.743C358.243 100.523 358.657 100.413 359.163 100.413C359.354 100.413 359.552 100.435 359.757 100.479C359.97 100.523 360.168 100.6 360.351 100.71C360.534 100.82 360.681 100.974 360.791 101.172C360.901 101.363 360.949 101.608 360.934 101.909H360.45C360.465 101.682 360.428 101.498 360.34 101.359C360.252 101.212 360.135 101.102 359.988 101.029C359.849 100.956 359.702 100.908 359.548 100.886C359.394 100.857 359.255 100.842 359.13 100.842C358.785 100.842 358.492 100.908 358.25 101.04C358.015 101.165 357.898 101.352 357.898 101.601C357.898 101.828 357.971 102.001 358.118 102.118C358.265 102.228 358.455 102.316 358.69 102.382C358.925 102.441 359.17 102.499 359.427 102.558C359.684 102.609 359.926 102.683 360.153 102.778C360.388 102.866 360.578 102.998 360.725 103.174C360.879 103.35 360.956 103.596 360.956 103.911C360.956 104.19 360.872 104.421 360.703 104.604C360.534 104.78 360.307 104.908 360.021 104.989C359.742 105.07 359.434 105.11 359.097 105.11Z" fill="black"/>
</g>
<defs>
<clipPath id="clip0_902_459">
<rect width="563" height="254" rx="11.3194" fill="white"/>
</clipPath>
</defs>
</svg>
