<svg width="386" height="108" viewBox="0 0 386 108" fill="none" xmlns="http://www.w3.org/2000/svg">
<rect x="0.927734" y="45.6045" width="26.2174" height="28.5307" fill="#171919"/>
<rect x="0.15625" y="45.6043" width="385.549" height="0.385549" fill="#71B2F9"/>
<rect x="349.463" y="45.6043" width="35.4706" height="28.5307" fill="#171919"/>
<path d="M120.209 73.7006C118.495 73.7006 117.096 73.1759 116.012 72.1266C114.962 71.0423 114.438 69.6081 114.438 67.8242V53.1333H107.932V47.6767H114.438V39.5967H121.048V47.6767H128.184V53.1333H121.048V66.67C121.048 67.7193 121.538 68.244 122.518 68.244H127.554V73.7006H120.209ZM141.431 74.4352C138.842 74.4352 136.551 73.893 134.558 72.8087C132.599 71.6894 131.06 70.1328 129.94 68.1391C128.856 66.1103 128.314 63.7318 128.314 61.0035V60.3739C128.314 57.6456 128.856 55.2845 129.94 53.2907C131.025 51.262 132.546 49.7055 134.505 48.6211C136.464 47.5018 138.737 46.9422 141.326 46.9422C143.879 46.9422 146.1 47.5193 147.989 48.6736C149.878 49.7929 151.347 51.3669 152.397 53.3957C153.446 55.3894 153.971 57.7155 153.971 60.3739V62.63H135.03C135.1 64.4139 135.764 65.8655 137.024 66.9848C138.283 68.1041 139.822 68.6637 141.641 68.6637C143.495 68.6637 144.859 68.2615 145.733 67.457C146.608 66.6525 147.272 65.7605 147.727 64.7811L153.131 67.6144C152.641 68.5238 151.924 69.5207 150.98 70.605C150.07 71.6544 148.846 72.5638 147.307 73.3333C145.768 74.0679 143.809 74.4352 141.431 74.4352ZM135.082 57.698H147.255C147.115 56.1939 146.503 54.9872 145.418 54.0778C144.369 53.1683 142.987 52.7136 141.273 52.7136C139.49 52.7136 138.073 53.1683 137.024 54.0778C135.974 54.9872 135.327 56.1939 135.082 57.698ZM168.407 74.4352C165.888 74.4352 163.597 73.9105 161.534 72.8611C159.505 71.8118 157.896 70.2902 156.707 68.2965C155.517 66.3027 154.923 63.8892 154.923 61.0559V60.3214C154.923 57.4881 155.517 55.0746 156.707 53.0809C157.896 51.0871 159.505 49.5656 161.534 48.5162C163.597 47.4669 165.888 46.9422 168.407 46.9422C170.89 46.9422 173.024 47.3794 174.808 48.2539C176.592 49.1283 178.026 50.3351 179.11 51.8741C180.23 53.3782 180.964 55.0921 181.314 57.0159L174.913 58.3801C174.773 57.3307 174.458 56.3863 173.968 55.5469C173.479 54.7074 172.779 54.0428 171.87 53.5531C170.995 53.0634 169.893 52.8185 168.564 52.8185C167.235 52.8185 166.028 53.1159 164.944 53.7105C163.895 54.2701 163.055 55.1271 162.426 56.2814C161.831 57.4007 161.534 58.7823 161.534 60.4263V60.951C161.534 62.595 161.831 63.9941 162.426 65.1484C163.055 66.2677 163.895 67.1247 164.944 67.7193C166.028 68.279 167.235 68.5588 168.564 68.5588C170.558 68.5588 172.062 68.0516 173.077 67.0372C174.126 65.9879 174.79 64.6237 175.07 62.9448L181.471 64.4663C181.017 66.3202 180.23 68.0166 179.11 69.5557C178.026 71.0597 176.592 72.249 174.808 73.1235C173.024 73.9979 170.89 74.4352 168.407 74.4352ZM183.252 73.7006V36.9734H189.863V50.8772H190.807C191.087 50.3176 191.524 49.7579 192.119 49.1983C192.714 48.6386 193.501 48.1839 194.48 47.8341C195.494 47.4494 196.771 47.257 198.31 47.257C200.339 47.257 202.105 47.7292 203.609 48.6736C205.148 49.583 206.338 50.8598 207.177 52.5037C208.017 54.1127 208.436 56.0016 208.436 58.1702V73.7006H201.825V58.6949C201.825 56.7361 201.336 55.267 200.356 54.2876C199.412 53.3082 198.048 52.8185 196.264 52.8185C194.235 52.8185 192.661 53.5006 191.542 54.8648C190.422 56.1939 189.863 58.0653 189.863 60.4788V73.7006H183.252ZM211.91 73.7006V36.9734H218.521V57.2783H219.466L228.07 47.6767H236.675L224.66 60.2689L237.095 73.7006H228.595L219.466 63.3645H218.521V73.7006H211.91ZM245.421 74.4352C243.567 74.4352 241.905 74.1203 240.436 73.4907C238.967 72.8261 237.795 71.8817 236.921 70.6575C236.081 69.3983 235.662 67.8767 235.662 66.0928C235.662 64.3089 236.081 62.8223 236.921 61.6331C237.795 60.4088 238.985 59.4994 240.489 58.9048C242.028 58.2752 243.777 57.9604 245.735 57.9604H252.871V56.4913C252.871 55.267 252.486 54.2701 251.717 53.5006C250.947 52.6961 249.723 52.2939 248.044 52.2939C246.4 52.2939 245.176 52.6786 244.371 53.4482C243.567 54.1827 243.042 55.1446 242.797 56.3339L236.711 54.2876C237.131 52.9585 237.795 51.7517 238.705 50.6674C239.649 49.5481 240.891 48.6561 242.43 47.9915C244.004 47.292 245.91 46.9422 248.149 46.9422C251.577 46.9422 254.288 47.7991 256.281 49.5131C258.275 51.227 259.272 53.7105 259.272 56.9635V66.67C259.272 67.7193 259.762 68.244 260.741 68.244H262.84V73.7006H258.433C257.138 73.7006 256.071 73.3858 255.232 72.7562C254.393 72.1266 253.973 71.2871 253.973 70.2378V70.1853H252.976C252.836 70.605 252.521 71.1647 252.031 71.8642C251.542 72.5288 250.772 73.1235 249.723 73.6481C248.674 74.1728 247.239 74.4352 245.421 74.4352ZM246.575 69.0835C248.429 69.0835 249.933 68.5763 251.087 67.5619C252.276 66.5126 252.871 65.1309 252.871 63.417V62.8923H246.208C244.983 62.8923 244.021 63.1546 243.322 63.6793C242.622 64.204 242.273 64.9385 242.273 65.8829C242.273 66.8274 242.64 67.5969 243.374 68.1915C244.109 68.7862 245.176 69.0835 246.575 69.0835ZM264.001 73.7006V47.6767H270.507V50.6149H271.451C271.836 49.5656 272.465 48.796 273.34 48.3063C274.249 47.8166 275.299 47.5718 276.488 47.5718H279.636V53.4482H276.383C274.704 53.4482 273.322 53.9029 272.238 54.8123C271.154 55.6868 270.612 57.0509 270.612 58.9048V73.7006H264.001ZM292.066 74.4352C289.477 74.4352 287.186 73.893 285.193 72.8087C283.234 71.6894 281.695 70.1328 280.575 68.1391C279.491 66.1103 278.949 63.7318 278.949 61.0035V60.3739C278.949 57.6456 279.491 55.2845 280.575 53.2907C281.66 51.262 283.181 49.7055 285.14 48.6211C287.099 47.5018 289.372 46.9422 291.961 46.9422C294.514 46.9422 296.735 47.5193 298.624 48.6736C300.513 49.7929 301.982 51.3669 303.032 53.3957C304.081 55.3894 304.606 57.7155 304.606 60.3739V62.63H285.665C285.735 64.4139 286.399 65.8655 287.659 66.9848C288.918 68.1041 290.457 68.6637 292.276 68.6637C294.13 68.6637 295.494 68.2615 296.368 67.457C297.243 66.6525 297.907 65.7605 298.362 64.7811L303.766 67.6144C303.276 68.5238 302.559 69.5207 301.615 70.605C300.705 71.6544 299.481 72.5638 297.942 73.3333C296.403 74.0679 294.444 74.4352 292.066 74.4352ZM285.717 57.698H297.89C297.75 56.1939 297.138 54.9872 296.053 54.0778C295.004 53.1683 293.622 52.7136 291.908 52.7136C290.125 52.7136 288.708 53.1683 287.659 54.0778C286.609 54.9872 285.962 56.1939 285.717 57.698ZM318.675 74.4352C316.086 74.4352 313.795 73.893 311.801 72.8087C309.843 71.6894 308.304 70.1328 307.184 68.1391C306.1 66.1103 305.558 63.7318 305.558 61.0035V60.3739C305.558 57.6456 306.1 55.2845 307.184 53.2907C308.269 51.262 309.79 49.7055 311.749 48.6211C313.708 47.5018 315.981 46.9422 318.57 46.9422C321.123 46.9422 323.344 47.5193 325.233 48.6736C327.122 49.7929 328.591 51.3669 329.64 53.3957C330.69 55.3894 331.214 57.7155 331.214 60.3739V62.63H312.274C312.344 64.4139 313.008 65.8655 314.267 66.9848C315.527 68.1041 317.066 68.6637 318.885 68.6637C320.738 68.6637 322.103 68.2615 322.977 67.457C323.851 66.6525 324.516 65.7605 324.971 64.7811L330.375 67.6144C329.885 68.5238 329.168 69.5207 328.224 70.605C327.314 71.6544 326.09 72.5638 324.551 73.3333C323.012 74.0679 321.053 74.4352 318.675 74.4352ZM312.326 57.698H324.499C324.359 56.1939 323.746 54.9872 322.662 54.0778C321.613 53.1683 320.231 52.7136 318.517 52.7136C316.733 52.7136 315.317 53.1683 314.267 54.0778C313.218 54.9872 312.571 56.1939 312.326 57.698ZM333.426 73.7006V47.6767H339.932V50.6149H340.876C341.261 49.5656 341.891 48.796 342.765 48.3063C343.674 47.8166 344.724 47.5718 345.913 47.5718H349.061V53.4482H345.808C344.129 53.4482 342.748 53.9029 341.663 54.8123C340.579 55.6868 340.037 57.0509 340.037 58.9048V73.7006H333.426Z" fill="#EDEDED"/>
<rect x="27.1445" y="1.65154" width="0.385551" height="105.641" fill="#71B2F9"/>
<rect x="92.6885" y="1.6519" width="0.385551" height="105.641" fill="#71B2F9"/>
<rect x="108.11" y="1.6519" width="0.385551" height="105.641" fill="#71B2F9"/>
<rect x="349.463" y="0.109436" width="0.385551" height="106.412" fill="#71B2F9"/>
<rect x="0.252637" y="22.5677" width="385.356" height="0.192774" stroke="#71B2F9" stroke-width="0.192774" stroke-dasharray="1.54 1.54"/>
<rect x="0.252637" y="88.8824" width="385.356" height="0.192774" stroke="#71B2F9" stroke-width="0.192774" stroke-dasharray="1.54 1.54"/>
<rect x="0.15625" y="74.1349" width="385.549" height="0.385549" fill="#71B2F9"/>
<rect x="27.1445" y="23.2424" width="65.5436" height="65.5436" rx="5.95848" fill="#2D5BF6"/>
<path d="M34.8555 40.0236C34.8555 39.4632 35.451 39.1036 35.9469 39.3643L54.5672 49.1546C54.8121 49.2833 54.9654 49.5372 54.9654 49.8138L54.9654 56.1477C54.9654 56.715 54.3566 57.074 53.8601 56.7995L35.2399 46.501C35.0027 46.3698 34.8555 46.1202 34.8555 45.8492L34.8555 40.0236Z" fill="#EDEDED"/>
<rect x="47.3306" y="56.1074" width="7.63434" height="15.7698" rx="0.372405" fill="#EDEDED"/>
<path d="M71.8254 49.4231C73.3524 47.7573 74.8554 46.1252 76.3526 44.4877C76.7378 44.0664 77.1806 43.8428 77.7735 43.8497C79.6453 43.8715 81.5175 43.8632 83.3896 43.8559C83.9159 43.8539 84.3301 44.0351 84.6022 44.4932C84.9389 45.0599 84.7082 45.5128 84.3132 45.9427C82.5511 47.8605 80.794 49.7828 79.0354 51.7037C74.1375 57.0538 67.7565 64.0243 62.8584 69.3741C62.4024 69.8721 61.9521 70.3757 61.4845 70.8627C60.7817 71.5947 59.87 71.3725 59.5577 70.4058C59.4791 70.1623 59.4697 69.9148 59.4694 69.6627C59.4672 67.7328 59.4795 65.8026 59.4477 63.8731C59.437 63.2274 59.6459 62.7269 60.0749 62.2599C63.4947 58.5372 68.387 53.1843 71.8254 49.4231Z" fill="#EDEDED"/>
<path d="M79.3188 65.0911C80.6605 66.5585 81.974 67.9962 83.2877 69.4336C83.6451 69.8246 83.7605 70.2625 83.5414 70.7622C83.3384 71.2252 82.9347 71.426 82.4758 71.4306C80.4507 71.4505 78.4253 71.4424 76.4001 71.4363C75.9919 71.435 75.658 71.2369 75.3878 70.9439C73.8454 69.2711 72.3001 67.6009 70.7717 65.9154C70.3145 65.4112 70.3167 64.9208 70.7684 64.4107C71.7781 63.2705 72.7997 62.1403 73.8373 61.0254C74.3973 60.4236 75.0455 60.467 75.6408 61.1088C76.8604 62.4236 78.0744 63.7435 79.3188 65.0911Z" fill="#EDEDED"/>
<path d="M61.9281 43.2962C63.008 43.2947 64.0304 43.287 65.0527 43.2939C66.06 43.3007 66.4852 43.7407 66.4841 44.7469C66.4819 46.5794 66.4703 48.4121 66.4879 50.2444C66.4921 50.6817 66.3638 51.0094 66.0652 51.3287C64.564 52.9342 63.0763 54.5525 61.5966 56.1779C61.2016 56.6119 60.7359 56.795 60.199 56.5873C59.6801 56.3867 59.5735 55.9006 59.5699 55.3899C59.5461 52.0343 59.5188 48.6788 59.4963 45.3233C59.4851 43.6461 59.8338 43.3012 61.5233 43.2974C61.6391 43.2971 61.7548 43.2967 61.9281 43.2962Z" fill="#EDEDED"/>
</svg>
