<svg width="345" height="96" viewBox="0 0 345 96" fill="none" xmlns="http://www.w3.org/2000/svg">
<rect x="0.689331" y="40.6724" width="23.4383" height="25.5064" fill="#171919"/>
<rect x="0.000244141" y="40.6719" width="344.68" height="0.34468" fill="#71B2F9"/>
<rect x="312.279" y="40.6719" width="31.7107" height="25.5064" fill="#171919"/>
<path d="M107.328 65.3022C105.796 65.3022 104.545 64.8332 103.576 63.8951C102.638 62.9257 102.169 61.6436 102.169 60.0488V46.9152H96.3524V42.037H102.169V34.8135H108.079V42.037H114.458V46.9152H108.079V59.0169C108.079 59.955 108.517 60.424 109.392 60.424H113.895V65.3022H107.328ZM126.301 65.9589C123.987 65.9589 121.938 65.4742 120.156 64.5048C118.405 63.5042 117.029 62.1126 116.028 60.3302C115.059 58.5165 114.574 56.3901 114.574 53.951V53.3882C114.574 50.9491 115.059 48.8383 116.028 47.0559C116.998 45.2422 118.358 43.8506 120.109 42.8813C121.86 41.8806 123.893 41.3803 126.207 41.3803C128.49 41.3803 130.475 41.8962 132.164 42.9282C133.852 43.9288 135.166 45.336 136.104 47.1497C137.042 48.9321 137.511 51.0116 137.511 53.3882V55.4051H120.578C120.641 56.9999 121.235 58.2976 122.361 59.2983C123.486 60.299 124.862 60.7993 126.488 60.7993C128.146 60.7993 129.365 60.4397 130.147 59.7205C130.929 59.0012 131.523 58.2038 131.929 57.3283L136.761 59.8612C136.323 60.6742 135.682 61.5654 134.837 62.5348C134.024 63.4729 132.93 64.286 131.554 64.9739C130.178 65.6306 128.427 65.9589 126.301 65.9589ZM120.625 50.996H131.507C131.382 49.6513 130.835 48.5725 129.865 47.7595C128.927 46.9464 127.692 46.5399 126.16 46.5399C124.565 46.5399 123.299 46.9464 122.361 47.7595C121.422 48.5725 120.844 49.6513 120.625 50.996ZM150.417 65.9589C148.166 65.9589 146.117 65.4899 144.273 64.5518C142.459 63.6136 141.02 62.2534 139.957 60.4709C138.894 58.6885 138.362 56.5309 138.362 53.9979V53.3413C138.362 50.8083 138.894 48.6507 139.957 46.8683C141.02 45.0858 142.459 43.7256 144.273 42.7875C146.117 41.8493 148.166 41.3803 150.417 41.3803C152.637 41.3803 154.545 41.7712 156.14 42.5529C157.734 43.3347 159.017 44.4135 159.986 45.7894C160.987 47.1341 161.643 48.6663 161.956 50.3862L156.234 51.6057C156.108 50.6676 155.827 49.8233 155.389 49.0728C154.951 48.3223 154.326 47.7282 153.513 47.2904C152.731 46.8526 151.746 46.6337 150.558 46.6337C149.37 46.6337 148.291 46.8995 147.321 47.4311C146.383 47.9315 145.633 48.6976 145.07 49.7295C144.538 50.7302 144.273 51.9654 144.273 53.4351V53.9041C144.273 55.3738 144.538 56.6247 145.07 57.6566C145.633 58.6573 146.383 59.4234 147.321 59.955C148.291 60.4553 149.37 60.7055 150.558 60.7055C152.34 60.7055 153.685 60.2521 154.592 59.3452C155.53 58.4071 156.124 57.1875 156.374 55.6866L162.097 57.0468C161.69 58.7042 160.987 60.2208 159.986 61.5967C159.017 62.9413 157.734 64.0045 156.14 64.7863C154.545 65.568 152.637 65.9589 150.417 65.9589ZM163.689 65.3022V32.4682H169.599V44.8982H170.443C170.693 44.3979 171.084 43.8976 171.616 43.3972C172.147 42.8969 172.851 42.4904 173.726 42.1777C174.633 41.8337 175.775 41.6617 177.151 41.6617C178.964 41.6617 180.543 42.0839 181.888 42.9282C183.264 43.7412 184.327 44.8826 185.078 46.3523C185.828 47.7907 186.203 49.4793 186.203 51.4181V65.3022H180.293V51.8872C180.293 50.136 179.855 48.8227 178.98 47.9471C178.136 47.0715 176.916 46.6337 175.321 46.6337C173.508 46.6337 172.1 47.2435 171.1 48.4631C170.099 49.6513 169.599 51.3243 169.599 53.482V65.3022H163.689ZM189.309 65.3022V32.4682H195.219V50.6207H196.064L203.756 42.037H211.449L200.707 53.2944L211.824 65.3022H204.225L196.064 56.0618H195.219V65.3022H189.309ZM219.267 65.9589C217.61 65.9589 216.125 65.6775 214.811 65.1146C213.498 64.5205 212.45 63.6762 211.668 62.5817C210.918 61.456 210.543 60.0957 210.543 58.5009C210.543 56.9061 210.918 55.5771 211.668 54.5139C212.45 53.4194 213.513 52.6064 214.858 52.0748C216.234 51.5119 217.798 51.2305 219.549 51.2305H225.928V49.9171C225.928 48.8227 225.584 47.9315 224.896 47.2435C224.208 46.5243 223.114 46.1647 221.613 46.1647C220.143 46.1647 219.048 46.5086 218.329 47.1966C217.61 47.8533 217.141 48.7132 216.922 49.7764L211.481 47.9471C211.856 46.7588 212.45 45.68 213.263 44.7106C214.108 43.7099 215.218 42.9125 216.594 42.3184C218.001 41.693 219.705 41.3803 221.706 41.3803C224.771 41.3803 227.194 42.1464 228.977 43.6787C230.759 45.2109 231.65 47.4311 231.65 50.3393V59.0169C231.65 59.955 232.088 60.424 232.964 60.424H234.84V65.3022H230.9C229.743 65.3022 228.789 65.0208 228.039 64.4579C227.288 63.8951 226.913 63.1446 226.913 62.2065V62.1596H226.022C225.897 62.5348 225.615 63.0351 225.177 63.6605C224.74 64.2547 224.052 64.7863 223.114 65.2553C222.175 65.7244 220.893 65.9589 219.267 65.9589ZM220.299 61.1745C221.957 61.1745 223.301 60.7211 224.333 59.8143C225.396 58.8761 225.928 57.641 225.928 56.1087V55.6396H219.971C218.876 55.6396 218.016 55.8742 217.391 56.3432C216.766 56.8123 216.453 57.469 216.453 58.3133C216.453 59.1576 216.781 59.8455 217.438 60.3771C218.095 60.9087 219.048 61.1745 220.299 61.1745ZM235.878 65.3022V42.037H241.694V44.6637H242.538C242.882 43.7256 243.445 43.0376 244.227 42.5998C245.04 42.162 245.978 41.9431 247.041 41.9431H249.856V47.1966H246.948C245.447 47.1966 244.211 47.6031 243.242 48.4161C242.273 49.1979 241.788 50.4175 241.788 52.0748V65.3022H235.878ZM260.968 65.9589C258.654 65.9589 256.606 65.4742 254.823 64.5048C253.072 63.5042 251.696 62.1126 250.696 60.3302C249.726 58.5165 249.242 56.3901 249.242 53.951V53.3882C249.242 50.9491 249.726 48.8383 250.696 47.0559C251.665 45.2422 253.025 43.8506 254.776 42.8813C256.528 41.8806 258.56 41.3803 260.874 41.3803C263.157 41.3803 265.143 41.8962 266.831 42.9282C268.52 43.9288 269.833 45.336 270.771 47.1497C271.709 48.9321 272.178 51.0116 272.178 53.3882V55.4051H255.245C255.308 56.9999 255.902 58.2976 257.028 59.2983C258.154 60.299 259.53 60.7993 261.156 60.7993C262.813 60.7993 264.033 60.4397 264.814 59.7205C265.596 59.0012 266.19 58.2038 266.597 57.3283L271.428 59.8612C270.99 60.6742 270.349 61.5654 269.505 62.5348C268.692 63.4729 267.597 64.286 266.221 64.9739C264.846 65.6306 263.094 65.9589 260.968 65.9589ZM255.292 50.996H266.175C266.049 49.6513 265.502 48.5725 264.533 47.7595C263.595 46.9464 262.36 46.5399 260.827 46.5399C259.232 46.5399 257.966 46.9464 257.028 47.7595C256.09 48.5725 255.511 49.6513 255.292 50.996ZM284.756 65.9589C282.442 65.9589 280.394 65.4742 278.612 64.5048C276.86 63.5042 275.484 62.1126 274.484 60.3302C273.514 58.5165 273.03 56.3901 273.03 53.951V53.3882C273.03 50.9491 273.514 48.8383 274.484 47.0559C275.453 45.2422 276.813 43.8506 278.565 42.8813C280.316 41.8806 282.348 41.3803 284.662 41.3803C286.945 41.3803 288.931 41.8962 290.619 42.9282C292.308 43.9288 293.621 45.336 294.56 47.1497C295.498 48.9321 295.967 51.0116 295.967 53.3882V55.4051H279.034C279.096 56.9999 279.69 58.2976 280.816 59.2983C281.942 60.299 283.318 60.7993 284.944 60.7993C286.601 60.7993 287.821 60.4397 288.602 59.7205C289.384 59.0012 289.978 58.2038 290.385 57.3283L295.216 59.8612C294.778 60.6742 294.137 61.5654 293.293 62.5348C292.48 63.4729 291.386 64.286 290.01 64.9739C288.634 65.6306 286.883 65.9589 284.756 65.9589ZM279.081 50.996H289.963C289.838 49.6513 289.29 48.5725 288.321 47.7595C287.383 46.9464 286.148 46.5399 284.615 46.5399C283.021 46.5399 281.754 46.9464 280.816 47.7595C279.878 48.5725 279.299 49.6513 279.081 50.996ZM297.944 65.3022V42.037H303.76V44.6637H304.604C304.948 43.7256 305.511 43.0376 306.293 42.5998C307.106 42.162 308.044 41.9431 309.107 41.9431H311.922V47.1966H309.013C307.512 47.1966 306.277 47.6031 305.308 48.4161C304.339 49.1979 303.854 50.4175 303.854 52.0748V65.3022H297.944Z" fill="#EDEDED"/>
<rect x="24.127" y="1.37842" width="0.344681" height="94.4427" fill="#71B2F9"/>
<rect x="82.7227" y="1.37891" width="0.344681" height="94.4427" fill="#71B2F9"/>
<rect x="96.51" y="1.37891" width="0.344681" height="94.4427" fill="#71B2F9"/>
<rect x="312.279" width="0.344681" height="95.132" fill="#71B2F9"/>
<rect x="0.086414" y="20.0774" width="344.507" height="0.17234" stroke="#71B2F9" stroke-width="0.17234" stroke-dasharray="1.38 1.38"/>
<rect x="0.086414" y="79.3625" width="344.507" height="0.17234" stroke="#71B2F9" stroke-width="0.17234" stroke-dasharray="1.38 1.38"/>
<rect x="0.000244141" y="66.1782" width="344.68" height="0.34468" fill="#71B2F9"/>
<rect x="24.1289" y="20.6812" width="58.5958" height="58.5958" rx="5.32687" fill="#2D5BF6"/>
<path d="M31.0235 35.683C31.0235 35.182 31.5558 34.8605 31.9992 35.0936L48.6457 43.846C48.8646 43.9611 49.0017 44.1881 49.0017 44.4354L49.0017 50.0979C49.0017 50.6051 48.4574 50.926 48.0136 50.6806L31.3671 41.4737C31.1551 41.3565 31.0235 41.1333 31.0235 40.8911L31.0235 35.683Z" fill="#EDEDED"/>
<rect x="42.1775" y="50.062" width="6.82508" height="14.0982" rx="0.332929" fill="#EDEDED"/>
<path d="M64.3368 44.0868C65.7047 42.5976 67.0511 41.1384 68.3924 39.6745C68.7375 39.2979 69.1342 39.098 69.6653 39.1041C71.3421 39.1237 73.0193 39.1163 74.6963 39.1097C75.1678 39.1079 75.5389 39.2699 75.7827 39.6794C76.0843 40.1861 75.8776 40.591 75.5238 40.9753C73.9452 42.6898 72.3711 44.4083 70.7957 46.1256C66.408 50.9086 60.6917 57.1402 56.3038 61.9229C55.8954 62.3682 55.4919 62.8183 55.0731 63.2537C54.4435 63.9081 53.6267 63.7094 53.347 62.8452C53.2765 62.6276 53.2682 62.4063 53.2679 62.181C53.2659 60.4556 53.2769 58.73 53.2484 57.0051C53.2389 56.4278 53.426 55.9804 53.8103 55.5628C56.8738 52.2347 61.2565 47.4493 64.3368 44.0868Z" fill="#EDEDED"/>
<path d="M71.0495 58.0936C72.2515 59.4055 73.4282 60.6907 74.6051 61.9758C74.9252 62.3254 75.0286 62.7168 74.8323 63.1636C74.6505 63.5775 74.2888 63.757 73.8777 63.7611C72.0636 63.7789 70.2491 63.7717 68.4348 63.7661C68.0692 63.765 67.7701 63.5879 67.528 63.3259C66.1463 61.8305 64.762 60.3373 63.3928 58.8305C62.9832 58.3798 62.9851 57.9414 63.3898 57.4854C64.2944 56.466 65.2095 55.4556 66.139 54.4588C66.6407 53.9208 67.2214 53.9596 67.7547 54.5334C68.8472 55.7088 69.9347 56.8889 71.0495 58.0936Z" fill="#EDEDED"/>
<path d="M55.4697 38.6091C56.4371 38.6077 57.353 38.6009 58.2688 38.607C59.1711 38.613 59.5521 39.0064 59.5511 39.906C59.5491 41.5443 59.5388 43.1826 59.5545 44.8207C59.5583 45.2117 59.4433 45.5046 59.1759 45.7901C57.831 47.2254 56.4983 48.6721 55.1727 50.1253C54.8188 50.5132 54.4016 50.6769 53.9207 50.4913C53.4559 50.3119 53.3603 49.8774 53.3571 49.4208C53.3358 46.4209 53.3113 43.4211 53.2912 40.4213C53.2812 38.9219 53.5935 38.6136 55.1071 38.6101C55.2108 38.6099 55.3145 38.6095 55.4697 38.6091Z" fill="#EDEDED"/>
</svg>
